<?xml version="1.0" encoding="UTF-8" ?>
<!DOCTYPE svg PUBLIC "-//W3C//DTD SVG 1.1//EN" "http://www.w3.org/Graphics/SVG/1.1/DTD/svg11.dtd">
<svg width="467pt" height="350pt" viewBox="0 0 467 350" version="1.1" xmlns="http://www.w3.org/2000/svg">
<g id="#231f20ff">
<path fill="#231f20" opacity="1.00" d=" M 0.00 0.00 L 19.50 0.00 C 13.23 2.59 6.82 5.00 0.00 5.54 L 0.00 0.00 Z" />
<path fill="#231f20" opacity="1.00" d=" M 56.46 0.00 L 85.37 0.00 C 88.92 4.39 90.55 10.37 95.36 13.69 C 101.09 17.46 108.55 14.46 114.54 17.53 C 119.69 20.18 123.80 24.71 129.46 26.41 C 135.47 28.29 142.06 26.59 147.23 23.26 C 154.34 18.73 159.57 11.69 167.18 7.90 C 172.33 5.17 178.30 5.36 183.89 4.31 C 182.61 2.84 181.34 1.36 179.94 0.00 L 218.44 0.00 C 222.20 2.35 226.33 4.83 230.97 4.18 C 234.40 4.06 237.20 2.01 239.79 0.00 L 247.75 0.00 C 250.73 5.22 256.89 9.04 262.98 7.06 C 266.66 6.35 268.75 3.11 270.29 0.00 L 284.80 0.00 C 285.55 3.29 286.23 6.83 288.63 9.38 C 292.50 13.59 297.72 16.22 301.77 20.24 C 310.46 27.99 309.93 41.56 318.96 49.10 C 328.26 56.71 341.61 54.10 351.58 60.38 C 360.47 65.20 365.53 74.74 374.37 79.59 C 380.15 82.73 387.00 81.72 393.00 79.82 C 390.30 73.91 388.78 67.29 390.35 60.84 C 386.82 60.05 383.24 58.91 380.50 56.43 C 375.21 51.76 371.16 45.55 364.76 42.24 C 358.96 39.24 351.87 41.09 346.16 37.85 C 341.86 35.26 338.50 31.33 335.99 27.03 C 332.79 27.89 329.37 28.99 326.11 27.80 C 319.71 25.99 316.57 17.60 319.98 11.96 C 321.94 8.77 326.54 8.34 329.67 9.92 C 328.41 12.47 325.14 11.71 322.94 12.79 C 319.51 17.15 322.50 24.59 328.04 25.30 C 335.90 26.39 343.34 18.80 342.61 11.00 C 342.50 6.67 340.12 2.75 336.87 0.00 L 369.72 0.00 C 361.76 3.43 353.26 6.26 344.46 5.33 C 345.40 9.07 346.13 13.08 344.78 16.82 C 343.72 20.50 340.90 23.22 338.23 25.80 C 344.14 26.61 350.17 26.71 356.05 25.63 C 363.61 24.46 370.46 20.57 378.09 19.75 C 385.38 18.87 393.25 19.32 399.67 23.20 C 407.37 27.78 411.04 36.69 418.60 41.47 C 424.78 46.48 433.65 45.89 439.51 51.43 C 441.23 53.23 444.75 55.18 443.14 58.07 C 438.71 58.50 434.01 57.59 429.86 59.63 C 426.22 61.31 422.38 62.73 418.30 62.53 C 417.02 65.77 414.92 69.46 410.95 69.55 C 408.63 69.57 404.27 69.06 405.09 65.79 C 407.45 65.88 409.87 66.90 412.21 66.32 C 416.32 64.02 416.74 56.75 412.21 54.61 C 405.19 50.89 394.72 54.92 393.03 62.99 C 391.65 69.78 393.91 77.24 398.94 82.04 C 404.80 88.01 414.32 88.97 421.89 86.03 C 429.37 83.41 435.17 77.68 442.35 74.49 C 450.25 71.15 458.80 74.03 467.00 73.96 L 467.00 88.79 C 461.83 88.64 456.41 87.75 451.45 89.70 C 444.43 92.59 441.06 100.80 433.43 102.67 C 426.07 104.87 416.14 103.56 411.82 111.36 C 416.96 111.70 422.30 110.97 427.25 112.74 C 431.79 114.49 435.10 118.20 438.56 121.46 C 442.89 125.64 447.90 129.32 453.72 131.12 C 458.00 132.52 462.54 132.62 467.00 132.70 L 467.00 136.33 C 461.01 141.40 455.68 147.95 454.44 155.92 C 453.62 160.71 454.91 166.12 458.79 169.28 C 461.05 171.22 464.19 171.25 467.00 171.59 L 467.00 200.34 C 463.79 198.21 460.45 196.07 458.25 192.82 C 455.93 190.04 454.44 186.17 450.90 184.73 C 445.60 183.50 440.29 185.96 434.97 185.25 C 430.24 184.31 427.12 180.10 422.66 178.55 C 419.61 177.57 416.60 179.01 413.82 180.13 C 416.72 183.41 419.84 187.34 418.99 192.04 C 418.27 199.71 408.64 205.69 401.84 201.24 C 397.05 198.33 397.75 190.06 403.09 188.22 C 405.41 187.16 407.63 188.92 409.72 189.75 C 409.31 190.35 408.49 191.54 408.08 192.14 C 406.89 191.55 405.71 190.96 404.53 190.37 C 401.94 192.05 400.19 195.74 402.78 198.27 C 406.59 201.67 412.73 199.03 414.99 195.02 C 417.30 191.49 416.15 186.69 413.15 183.96 C 409.79 180.58 404.35 180.14 400.13 182.04 C 394.99 184.29 391.77 189.18 387.14 192.16 C 384.21 194.11 380.57 194.10 377.21 194.64 C 371.60 195.44 366.77 198.88 362.99 202.94 C 359.60 206.97 354.48 209.02 349.26 208.92 C 351.14 212.84 354.24 216.32 358.51 217.62 C 366.41 220.68 374.80 216.44 382.82 218.52 C 390.78 220.22 397.58 225.88 405.95 225.91 C 412.60 226.36 418.77 223.16 423.79 219.08 C 420.76 213.76 420.03 206.77 423.38 201.43 C 426.66 195.88 435.00 193.66 440.25 197.72 C 443.85 200.30 445.24 205.87 442.66 209.60 C 440.97 211.83 437.37 214.08 435.06 211.37 C 437.31 209.60 441.53 208.57 441.21 204.97 C 440.99 200.11 435.38 197.28 431.08 198.95 C 422.65 201.49 421.65 214.69 428.69 219.35 C 433.37 222.46 439.60 223.57 444.92 221.54 C 450.00 219.50 452.56 214.03 457.49 211.79 C 460.53 210.63 463.81 210.35 467.00 209.84 L 467.00 221.00 C 462.28 224.56 459.21 229.83 454.43 233.28 C 447.95 237.55 440.05 234.45 432.93 235.34 C 429.45 235.66 426.74 238.08 424.40 240.45 C 428.72 241.68 433.87 242.37 436.61 246.40 C 440.14 251.34 442.27 258.37 448.79 260.18 C 454.82 261.47 461.56 260.00 467.00 263.62 L 467.00 298.97 C 463.58 293.26 460.41 287.12 455.13 282.87 C 446.91 275.56 434.09 277.61 426.41 269.52 C 418.31 261.24 414.02 249.46 403.92 243.12 C 396.53 238.14 386.91 238.71 378.83 241.56 C 367.66 245.38 356.72 251.79 344.47 250.33 C 345.40 254.08 346.13 258.10 344.77 261.86 C 343.70 265.52 340.89 268.23 338.23 270.80 C 344.16 271.61 350.21 271.71 356.11 270.62 C 363.63 269.44 370.45 265.58 378.04 264.75 C 385.61 263.83 393.85 264.36 400.39 268.65 C 406.85 272.77 410.29 280.02 416.26 284.70 C 419.96 287.79 424.33 290.09 429.04 291.22 C 434.34 292.43 439.18 295.40 442.67 299.55 C 443.80 300.61 443.92 301.78 443.02 303.07 C 438.87 303.53 434.49 302.60 430.55 304.36 C 426.66 306.06 422.65 307.79 418.30 307.53 C 417.03 310.74 414.97 314.41 411.04 314.54 C 408.75 314.58 404.24 314.09 405.12 310.85 C 407.50 310.77 409.92 311.97 412.25 311.30 C 416.07 309.11 416.76 302.44 412.83 300.00 C 407.92 296.82 401.12 298.15 396.78 301.72 C 392.61 305.16 391.97 311.17 393.09 316.15 C 394.05 321.77 397.65 326.78 402.44 329.79 C 409.00 333.73 417.46 333.33 424.21 330.07 C 430.93 327.17 436.32 321.87 443.14 319.18 C 450.87 316.32 459.06 319.04 467.00 318.96 L 467.00 333.79 C 461.83 333.64 456.42 332.75 451.47 334.69 C 444.86 337.34 441.65 344.75 434.90 347.16 C 430.54 348.71 425.87 349.06 421.37 350.00 L 371.48 350.00 C 368.67 345.19 364.83 340.71 359.55 338.59 C 353.52 335.96 345.83 337.48 341.51 342.50 C 339.64 344.54 340.17 347.48 340.27 350.00 L 337.92 350.00 C 336.07 349.17 334.30 347.75 332.18 347.75 C 330.41 347.99 328.98 349.22 327.42 350.00 L 324.93 350.00 C 327.05 345.18 332.62 344.40 337.11 346.12 C 338.81 337.66 348.06 334.30 355.78 334.44 C 355.14 332.23 355.10 329.23 352.59 328.26 C 348.23 326.28 343.12 327.21 338.77 325.23 C 336.16 324.01 335.77 320.90 334.90 318.48 C 332.57 319.85 329.62 321.00 328.72 323.82 C 327.42 326.83 327.53 331.28 323.86 332.56 C 320.59 334.21 315.39 333.70 314.07 337.88 C 312.99 340.09 312.88 343.11 310.52 344.43 C 307.52 346.12 304.34 347.57 301.84 350.00 L 265.62 350.00 C 258.39 344.24 249.17 341.37 239.95 341.77 C 233.03 342.01 225.83 343.61 219.17 340.93 C 210.69 338.16 204.17 330.83 195.05 329.87 C 190.00 329.12 184.96 330.19 179.92 330.47 C 168.75 330.95 160.25 320.68 149.03 321.63 C 142.48 322.26 137.79 327.16 132.70 330.74 C 123.94 336.01 113.44 332.49 103.94 333.88 C 95.45 335.28 92.07 344.85 84.14 347.35 C 79.95 348.75 75.50 349.08 71.19 350.00 L 19.97 350.00 L 21.21 349.99 C 17.21 342.26 9.06 336.15 0.00 337.36 L 0.00 334.78 C 1.85 334.71 3.69 334.65 5.54 334.57 C 5.14 332.95 4.87 331.28 4.18 329.76 C 2.94 328.63 1.40 327.91 0.00 327.02 L 0.00 304.38 C 3.45 306.78 7.03 309.06 9.98 312.10 C 15.12 317.02 19.64 323.18 26.59 325.63 C 31.89 327.56 37.59 326.36 42.81 324.80 C 39.94 318.94 38.67 312.28 40.04 305.83 C 36.61 305.04 33.12 303.97 30.45 301.58 C 25.32 297.10 21.41 291.20 15.43 287.72 C 10.76 285.00 5.17 285.31 0.00 284.49 L 0.00 281.48 C 5.40 282.54 11.24 282.13 16.21 284.85 C 22.59 288.26 26.78 294.35 32.02 299.12 C 34.54 301.46 37.91 302.45 41.23 302.95 C 46.15 296.18 56.23 292.91 63.71 297.30 C 66.54 298.73 67.58 301.88 68.56 304.65 C 72.21 304.68 75.56 303.26 78.84 301.82 C 82.12 300.35 85.75 300.22 89.28 300.11 C 85.97 297.33 82.29 294.90 78.00 294.00 C 69.84 292.10 62.87 286.78 57.70 280.34 C 54.02 275.72 50.01 270.85 44.22 268.90 C 35.31 265.92 25.52 267.31 16.89 270.58 C 11.47 272.65 5.76 273.75 0.00 274.33 L 0.00 271.45 C 11.40 270.94 21.47 264.20 32.95 264.38 C 40.33 264.13 48.12 266.07 53.55 271.33 C 59.00 276.58 62.93 283.47 69.66 287.34 C 75.12 291.27 82.44 291.04 87.74 295.25 C 90.10 297.10 92.85 299.01 93.62 302.09 C 91.84 303.89 89.18 303.03 86.94 303.22 C 80.23 302.75 74.83 308.26 68.05 307.52 C 66.93 309.77 66.05 312.50 63.62 313.69 C 60.43 315.43 55.19 314.75 54.18 310.71 C 56.64 310.90 59.08 311.76 61.56 311.45 C 64.49 310.32 65.41 306.71 65.16 303.88 C 64.68 300.85 61.71 299.03 58.92 298.48 C 54.19 297.59 48.97 299.13 45.58 302.59 C 42.25 306.13 41.90 311.44 42.81 316.00 C 43.97 322.83 48.95 328.94 55.46 331.36 C 62.31 333.88 70.02 332.46 76.25 328.94 C 83.19 325.49 88.95 319.33 96.90 318.17 C 105.08 316.92 113.33 320.17 121.50 318.31 C 126.50 317.33 130.89 314.57 134.97 311.64 C 130.88 310.60 126.68 309.42 123.34 306.71 C 117.75 302.33 115.11 295.51 111.15 289.83 C 108.22 285.41 104.21 281.66 99.36 279.47 C 93.93 276.76 87.73 276.33 82.23 273.84 C 75.85 270.80 71.90 264.65 68.05 259.02 C 62.36 250.36 55.05 240.86 43.97 239.58 C 28.26 237.82 15.34 249.59 0.00 250.54 L 0.00 211.13 C 2.85 215.47 7.72 218.25 12.88 218.65 C 19.00 219.38 25.09 217.04 31.19 218.26 C 39.82 219.59 46.99 225.98 55.94 225.92 C 62.50 226.29 68.58 223.12 73.52 219.08 C 70.91 214.29 69.83 208.39 72.17 203.29 C 74.73 196.20 85.02 192.94 90.68 198.32 C 94.55 201.56 95.08 208.58 90.50 211.44 C 88.92 212.36 85.71 214.04 85.35 211.11 C 87.36 209.30 91.36 208.46 90.86 205.03 C 90.91 200.21 85.20 197.33 80.99 198.91 C 72.60 201.24 71.35 214.01 77.97 218.99 C 82.44 222.31 88.58 223.46 93.91 221.82 C 99.90 219.93 102.56 213.09 108.59 211.32 C 113.60 209.84 119.13 210.29 123.85 207.81 C 126.68 206.39 128.55 203.75 130.42 201.30 C 124.04 202.11 116.99 201.57 111.99 197.07 C 107.73 193.86 105.92 188.40 101.70 185.21 C 96.03 182.83 89.90 186.40 84.06 185.11 C 79.50 183.88 76.46 179.71 71.93 178.43 C 68.99 177.67 66.17 179.09 63.52 180.19 C 65.95 182.97 68.81 185.96 68.77 189.92 C 69.57 197.91 60.59 205.12 53.02 202.04 C 48.56 200.37 46.96 194.38 49.73 190.58 C 51.77 187.09 58.07 187.01 59.47 191.10 C 57.45 191.96 55.32 190.90 53.26 191.24 C 50.37 192.95 50.72 197.94 53.84 199.24 C 59.59 201.65 66.59 196.08 65.87 189.97 C 65.41 183.46 57.86 179.38 51.91 181.37 C 44.71 183.09 41.21 190.70 34.51 193.32 C 30.20 194.67 25.41 194.16 21.34 196.38 C 16.89 198.33 13.78 202.14 10.22 205.28 C 7.43 207.81 3.62 208.57 0.00 208.98 L 0.00 190.59 C 3.60 186.59 7.35 182.41 12.43 180.29 C 19.62 177.04 28.01 177.09 34.75 172.78 C 40.23 169.31 40.20 161.94 44.30 157.36 C 49.04 151.37 56.75 149.03 64.06 148.31 C 62.87 146.44 61.87 144.25 59.79 143.21 C 54.30 140.18 47.27 142.74 42.06 138.94 C 35.65 134.24 32.91 126.14 26.52 121.41 C 19.02 115.37 7.75 116.70 0.00 121.59 L 0.00 109.08 C 1.80 106.63 1.54 103.92 0.00 101.45 L 0.00 98.84 C 1.03 99.72 2.10 100.54 3.17 101.36 C 5.67 101.98 8.37 102.80 9.82 105.12 C 11.96 107.76 11.66 111.32 11.91 114.49 C 16.05 114.82 20.20 115.24 24.18 116.47 C 22.97 109.81 21.22 102.72 15.97 98.01 C 11.81 93.82 5.88 91.74 0.00 92.36 L 0.00 89.78 C 1.85 89.71 3.69 89.65 5.54 89.57 C 5.14 87.95 4.87 86.27 4.17 84.75 C 2.93 83.63 1.40 82.91 0.00 82.02 L 0.00 59.38 C 3.63 61.88 7.35 64.31 10.41 67.52 C 15.51 72.49 20.15 78.67 27.25 80.85 C 32.39 82.49 37.79 81.27 42.81 79.80 C 39.94 73.94 38.66 67.28 40.04 60.83 C 36.63 60.04 33.14 58.99 30.48 56.60 C 25.34 52.13 21.43 46.22 15.46 42.74 C 10.78 40.00 5.18 40.31 0.00 39.49 L 0.00 36.48 C 5.38 37.54 11.19 37.12 16.14 39.81 C 22.54 43.20 26.74 49.31 31.99 54.09 C 34.51 56.44 37.89 57.46 41.22 57.95 C 46.14 51.19 56.19 47.92 63.68 52.28 C 66.52 53.70 67.58 56.86 68.55 59.65 C 72.18 59.69 75.53 58.28 78.78 56.84 C 82.08 55.35 85.74 55.23 89.29 55.11 C 85.98 52.35 82.30 49.90 78.01 49.01 C 69.83 47.10 62.85 41.77 57.66 35.30 C 54.00 30.68 49.99 25.85 44.21 23.90 C 35.28 20.92 25.48 22.31 16.84 25.60 C 11.43 27.66 5.74 28.75 0.00 29.33 L 0.00 26.45 C 6.17 25.84 12.20 24.35 17.99 22.14 C 27.50 18.87 38.54 17.88 47.84 22.33 C 56.59 26.55 60.34 36.46 68.45 41.54 C 72.76 44.88 78.19 45.87 83.21 47.66 C 87.37 49.73 92.01 52.49 93.64 57.09 C 91.86 58.87 89.23 58.05 87.01 58.22 C 80.26 57.72 74.84 63.26 68.05 62.52 C 66.93 64.78 66.04 67.52 63.59 68.70 C 60.40 70.42 55.16 69.75 54.19 65.69 C 56.62 65.89 59.04 66.74 61.49 66.47 C 65.93 64.63 66.69 57.09 62.22 54.78 C 55.24 50.78 44.48 54.80 42.79 62.96 C 41.40 69.84 43.70 77.39 48.87 82.18 C 54.61 87.96 63.82 88.88 71.24 86.19 C 79.04 83.55 85.01 77.52 92.52 74.32 C 101.44 70.76 110.93 75.08 120.09 73.56 C 125.64 72.82 130.52 69.85 134.98 66.64 C 130.41 65.53 125.73 64.06 122.22 60.78 C 115.81 54.86 113.33 45.98 107.12 39.89 C 102.59 35.20 96.29 32.83 90.06 31.36 C 84.82 30.22 79.53 28.24 75.84 24.18 C 68.73 16.64 64.47 6.76 56.46 0.00 M 198.58 14.76 C 202.03 17.32 204.28 21.01 205.40 25.13 C 213.40 23.20 219.54 29.94 226.92 31.14 C 234.24 30.38 242.06 26.72 249.14 30.61 C 251.52 32.22 255.53 34.62 254.21 37.98 C 251.39 38.84 248.32 38.34 245.54 39.40 C 239.06 41.62 237.43 50.05 230.47 51.56 C 231.97 57.33 226.71 62.84 220.97 62.10 C 216.55 61.61 214.21 55.21 218.01 52.43 C 221.66 52.67 217.55 56.29 219.11 57.92 C 220.56 60.45 224.10 59.55 226.00 58.05 C 229.03 55.68 228.23 50.70 225.60 48.31 C 221.47 44.45 214.64 44.99 210.30 48.24 C 204.48 52.42 203.29 61.06 206.97 67.04 C 211.99 76.05 225.08 77.93 233.26 72.25 C 239.57 68.14 241.71 60.09 248.00 55.96 C 252.88 52.58 259.43 52.89 264.05 49.04 C 269.17 45.13 271.69 38.69 277.14 35.16 C 281.00 32.66 285.77 32.57 290.21 32.66 C 288.76 28.60 286.07 24.57 281.60 23.56 C 275.77 21.56 269.93 24.78 264.06 24.29 C 257.35 23.50 253.46 16.69 246.89 15.57 C 239.99 14.47 233.88 19.47 226.98 18.70 C 220.32 18.33 215.19 13.42 208.94 11.72 C 205.17 10.66 201.56 12.65 198.58 14.76 M 174.26 19.25 C 167.37 24.46 164.12 33.21 156.87 37.99 C 149.85 41.79 140.65 44.65 133.44 39.73 C 133.29 43.26 134.18 46.88 136.59 49.55 C 139.98 53.80 145.98 54.35 149.67 58.24 C 152.96 61.23 155.04 65.83 159.43 67.41 C 165.12 68.78 170.34 64.79 176.02 65.31 C 183.75 65.77 189.67 71.47 196.82 73.71 C 200.39 74.99 204.04 73.50 207.34 72.15 C 204.78 69.10 202.99 65.48 202.27 61.56 C 199.40 61.50 196.38 61.45 193.82 59.99 C 190.06 57.96 186.63 54.42 181.97 55.11 C 175.35 55.62 167.92 58.28 161.94 54.02 C 160.36 52.84 157.30 50.42 159.35 48.43 C 162.53 47.32 166.29 47.39 168.84 44.83 C 172.53 41.33 175.91 37.13 181.12 35.89 C 180.15 32.75 179.66 28.83 182.37 26.38 C 185.24 22.94 192.34 24.16 192.59 29.09 C 192.55 30.54 193.18 33.65 190.77 33.35 C 189.81 31.63 189.99 29.56 189.38 27.73 C 185.92 25.43 181.63 29.37 183.09 33.05 C 185.03 40.55 196.25 41.42 200.51 35.53 C 204.41 30.03 203.23 21.30 197.52 17.46 C 190.57 12.67 180.66 14.21 174.26 19.25 M 366.93 25.65 C 358.61 28.83 349.60 29.82 340.75 29.18 C 343.46 31.97 346.10 35.27 350.02 36.35 C 355.14 37.72 360.73 36.98 365.58 39.40 C 372.09 42.54 376.42 48.54 381.48 53.45 C 384.19 56.14 387.86 57.63 391.64 57.88 C 396.50 50.88 407.11 47.84 414.47 52.63 C 416.96 54.11 417.91 56.96 418.66 59.59 C 422.54 59.96 425.98 58.08 429.44 56.66 C 432.54 55.32 435.95 55.23 439.27 55.15 C 436.41 52.37 432.99 50.09 429.04 49.23 C 420.25 47.33 412.72 41.60 407.32 34.57 C 403.79 30.10 399.76 25.59 394.17 23.79 C 385.26 20.94 375.52 22.35 366.93 25.65 M 202.79 36.86 C 198.26 43.16 188.16 43.62 182.75 38.20 C 177.90 39.19 174.45 42.81 171.16 46.20 C 168.64 48.90 165.01 49.89 161.55 50.75 C 167.14 55.34 174.61 53.51 181.07 52.48 C 185.96 51.60 190.23 54.47 194.05 57.09 C 196.39 58.83 199.38 58.77 202.15 58.88 C 202.57 54.83 203.88 50.72 206.87 47.82 C 212.78 41.42 224.85 41.20 229.71 49.00 C 235.49 47.55 237.18 40.95 242.08 38.17 C 244.90 36.32 248.34 36.06 251.61 35.95 C 249.25 33.64 246.37 31.54 242.91 31.53 C 235.87 30.75 228.87 35.73 222.00 32.63 C 216.86 30.27 211.78 26.39 205.77 27.71 C 204.99 30.82 204.89 34.26 202.79 36.86 M 260.58 54.07 C 262.92 56.11 265.09 58.70 265.20 61.96 C 265.30 65.59 261.47 67.43 260.88 70.86 C 260.72 72.34 258.32 73.84 257.49 72.06 C 258.02 70.40 259.67 68.48 258.19 66.83 C 255.60 63.91 250.44 66.48 249.92 69.96 C 249.37 74.79 253.15 79.54 257.95 80.23 C 266.61 81.61 275.25 74.69 276.10 66.03 C 277.39 59.27 273.17 53.08 267.95 49.25 C 265.70 51.15 263.26 52.83 260.58 54.07 M 281.97 55.99 C 279.11 59.84 279.18 66.83 284.45 68.52 C 287.84 70.25 292.77 66.26 290.18 62.81 C 288.04 60.61 285.02 64.69 283.22 62.78 C 283.67 59.23 289.66 58.40 291.95 60.97 C 295.40 64.07 292.87 69.86 288.90 71.10 C 285.01 72.56 281.05 70.15 278.62 67.21 C 277.60 71.63 275.51 75.97 271.85 78.79 C 267.84 82.16 262.50 83.23 257.38 82.95 C 257.17 87.55 261.28 91.95 265.99 91.28 C 271.00 90.59 276.18 89.32 281.17 90.84 C 284.25 91.58 286.27 94.15 286.90 97.16 C 289.24 95.46 291.74 93.66 292.90 90.90 C 294.07 88.40 294.31 85.39 296.28 83.31 C 298.66 80.83 302.41 81.23 305.45 80.21 C 309.81 79.13 312.10 74.94 315.47 72.37 C 318.39 69.92 322.16 68.97 325.79 68.12 C 323.79 66.28 321.74 64.17 318.97 63.58 C 314.29 62.58 309.01 63.17 305.02 60.04 C 301.10 57.63 298.91 52.52 293.99 51.89 C 289.63 50.86 284.43 51.95 281.97 55.99 M 329.40 77.41 C 327.66 80.02 327.99 83.52 326.08 86.04 C 323.29 88.99 318.65 88.29 315.48 90.58 C 313.23 92.72 313.58 96.32 311.62 98.63 C 308.88 101.02 304.83 101.55 302.54 104.52 C 300.90 106.34 300.73 108.87 300.45 111.18 C 303.58 110.35 306.89 109.35 310.13 110.31 C 315.53 111.46 318.93 116.45 324.04 118.24 C 330.32 120.21 337.72 115.47 338.53 108.95 C 339.26 103.85 331.87 100.68 328.53 104.38 C 326.90 105.99 328.13 108.18 328.63 109.98 C 330.24 109.58 333.65 106.53 333.98 109.98 C 332.33 111.33 330.30 112.78 328.04 112.30 C 324.05 110.07 324.15 103.31 328.24 101.25 C 330.98 99.65 334.35 100.21 337.17 101.32 C 338.51 92.78 348.02 89.22 355.69 89.52 C 355.17 87.43 355.30 84.58 353.02 83.50 C 348.63 81.13 343.26 82.34 338.78 80.25 C 336.16 79.03 335.68 76.01 335.03 73.50 C 333.03 74.58 330.72 75.44 329.40 77.41 M 127.08 87.97 C 119.14 90.09 110.84 87.33 102.89 89.13 C 95.03 91.08 91.77 100.00 84.12 102.36 C 76.59 105.05 66.15 103.22 61.56 111.27 C 67.26 111.88 73.37 110.71 78.66 113.48 C 84.32 116.56 88.14 121.97 93.28 125.74 C 97.82 129.23 103.24 131.63 108.94 132.32 C 115.59 133.10 122.39 131.98 128.96 133.59 C 135.31 134.96 140.42 139.20 146.25 141.81 C 153.58 145.30 162.27 146.44 170.06 143.87 C 174.90 142.28 178.87 138.44 180.77 133.73 C 184.02 125.97 183.72 116.32 178.54 109.45 C 173.17 102.29 163.71 99.01 154.98 99.75 C 147.83 100.27 141.48 105.00 134.14 104.04 C 125.19 103.22 115.22 102.65 107.54 108.19 C 110.72 108.61 114.03 108.88 116.93 110.40 C 124.65 114.20 129.66 121.75 137.27 125.73 C 142.93 128.73 150.00 129.53 155.96 126.95 C 159.55 125.40 162.82 121.49 161.51 117.38 C 160.07 113.65 155.83 111.19 151.88 111.74 C 148.73 112.47 147.34 117.12 150.11 119.10 C 151.93 120.88 155.66 116.44 156.47 120.08 C 154.48 121.71 151.52 123.18 149.09 121.59 C 144.63 119.22 145.36 111.82 149.80 109.81 C 156.04 107.15 164.03 112.23 164.46 118.96 C 164.58 123.49 161.19 127.40 157.25 129.23 C 150.02 132.52 141.36 131.32 134.69 127.28 C 127.69 123.23 122.86 116.24 115.56 112.67 C 112.20 110.91 108.27 111.42 104.73 110.30 C 103.32 108.82 104.69 106.94 106.03 106.03 C 110.12 103.09 115.10 101.59 120.07 101.08 C 126.70 100.17 133.37 102.18 139.99 101.12 C 145.37 99.86 150.38 96.93 156.06 97.12 C 163.29 96.63 170.24 99.19 176.28 102.96 C 183.13 101.83 190.14 100.69 197.06 102.12 C 207.62 103.64 217.66 109.14 223.87 117.92 C 227.34 115.65 230.98 113.44 235.08 112.57 C 241.84 111.37 249.60 112.39 254.70 117.36 C 260.75 123.07 260.04 134.49 252.87 138.99 C 246.48 143.05 235.43 139.25 235.17 131.01 C 234.43 126.13 240.81 121.38 244.74 125.25 C 246.00 126.65 248.39 130.46 245.10 130.72 C 244.13 129.31 243.37 127.76 242.21 126.49 C 239.12 125.82 237.00 129.37 237.88 132.06 C 239.26 137.50 246.32 139.14 250.94 137.07 C 257.04 133.80 257.73 124.70 253.42 119.70 C 249.80 115.80 244.14 114.62 239.02 114.69 C 232.91 114.85 227.70 118.38 222.95 121.85 C 216.78 126.61 208.34 127.43 200.93 125.73 C 201.96 129.36 202.93 133.54 206.33 135.74 C 211.86 139.43 219.23 137.63 224.85 141.13 C 229.93 144.29 233.12 149.82 238.66 152.36 C 240.63 150.12 242.66 147.73 245.55 146.69 C 250.85 144.50 256.72 145.65 261.96 147.41 C 266.78 143.83 270.63 138.54 276.61 136.80 C 282.02 135.84 287.58 137.29 292.99 136.17 C 300.69 134.65 306.94 127.70 307.50 119.83 C 299.90 122.30 291.43 122.36 284.12 118.90 C 273.60 114.42 267.16 103.90 256.54 99.61 C 248.13 96.01 238.78 96.58 229.90 97.45 C 220.23 98.35 211.98 92.52 204.09 87.84 C 197.13 83.67 188.70 84.43 181.00 85.43 C 168.74 86.74 159.32 74.13 146.96 77.03 C 139.17 78.52 134.88 86.58 127.08 87.97 M 340.69 98.71 C 339.39 101.90 340.02 106.04 342.78 108.30 C 345.04 110.34 348.81 109.96 350.87 107.83 C 352.91 105.67 351.23 101.00 348.02 101.48 C 347.20 102.55 346.58 103.74 345.78 104.80 C 342.78 104.65 344.46 100.10 346.47 99.43 C 349.01 97.80 351.57 99.73 353.48 101.37 C 355.93 101.85 358.42 102.78 359.90 104.93 C 362.25 107.58 361.72 111.33 362.43 114.56 C 366.47 114.94 370.59 115.07 374.43 116.57 C 373.39 111.15 372.27 105.48 368.85 100.99 C 364.95 95.84 358.78 91.83 352.10 92.35 C 347.69 92.75 343.05 94.80 340.69 98.71 M 178.76 105.15 C 182.17 109.54 184.73 114.59 185.48 120.16 C 193.52 115.88 203.78 117.39 210.27 123.78 C 214.49 123.59 218.46 121.97 221.81 119.43 C 212.28 106.05 194.21 101.92 178.76 105.15 M 356.43 118.63 C 348.49 121.11 343.37 128.16 336.47 132.38 C 330.55 136.51 323.08 138.13 316.02 136.48 C 317.50 139.04 319.09 141.71 321.70 143.28 C 326.53 146.59 332.52 146.84 338.06 148.01 C 342.98 148.97 345.88 153.46 350.02 155.85 C 355.15 159.16 362.08 159.38 367.44 156.49 C 373.10 153.35 375.16 145.81 373.18 139.89 C 370.64 133.29 361.55 130.73 355.86 134.85 C 352.21 137.26 352.83 143.87 356.94 145.45 C 359.66 146.15 361.20 143.49 362.86 141.91 C 365.64 144.90 360.92 148.08 358.01 148.22 C 350.91 148.06 348.49 137.73 353.46 133.41 C 358.98 128.66 368.36 129.34 373.08 134.95 C 379.06 141.50 377.10 152.93 370.02 157.91 C 367.03 160.28 363.05 160.36 359.64 161.71 C 355.79 166.04 351.66 170.25 346.41 172.91 C 348.07 174.39 350.56 175.58 350.89 178.02 C 348.99 180.38 345.35 179.62 342.85 181.04 C 336.55 183.54 333.52 189.96 329.95 195.23 C 335.36 195.79 341.11 195.76 346.07 193.22 C 351.82 190.53 354.82 184.35 360.40 181.42 C 368.21 176.91 378.02 177.60 385.51 172.42 C 390.35 168.99 390.47 162.37 394.06 157.98 C 398.72 151.66 406.64 148.96 414.20 148.38 C 413.28 146.55 412.35 144.57 410.50 143.50 C 405.16 140.02 398.08 142.81 392.76 139.25 C 385.74 134.50 383.11 125.54 376.01 120.85 C 370.47 116.54 362.86 116.94 356.43 118.63 M 80.24 130.83 C 80.09 133.22 80.78 135.56 80.79 137.95 C 79.59 140.33 76.64 141.41 75.82 144.06 C 74.50 148.27 78.84 152.53 76.52 156.59 C 74.15 159.80 70.60 161.87 67.76 164.63 C 70.69 164.44 73.70 163.82 76.60 164.58 C 80.65 165.88 83.84 169.08 88.03 170.06 C 93.57 171.54 100.42 166.95 99.84 160.91 C 99.76 155.54 92.20 152.41 88.48 156.43 C 85.96 158.44 87.46 163.37 90.91 162.93 C 92.39 162.09 93.16 160.15 94.95 159.88 C 96.63 162.00 93.96 164.61 92.02 165.37 C 86.71 167.07 82.26 159.70 85.74 155.56 C 89.52 150.26 98.07 151.35 101.40 156.61 C 102.56 148.17 107.53 140.71 114.02 135.37 C 103.91 135.44 94.36 130.95 87.09 124.09 C 84.38 125.74 81.07 127.50 80.24 130.83 M 430.44 131.02 C 430.34 133.38 431.00 135.68 431.10 138.04 C 429.83 140.04 427.55 141.19 426.40 143.27 C 424.14 147.67 429.32 152.38 426.70 156.71 C 424.35 159.88 420.75 161.85 418.05 164.71 C 420.98 164.42 424.01 163.78 426.92 164.60 C 431.48 166.12 435.10 170.02 440.07 170.33 C 445.46 170.63 451.25 165.68 450.01 160.01 C 449.08 155.09 442.16 152.66 438.66 156.48 C 435.87 158.62 438.22 164.06 441.76 162.71 C 442.74 161.71 443.54 160.56 444.43 159.49 C 447.32 161.33 444.37 164.74 442.03 165.43 C 437.49 166.71 433.27 161.08 435.25 156.98 C 436.64 153.56 440.54 151.63 444.13 152.12 C 447.26 152.13 449.63 154.36 451.63 156.50 C 452.88 148.12 457.79 140.72 464.25 135.40 C 454.28 135.33 444.62 131.17 437.59 124.14 C 434.60 125.56 431.23 127.54 430.44 131.02 M 118.29 135.26 C 113.41 139.03 108.87 143.51 106.31 149.21 C 103.68 154.61 102.76 161.45 106.23 166.70 C 109.14 171.67 116.27 172.73 121.00 169.85 C 125.24 167.52 126.64 161.28 123.50 157.52 C 121.36 154.92 116.87 155.20 115.05 158.02 C 113.50 159.63 115.63 161.24 116.51 162.51 C 117.95 163.23 116.69 165.33 115.38 164.73 C 112.69 163.27 110.87 159.62 112.83 156.88 C 115.49 153.15 117.16 148.74 120.41 145.45 C 123.53 142.01 127.51 139.56 131.25 136.87 C 127.04 135.61 122.66 135.24 118.29 135.26 M 218.63 141.43 C 218.10 146.02 216.70 150.83 212.97 153.86 C 210.36 155.61 209.59 159.89 206.02 160.02 C 204.04 158.14 207.92 156.61 208.63 154.92 C 207.63 153.87 206.74 152.11 205.00 152.40 C 200.43 152.19 197.84 158.72 201.46 161.60 C 207.28 166.27 216.69 165.17 221.61 159.64 C 225.25 156.22 226.63 151.30 227.54 146.56 C 225.05 144.10 221.99 142.37 218.63 141.43 M 242.92 172.14 C 246.14 175.72 251.24 178.07 255.97 175.96 C 262.05 173.95 262.90 163.84 256.62 161.52 C 254.49 160.15 252.73 161.96 251.62 163.62 C 252.41 165.20 253.10 166.83 253.58 168.53 C 252.19 168.02 250.37 167.80 249.74 166.23 C 247.84 162.44 251.82 157.41 255.97 158.54 C 259.62 159.10 261.51 162.42 263.72 164.94 C 273.00 165.26 280.58 172.25 289.97 171.81 C 296.40 171.89 303.86 171.41 309.04 175.91 C 311.70 178.44 314.18 181.40 315.33 184.95 C 315.57 187.39 312.57 187.75 310.87 188.26 C 303.43 189.73 297.42 195.01 293.23 201.11 C 288.39 208.06 279.61 212.96 271.03 211.14 C 260.48 208.47 252.23 199.59 241.06 198.92 C 238.48 198.66 234.41 200.77 233.63 197.09 C 234.56 192.01 239.06 188.13 243.98 187.06 C 248.10 185.96 252.67 187.34 256.56 185.29 C 260.21 183.42 263.63 180.62 267.89 180.34 C 272.79 179.83 278.18 182.97 279.26 187.96 C 280.02 192.97 274.72 197.55 269.86 196.62 C 267.20 196.24 264.53 193.81 265.13 190.92 C 265.37 189.11 267.34 186.85 269.31 187.75 C 270.16 189.53 267.81 190.67 267.23 192.14 C 268.43 192.98 269.66 193.78 270.91 194.54 C 273.46 193.67 276.69 192.15 276.67 189.00 C 276.50 185.22 272.39 183.09 269.02 182.86 C 262.95 182.81 258.99 188.63 253.04 189.02 C 249.34 189.54 245.33 188.73 241.90 190.53 C 239.32 191.75 237.61 194.12 236.06 196.42 C 247.65 194.69 257.25 202.37 267.12 207.00 C 272.41 209.77 279.03 209.35 284.05 206.15 C 290.09 202.85 292.74 196.03 298.01 191.85 C 302.15 188.15 307.39 185.97 312.84 185.13 C 310.62 181.51 308.17 177.58 304.10 175.84 C 297.01 173.24 289.23 175.70 282.08 173.38 C 275.95 171.47 270.27 168.10 263.78 167.43 C 263.41 169.87 263.22 172.53 261.71 174.59 C 258.31 179.40 251.09 180.78 246.05 177.85 C 242.33 176.03 239.95 172.54 237.20 169.60 C 234.38 170.81 231.50 171.99 229.02 173.84 C 223.13 178.00 219.72 184.81 213.60 188.70 C 207.49 192.78 199.18 191.64 193.47 196.49 C 190.06 199.33 189.94 204.04 190.03 208.12 C 193.03 206.19 196.34 204.37 200.06 204.68 C 208.43 204.64 213.71 213.19 222.00 213.47 C 227.75 213.47 233.23 211.15 239.00 211.33 C 244.27 211.11 249.07 213.78 253.00 217.06 C 258.36 221.57 264.69 225.83 272.00 225.58 C 283.19 225.12 294.03 219.75 301.20 211.14 C 307.48 203.50 318.62 203.45 325.31 196.40 C 330.01 191.87 332.14 185.23 337.42 181.25 C 340.22 178.94 343.71 177.73 347.21 176.99 C 344.05 174.28 340.50 171.95 336.55 170.58 C 329.57 168.10 321.69 170.65 314.89 167.45 C 309.75 164.65 305.83 159.82 300.10 158.07 C 293.94 155.73 287.35 157.15 281.00 157.31 C 269.69 157.69 261.49 146.40 249.93 148.29 C 238.97 149.15 234.82 165.34 242.92 172.14 M 150.11 156.19 C 144.32 160.71 140.26 166.93 135.09 172.08 C 131.09 176.25 124.93 176.95 120.59 180.63 C 118.60 182.23 117.24 184.42 115.84 186.51 C 120.86 185.64 126.10 184.77 131.12 186.20 C 140.07 188.23 147.35 195.72 156.95 195.03 C 165.37 194.62 172.19 189.28 179.19 185.24 C 183.84 182.29 189.82 183.33 194.49 180.44 C 196.87 179.05 198.46 176.73 200.07 174.57 C 195.15 174.61 189.95 174.89 185.44 172.55 C 179.01 169.25 173.57 163.66 166.20 162.46 C 160.53 161.54 153.54 164.18 151.62 169.98 C 150.21 176.57 157.91 182.47 164.00 180.02 C 167.19 178.43 165.07 173.49 161.91 173.60 C 160.35 173.43 155.86 173.46 158.26 170.91 C 161.86 170.14 166.44 171.34 167.73 175.17 C 169.20 177.93 167.58 181.60 164.65 182.54 C 157.67 185.14 149.16 179.56 148.80 172.10 C 148.65 165.95 154.30 161.35 159.89 160.15 C 165.03 158.78 170.32 160.52 174.93 162.79 C 175.33 161.06 175.16 158.91 176.67 157.65 C 178.29 155.99 181.12 156.23 182.67 157.88 C 182.14 160.10 179.47 158.94 177.94 159.86 C 177.28 161.83 177.49 164.58 179.88 165.19 C 184.58 165.79 189.37 160.39 187.18 155.85 C 184.61 151.21 178.94 149.57 174.01 149.01 C 165.51 148.12 156.69 150.71 150.11 156.19 M 319.90 166.24 C 323.24 166.68 326.61 166.61 329.97 166.71 C 334.96 166.91 339.70 168.75 343.97 171.25 C 348.82 168.75 353.17 165.34 356.62 161.11 C 351.54 160.15 347.03 157.52 343.25 154.06 C 337.93 161.60 328.87 165.45 319.90 166.24 M 177.66 194.13 C 178.22 197.07 182.31 195.90 183.46 198.07 C 183.58 200.54 180.40 199.10 179.09 198.90 C 175.48 198.06 174.94 194.03 174.67 190.96 C 171.11 193.43 167.16 195.26 163.11 196.77 C 165.95 199.52 168.85 202.62 172.82 203.63 C 177.88 205.24 184.02 203.66 187.33 199.42 C 190.37 195.56 188.29 188.36 183.07 187.79 C 179.61 187.28 176.59 190.77 177.66 194.13 M 140.07 200.86 C 142.18 204.51 146.99 205.28 149.33 208.69 C 150.44 211.95 149.20 216.30 152.41 218.60 C 157.25 223.03 164.74 219.34 169.84 223.21 C 173.03 225.62 174.44 230.12 178.53 231.38 C 182.25 232.37 186.29 231.89 189.77 230.27 C 187.47 229.38 184.69 228.94 183.34 226.62 C 179.92 221.86 182.45 215.63 180.30 210.49 C 178.43 206.73 172.78 206.16 169.65 208.58 C 166.74 210.79 169.23 217.04 172.99 215.29 C 173.53 213.99 173.87 212.61 174.40 211.31 C 177.69 210.99 176.51 216.24 174.44 217.35 C 171.05 219.97 166.60 216.72 165.97 213.05 C 164.84 209.86 167.22 207.06 169.55 205.24 C 165.89 203.40 162.96 200.49 160.40 197.36 C 153.44 198.55 146.59 196.35 140.59 192.95 C 139.83 195.47 138.68 198.33 140.07 200.86 M 309.94 207.62 C 312.90 209.37 315.36 211.86 316.60 215.12 C 319.34 214.02 322.84 213.67 325.10 215.97 C 327.95 218.18 327.50 223.40 323.97 224.67 C 320.81 225.91 318.36 223.10 315.95 221.63 C 315.88 226.36 320.88 228.94 325.00 227.98 C 330.64 227.16 337.64 224.63 341.97 229.85 C 342.60 227.41 344.05 224.72 342.58 222.31 C 341.06 219.73 337.55 219.47 335.71 217.22 C 334.80 214.92 335.67 212.37 335.30 209.97 C 333.40 207.70 329.89 208.04 327.93 205.89 C 326.94 203.24 327.97 200.32 328.02 197.58 C 323.10 202.69 316.37 205.09 309.94 207.62 M 300.51 215.39 C 302.80 215.23 305.72 214.52 307.51 216.48 C 309.65 218.29 309.29 221.94 306.98 223.47 C 304.04 223.46 305.74 220.99 306.56 219.56 C 305.65 218.40 304.58 217.23 302.93 217.60 C 299.72 218.79 299.58 223.67 302.48 225.28 C 307.75 227.80 315.38 223.13 314.07 216.98 C 313.75 213.04 310.29 210.65 306.88 209.41 C 304.70 211.35 302.64 213.40 300.51 215.39 M 237.08 213.96 C 231.72 214.57 226.47 215.93 221.08 216.28 C 219.12 219.54 217.70 223.24 214.91 225.90 C 210.41 230.07 203.10 229.17 199.03 233.94 C 196.87 236.44 197.24 239.89 197.47 242.94 C 200.73 241.27 204.24 239.50 208.04 240.24 C 215.97 240.99 220.97 249.03 229.03 249.24 C 234.18 249.55 240.20 246.61 241.07 241.09 C 242.19 234.84 234.81 229.59 229.17 232.24 C 226.71 233.08 224.22 236.30 226.44 238.66 C 228.38 241.30 231.28 238.31 233.34 237.46 C 234.86 240.57 230.56 242.58 228.03 242.46 C 223.37 241.90 221.53 235.76 224.53 232.42 C 229.41 226.67 239.65 228.62 242.84 235.29 C 242.44 228.66 244.55 222.10 248.55 216.84 C 245.07 214.89 241.12 213.44 237.08 213.96 M 316.26 219.88 C 316.85 220.45 317.44 221.03 318.04 221.60 L 318.59 220.10 C 319.42 220.69 321.08 221.88 321.91 222.47 C 325.04 222.54 325.08 218.50 322.65 217.39 C 320.21 215.51 317.57 217.86 316.26 219.88 M 117.20 221.21 C 110.96 224.17 108.61 231.81 102.09 234.38 C 95.47 237.21 88.24 234.10 81.42 235.56 C 78.48 236.25 76.25 238.43 74.06 240.37 C 78.00 241.66 82.64 242.09 85.55 245.40 C 89.19 249.57 90.58 255.58 95.41 258.72 C 101.54 262.70 109.69 259.08 115.82 263.20 C 122.20 267.38 128.66 273.48 136.96 272.05 C 149.96 270.68 156.71 257.80 167.81 252.60 C 172.77 250.10 178.45 250.40 183.77 249.34 C 180.99 245.33 176.88 242.32 172.25 240.80 C 167.68 239.15 162.79 239.88 158.07 239.47 C 153.84 238.95 151.13 235.36 148.01 232.88 C 145.77 230.93 142.76 230.41 139.94 229.90 C 138.58 233.12 136.59 236.60 132.94 237.54 C 129.95 238.43 127.04 237.04 124.56 235.50 C 122.65 237.72 120.46 239.94 119.84 242.92 C 118.27 251.72 131.18 259.47 137.57 252.54 C 140.51 249.98 138.17 243.90 134.03 245.33 C 130.92 246.11 134.19 250.67 131.08 251.36 C 127.89 248.80 129.71 243.41 133.42 242.50 C 137.11 241.25 141.06 244.19 141.67 247.85 C 142.61 252.08 139.30 255.92 135.57 257.37 C 127.06 260.52 116.67 253.11 116.79 244.05 C 116.97 239.54 120.02 236.01 123.03 232.97 C 123.21 230.88 123.03 228.36 124.94 226.97 C 126.31 225.81 129.15 224.92 129.98 227.13 C 130.01 228.86 128.03 228.59 126.91 229.08 C 126.55 229.60 125.81 230.63 125.45 231.14 C 126.52 232.73 127.73 234.65 129.87 234.78 C 133.38 235.54 136.33 232.31 136.82 229.09 C 137.79 223.96 133.09 219.05 128.08 218.83 C 124.35 218.79 120.58 219.61 117.20 221.21 M 248.33 245.62 C 251.15 251.08 258.16 254.14 263.98 251.73 C 267.93 250.44 270.78 246.18 269.61 242.01 C 268.75 236.32 260.11 234.51 256.83 239.00 C 255.73 241.05 256.72 242.92 258.80 243.64 C 259.68 242.74 261.73 239.33 262.65 242.07 C 262.82 246.41 256.01 247.24 254.44 243.49 C 252.65 240.49 254.53 237.18 256.74 235.05 C 255.94 231.35 257.58 227.90 260.03 225.22 C 256.67 223.32 253.60 220.98 250.63 218.53 C 244.58 226.06 243.89 237.16 248.33 245.62 M 286.02 236.97 C 284.25 241.87 284.59 247.41 286.97 252.04 C 289.49 256.46 294.16 258.89 297.99 262.00 C 302.38 265.31 306.26 269.52 308.23 274.74 C 311.13 282.17 313.72 290.53 320.56 295.35 C 329.91 301.39 342.09 299.49 351.54 305.35 C 360.45 310.16 365.50 319.71 374.34 324.57 C 380.12 327.71 387.01 326.78 393.01 324.78 C 390.29 318.88 388.68 312.19 390.44 305.78 C 377.75 304.57 373.60 289.57 362.00 286.16 C 356.59 284.59 350.43 285.70 345.53 282.48 C 341.60 279.77 338.18 276.18 336.02 271.89 C 331.84 273.63 326.64 274.14 322.89 271.14 C 317.99 267.53 316.69 258.72 322.02 254.96 C 324.27 253.94 327.32 253.44 329.47 254.96 C 328.66 258.24 324.10 255.92 322.50 258.40 C 319.79 262.85 322.75 269.58 328.02 270.30 C 336.21 271.45 343.83 263.22 342.54 255.15 C 342.03 248.53 336.41 243.36 330.09 242.15 C 318.77 239.86 307.36 245.16 296.04 242.55 C 292.11 241.93 289.11 239.22 286.02 236.97 M 198.58 259.76 C 201.86 262.28 204.34 265.72 205.15 269.84 C 208.11 269.82 211.14 269.84 213.95 270.88 C 218.43 272.28 222.15 275.70 226.94 276.16 C 232.66 275.69 238.20 273.11 244.02 274.02 C 247.55 274.40 250.87 276.17 253.18 278.87 C 254.15 279.97 255.33 281.59 254.10 283.00 C 251.30 283.86 248.25 283.33 245.50 284.41 C 239.06 286.66 237.41 295.05 230.47 296.56 C 231.48 301.09 228.74 305.91 224.08 306.81 C 220.29 308.42 215.68 305.06 216.10 300.96 C 216.07 299.27 217.98 296.10 219.69 298.26 C 219.42 299.59 218.93 300.85 218.65 302.18 C 220.21 306.04 225.69 304.50 227.34 301.51 C 228.96 298.04 227.15 293.71 223.85 291.98 C 217.83 288.72 209.63 291.54 206.56 297.57 C 202.81 304.16 205.57 313.10 211.71 317.22 C 218.42 321.88 228.14 321.48 234.48 316.35 C 239.91 312.07 242.11 304.83 247.96 300.99 C 252.82 297.59 259.35 297.90 263.98 294.10 C 269.15 290.19 271.67 283.70 277.16 280.15 C 281.02 277.65 285.79 277.58 290.23 277.66 C 288.75 273.62 286.09 269.58 281.62 268.57 C 275.77 266.55 269.91 269.80 264.01 269.28 C 257.35 268.47 253.46 261.71 246.92 260.58 C 239.98 259.45 233.82 264.52 226.87 263.69 C 220.27 263.28 215.18 258.42 208.97 256.73 C 205.19 255.66 201.56 257.64 198.58 259.76 M 173.14 265.17 C 166.74 270.56 163.52 279.08 156.17 283.40 C 149.27 286.90 140.41 289.53 133.45 284.73 C 133.29 288.22 134.16 291.80 136.51 294.47 C 139.92 298.80 146.01 299.33 149.73 303.29 C 152.98 306.28 155.06 310.83 159.41 312.41 C 165.11 313.78 170.33 309.79 176.03 310.31 C 183.76 310.77 189.69 316.49 196.85 318.72 C 200.41 319.99 204.05 318.49 207.34 317.15 C 204.79 314.09 202.99 310.48 202.27 306.56 C 200.11 306.46 197.88 306.54 195.81 305.83 C 192.20 304.68 189.53 301.69 185.95 300.47 C 180.64 299.18 175.38 301.60 170.07 301.44 C 166.26 301.41 162.31 300.04 159.78 297.11 C 158.90 296.13 157.83 294.35 159.38 293.40 C 162.57 292.34 166.30 292.37 168.84 289.83 C 172.52 286.32 175.92 282.13 181.12 280.89 C 180.28 277.94 179.63 274.39 181.90 271.90 C 184.34 268.41 190.79 268.55 192.33 272.79 C 192.71 274.73 193.33 277.63 190.99 278.59 C 189.19 276.83 190.96 272.64 187.94 272.23 C 184.15 271.11 181.59 276.04 183.43 279.04 C 186.25 286.02 197.26 286.05 200.98 279.86 C 204.28 274.33 203.02 266.17 197.53 262.47 C 190.15 257.39 179.56 259.39 173.14 265.17 M 366.91 270.66 C 358.59 273.84 349.58 274.81 340.73 274.18 C 343.47 276.97 346.12 280.28 350.05 281.36 C 355.16 282.71 360.73 281.99 365.58 284.40 C 372.09 287.55 376.43 293.55 381.50 298.47 C 384.20 301.15 387.86 302.63 391.64 302.88 C 396.50 295.88 407.13 292.83 414.49 297.65 C 416.97 299.13 417.90 301.97 418.66 304.59 C 422.77 305.00 426.35 302.83 430.05 301.44 C 432.97 300.26 436.16 300.25 439.26 300.15 C 436.17 297.01 432.24 294.79 427.92 293.92 C 419.55 291.89 412.48 286.24 407.29 279.53 C 403.78 275.09 399.76 270.60 394.20 268.80 C 385.28 265.93 375.52 267.35 366.91 270.66 M 202.36 282.41 C 197.64 288.21 188.00 288.44 182.75 283.20 C 177.92 284.19 174.48 287.77 171.20 291.16 C 168.67 293.89 165.02 294.89 161.54 295.75 C 167.14 300.32 174.59 298.51 181.07 297.48 C 185.93 296.60 190.19 299.43 193.98 302.05 C 196.34 303.82 199.36 303.77 202.16 303.87 C 202.55 299.61 204.07 295.31 207.31 292.38 C 213.33 286.39 224.98 286.40 229.71 294.00 C 235.53 292.54 237.21 285.87 242.17 283.12 C 244.95 281.32 248.34 281.07 251.56 280.95 C 249.66 279.17 247.63 277.31 244.98 276.82 C 239.21 275.54 233.62 278.10 227.95 278.67 C 222.31 279.20 217.98 274.97 212.95 273.27 C 210.62 272.37 208.09 272.58 205.65 272.58 C 205.20 276.01 204.75 279.70 202.36 282.41 M 260.62 299.09 C 263.17 301.31 265.65 304.41 265.09 308.03 C 264.81 310.51 262.36 311.87 261.59 314.12 C 260.94 315.72 260.40 318.17 258.14 317.87 C 256.39 316.32 259.89 314.30 258.54 312.42 C 256.47 308.66 250.46 311.20 249.94 314.90 C 249.25 320.15 253.80 325.21 259.07 325.37 C 267.42 326.00 275.29 319.27 276.11 310.97 C 277.37 304.22 273.15 298.07 267.95 294.25 C 265.70 296.14 263.27 297.81 260.62 299.09 M 282.37 300.42 C 279.56 303.94 278.77 310.31 283.17 312.92 C 286.11 315.14 291.57 313.21 290.83 309.07 C 289.79 305.57 285.67 308.00 283.47 308.74 C 283.44 308.25 283.38 307.29 283.35 306.81 C 285.55 303.71 290.98 303.64 292.90 307.14 C 295.19 311.18 291.34 316.39 286.98 316.51 C 283.59 316.80 280.75 314.60 278.61 312.23 C 277.61 316.65 275.50 320.97 271.85 323.79 C 267.84 327.16 262.49 328.23 257.37 327.95 C 257.18 332.53 261.25 336.93 265.96 336.29 C 270.97 335.60 276.15 334.32 281.15 335.84 C 284.24 336.57 286.28 339.15 286.91 342.18 C 289.21 340.46 291.72 338.68 292.88 335.93 C 294.07 333.41 294.32 330.36 296.32 328.27 C 298.70 325.84 302.40 326.22 305.42 325.21 C 309.78 324.15 312.08 319.96 315.45 317.39 C 318.37 314.93 322.15 313.96 325.79 313.12 C 323.90 311.40 322.04 309.44 319.50 308.72 C 315.13 307.54 310.23 308.28 306.23 305.82 C 302.59 303.86 300.35 300.20 297.00 297.88 C 292.29 295.73 285.65 295.86 282.37 300.42 Z" />
<path fill="#231f20" opacity="1.00" d=" M 116.46 0.00 L 119.18 0.00 C 120.67 3.52 122.52 7.24 126.22 8.88 C 130.25 11.31 136.57 10.56 138.59 5.89 C 139.64 3.47 138.05 1.22 136.04 0.00 L 140.80 0.00 C 143.53 5.06 140.26 11.16 134.94 12.58 C 126.52 15.13 117.90 8.26 116.46 0.00 Z" />
<path fill="#231f20" opacity="1.00" d=" M 129.80 0.00 L 134.39 0.00 C 133.91 0.39 132.94 1.16 132.46 1.54 C 132.24 3.24 133.41 5.88 131.02 6.42 C 129.16 4.75 129.43 2.22 129.80 0.00 Z" />
<path fill="#231f20" opacity="1.00" d=" M 255.95 0.00 L 261.04 0.00 C 259.85 1.88 257.13 1.89 255.95 0.00 Z" />
<path fill="#231f20" opacity="1.00" d=" M 406.74 0.00 L 435.60 0.00 C 439.68 5.03 441.49 12.59 448.16 14.98 C 454.34 16.67 461.38 14.82 467.00 18.62 L 467.00 53.96 C 462.91 47.05 458.90 39.39 451.53 35.45 C 443.83 30.79 433.57 31.68 426.95 25.03 C 419.27 17.46 415.07 7.01 406.74 0.00 Z" />
<path fill="#231f20" opacity="1.00" d=" M 454.55 108.13 C 457.16 103.90 462.66 103.00 467.00 101.35 L 467.00 103.97 C 463.78 105.19 460.56 106.42 457.55 108.10 C 460.74 108.57 463.96 109.04 467.00 110.18 L 467.00 113.06 C 463.82 111.68 460.38 111.22 456.98 110.75 C 455.81 110.72 453.25 109.62 454.55 108.13 Z" />
<path fill="#231f20" opacity="1.00" d=" M 3.39 133.26 C 8.98 128.64 18.28 129.44 22.95 135.05 C 29.12 142.00 26.56 154.20 18.60 158.67 C 15.69 160.48 12.00 160.35 9.08 162.05 C 6.17 165.07 3.30 168.15 0.00 170.78 L 0.00 167.57 C 2.12 165.44 4.33 163.38 6.38 161.17 C 4.24 160.52 2.09 159.89 0.00 159.08 L 0.00 157.04 L 0.01 156.23 C 4.69 158.49 10.22 159.35 15.17 157.42 C 22.57 154.95 25.84 145.18 22.25 138.49 C 19.04 132.93 11.02 131.10 5.72 134.74 C 1.91 137.13 2.54 144.34 7.06 145.46 C 9.90 146.26 11.26 141.19 13.90 143.04 C 13.18 147.32 7.77 149.34 4.21 147.14 C -0.20 144.09 -0.72 136.78 3.39 133.26 Z" />
<path fill="#231f20" opacity="1.00" d=" M 462.24 159.03 C 463.18 155.83 465.70 153.38 467.00 150.32 L 467.00 155.83 C 466.25 157.00 465.39 158.10 464.76 159.34 C 465.33 160.69 466.25 161.85 467.00 163.11 L 467.00 165.63 C 464.96 163.88 461.73 162.23 462.24 159.03 Z" />
<path fill="#231f20" opacity="1.00" d=" M 150.52 342.81 C 159.39 340.83 168.91 342.90 176.30 348.13 C 186.61 345.44 197.65 346.06 207.55 350.00 L 198.28 350.00 C 192.39 349.01 186.36 348.81 180.48 350.00 L 174.17 350.00 C 168.09 345.72 160.34 343.70 152.98 345.04 C 146.93 346.01 141.39 349.58 135.09 349.08 C 128.07 348.56 120.85 347.85 114.01 350.00 L 107.36 350.00 C 111.06 348.25 114.89 346.60 119.01 346.20 C 125.31 345.17 131.64 346.75 137.96 346.36 C 142.36 346.05 146.28 343.80 150.52 342.81 Z" />
<path fill="#231f20" opacity="1.00" d=" M 0.00 344.03 C 3.10 346.56 7.16 347.39 10.21 350.00 L 1.80 350.00 C 1.93 348.71 1.18 347.58 0.00 347.11 L 0.00 344.03 Z" />
<path fill="#231f20" opacity="1.00" d=" M 347.28 344.11 C 349.62 343.04 351.64 345.16 353.54 346.22 C 356.08 346.99 358.37 348.32 360.42 350.00 L 352.51 350.00 C 351.25 348.41 349.85 346.94 348.03 346.02 C 347.29 347.37 346.51 348.69 345.69 349.99 C 342.74 348.49 344.74 344.71 347.28 344.11 Z" />
<path fill="#231f20" opacity="1.00" d=" M 457.61 350.00 C 460.66 348.58 463.80 347.39 467.00 346.32 L 467.00 350.00 L 457.61 350.00 Z" />
</g>
<g id="#fffff5ff">
<path fill="#fffff5" opacity="1.00" d=" M 19.50 0.00 L 56.46 0.00 C 64.47 6.76 68.73 16.64 75.84 24.18 C 79.53 28.24 84.82 30.22 90.06 31.36 C 96.29 32.83 102.59 35.20 107.12 39.89 C 113.33 45.98 115.81 54.86 122.22 60.78 C 125.73 64.06 130.41 65.53 134.98 66.64 C 130.52 69.85 125.64 72.82 120.09 73.56 C 110.93 75.08 101.44 70.76 92.52 74.32 C 85.01 77.52 79.04 83.55 71.24 86.19 C 63.82 88.88 54.61 87.96 48.87 82.18 C 43.70 77.39 41.40 69.84 42.79 62.96 C 44.48 54.80 55.24 50.78 62.22 54.78 C 66.69 57.09 65.93 64.63 61.49 66.47 C 59.04 66.74 56.62 65.89 54.19 65.69 C 55.16 69.75 60.40 70.42 63.59 68.70 C 66.04 67.52 66.93 64.78 68.05 62.52 C 74.84 63.26 80.26 57.72 87.01 58.22 C 89.23 58.05 91.86 58.87 93.64 57.09 C 92.01 52.49 87.37 49.73 83.21 47.66 C 78.19 45.87 72.76 44.88 68.45 41.54 C 60.34 36.46 56.59 26.55 47.84 22.33 C 38.54 17.88 27.50 18.87 17.99 22.14 C 12.20 24.35 6.17 25.84 0.00 26.45 L 0.00 5.54 C 6.82 5.00 13.23 2.59 19.50 0.00 Z" />
<path fill="#fffff5" opacity="1.00" d=" M 85.37 0.00 L 116.46 0.00 C 117.90 8.26 126.52 15.13 134.94 12.58 C 140.26 11.16 143.53 5.06 140.80 0.00 L 179.94 0.00 C 181.34 1.36 182.61 2.84 183.89 4.31 C 178.30 5.36 172.33 5.17 167.18 7.90 C 159.57 11.69 154.34 18.73 147.23 23.26 C 142.06 26.59 135.47 28.29 129.46 26.41 C 123.80 24.71 119.69 20.18 114.54 17.53 C 108.55 14.46 101.09 17.46 95.36 13.69 C 90.55 10.37 88.92 4.39 85.37 0.00 Z" />
<path fill="#fffff5" opacity="1.00" d=" M 119.18 0.00 L 129.80 0.00 C 129.43 2.22 129.16 4.75 131.02 6.42 C 133.41 5.88 132.24 3.24 132.46 1.54 C 132.94 1.16 133.91 0.39 134.39 0.00 L 136.04 0.00 C 138.05 1.22 139.64 3.47 138.59 5.89 C 136.57 10.56 130.25 11.31 126.22 8.88 C 122.52 7.24 120.67 3.52 119.18 0.00 Z" />
<path fill="#fffff5" opacity="1.00" d=" M 218.44 0.00 L 239.79 0.00 C 237.20 2.01 234.40 4.06 230.97 4.18 C 226.33 4.83 222.20 2.35 218.44 0.00 Z" />
<path fill="#fffff5" opacity="1.00" d=" M 247.75 0.00 L 255.95 0.00 C 257.13 1.89 259.85 1.88 261.04 0.00 L 270.29 0.00 C 268.75 3.11 266.66 6.35 262.98 7.06 C 256.89 9.04 250.73 5.22 247.75 0.00 Z" />
<path fill="#fffff5" opacity="1.00" d=" M 284.80 0.00 L 336.87 0.00 C 340.12 2.75 342.50 6.67 342.61 11.00 C 343.34 18.80 335.90 26.39 328.04 25.30 C 322.50 24.59 319.51 17.15 322.94 12.79 C 325.14 11.71 328.41 12.47 329.67 9.92 C 326.54 8.34 321.94 8.77 319.98 11.96 C 316.57 17.60 319.71 25.99 326.11 27.80 C 329.37 28.99 332.79 27.89 335.99 27.03 C 338.50 31.33 341.86 35.26 346.16 37.85 C 351.87 41.09 358.96 39.24 364.76 42.24 C 371.16 45.55 375.21 51.76 380.50 56.43 C 383.24 58.91 386.82 60.05 390.35 60.84 C 388.78 67.29 390.30 73.91 393.00 79.82 C 387.00 81.72 380.15 82.73 374.37 79.59 C 365.53 74.74 360.47 65.20 351.58 60.38 C 341.61 54.10 328.26 56.71 318.96 49.10 C 309.93 41.56 310.46 27.99 301.77 20.24 C 297.72 16.22 292.50 13.59 288.63 9.38 C 286.23 6.83 285.55 3.29 284.80 0.00 Z" />
<path fill="#fffff5" opacity="1.00" d=" M 369.72 0.00 L 406.74 0.00 C 415.07 7.01 419.27 17.46 426.95 25.03 C 433.57 31.68 443.83 30.79 451.53 35.45 C 458.90 39.39 462.91 47.05 467.00 53.96 L 467.00 73.96 C 458.80 74.03 450.25 71.15 442.35 74.49 C 435.17 77.68 429.37 83.41 421.89 86.03 C 414.32 88.97 404.80 88.01 398.94 82.04 C 393.91 77.24 391.65 69.78 393.03 62.99 C 394.72 54.92 405.19 50.89 412.21 54.61 C 416.74 56.75 416.32 64.02 412.21 66.32 C 409.87 66.90 407.45 65.88 405.09 65.79 C 404.27 69.06 408.63 69.57 410.95 69.55 C 414.92 69.46 417.02 65.77 418.30 62.53 C 422.38 62.73 426.22 61.31 429.86 59.63 C 434.01 57.59 438.71 58.50 443.14 58.07 C 444.75 55.18 441.23 53.23 439.51 51.43 C 433.65 45.89 424.78 46.48 418.60 41.47 C 411.04 36.69 407.37 27.78 399.67 23.20 C 393.25 19.32 385.38 18.87 378.09 19.75 C 370.46 20.57 363.61 24.46 356.05 25.63 C 350.17 26.71 344.14 26.61 338.23 25.80 C 340.90 23.22 343.72 20.50 344.78 16.82 C 346.13 13.08 345.40 9.07 344.46 5.33 C 353.26 6.26 361.76 3.43 369.72 0.00 Z" />
<path fill="#fffff5" opacity="1.00" d=" M 435.60 0.00 L 467.00 0.00 L 467.00 18.62 C 461.38 14.82 454.34 16.67 448.16 14.98 C 441.49 12.59 439.68 5.03 435.60 0.00 Z" />
<path fill="#fffff5" opacity="1.00" d=" M 198.58 14.76 C 201.56 12.65 205.17 10.66 208.94 11.72 C 215.19 13.42 220.32 18.33 226.98 18.70 C 233.88 19.47 239.99 14.47 246.89 15.57 C 253.46 16.69 257.35 23.50 264.06 24.29 C 269.93 24.78 275.77 21.56 281.60 23.56 C 286.07 24.57 288.76 28.60 290.21 32.66 C 285.77 32.57 281.00 32.66 277.14 35.16 C 271.69 38.69 269.17 45.13 264.05 49.04 C 259.43 52.89 252.88 52.58 248.00 55.96 C 241.71 60.09 239.57 68.14 233.26 72.25 C 225.08 77.93 211.99 76.05 206.97 67.04 C 203.29 61.06 204.48 52.42 210.30 48.24 C 214.64 44.99 221.47 44.45 225.60 48.31 C 228.23 50.70 229.03 55.68 226.00 58.05 C 224.10 59.55 220.56 60.45 219.11 57.92 C 217.55 56.29 221.66 52.67 218.01 52.43 C 214.21 55.21 216.55 61.61 220.97 62.10 C 226.71 62.84 231.97 57.33 230.47 51.56 C 237.43 50.05 239.06 41.62 245.54 39.40 C 248.32 38.34 251.39 38.84 254.21 37.98 C 255.53 34.62 251.52 32.22 249.14 30.61 C 242.06 26.72 234.24 30.38 226.92 31.14 C 219.54 29.94 213.40 23.20 205.40 25.13 C 204.28 21.01 202.03 17.32 198.58 14.76 Z" />
<path fill="#fffff5" opacity="1.00" d=" M 174.26 19.25 C 180.66 14.21 190.57 12.67 197.52 17.46 C 203.23 21.30 204.41 30.03 200.51 35.53 C 196.25 41.42 185.03 40.55 183.09 33.05 C 181.63 29.37 185.92 25.43 189.38 27.73 C 189.99 29.56 189.81 31.63 190.77 33.35 C 193.18 33.65 192.55 30.54 192.59 29.09 C 192.34 24.16 185.24 22.94 182.37 26.38 C 179.66 28.83 180.15 32.75 181.12 35.89 C 175.91 37.13 172.53 41.33 168.84 44.83 C 166.29 47.39 162.53 47.32 159.35 48.43 C 157.30 50.42 160.36 52.84 161.94 54.02 C 167.92 58.28 175.35 55.62 181.97 55.11 C 186.63 54.42 190.06 57.96 193.82 59.99 C 196.38 61.45 199.40 61.50 202.27 61.56 C 202.99 65.48 204.78 69.10 207.34 72.15 C 204.04 73.50 200.39 74.99 196.82 73.71 C 189.67 71.47 183.75 65.77 176.02 65.31 C 170.34 64.79 165.12 68.78 159.43 67.41 C 155.04 65.83 152.96 61.23 149.67 58.24 C 145.98 54.35 139.98 53.80 136.59 49.55 C 134.18 46.88 133.29 43.26 133.44 39.73 C 140.65 44.65 149.85 41.79 156.87 37.99 C 164.12 33.21 167.37 24.46 174.26 19.25 Z" />
<path fill="#fffff5" opacity="1.00" d=" M 366.93 25.65 C 375.52 22.35 385.26 20.94 394.17 23.79 C 399.76 25.59 403.79 30.10 407.32 34.57 C 412.72 41.60 420.25 47.33 429.04 49.23 C 432.99 50.09 436.41 52.37 439.27 55.15 C 435.95 55.23 432.54 55.32 429.44 56.66 C 425.98 58.08 422.54 59.96 418.66 59.59 C 417.91 56.96 416.96 54.11 414.47 52.63 C 407.11 47.84 396.50 50.88 391.64 57.88 C 387.86 57.63 384.19 56.14 381.48 53.45 C 376.42 48.54 372.09 42.54 365.58 39.40 C 360.73 36.98 355.14 37.72 350.02 36.35 C 346.10 35.27 343.46 31.97 340.75 29.18 C 349.60 29.82 358.61 28.83 366.93 25.65 Z" />
<path fill="#fffff5" opacity="1.00" d=" M 16.84 25.60 C 25.48 22.31 35.28 20.92 44.21 23.90 C 49.99 25.85 54.00 30.68 57.66 35.30 C 62.85 41.77 69.83 47.10 78.01 49.01 C 82.30 49.90 85.98 52.35 89.29 55.11 C 85.74 55.23 82.08 55.35 78.78 56.84 C 75.53 58.28 72.18 59.69 68.55 59.65 C 67.58 56.86 66.52 53.70 63.68 52.28 C 56.19 47.92 46.14 51.19 41.22 57.95 C 37.89 57.46 34.51 56.44 31.99 54.09 C 26.74 49.31 22.54 43.20 16.14 39.81 C 11.19 37.12 5.38 37.54 0.00 36.48 L 0.00 29.33 C 5.74 28.75 11.43 27.66 16.84 25.60 Z" />
<path fill="#fffff5" opacity="1.00" d=" M 202.79 36.86 C 204.89 34.26 204.99 30.82 205.77 27.71 C 211.78 26.39 216.86 30.27 222.00 32.63 C 228.87 35.73 235.87 30.75 242.91 31.53 C 246.37 31.54 249.25 33.64 251.61 35.95 C 248.34 36.06 244.90 36.32 242.08 38.17 C 237.18 40.95 235.49 47.55 229.71 49.00 C 224.85 41.20 212.78 41.42 206.87 47.82 C 203.88 50.72 202.57 54.83 202.15 58.88 C 199.38 58.77 196.39 58.83 194.05 57.09 C 190.23 54.47 185.96 51.60 181.07 52.48 C 174.61 53.51 167.14 55.34 161.55 50.75 C 165.01 49.89 168.64 48.90 171.16 46.20 C 174.45 42.81 177.90 39.19 182.75 38.20 C 188.16 43.62 198.26 43.16 202.79 36.86 Z" />
<path fill="#fffff5" opacity="1.00" d=" M 0.00 39.49 C 5.18 40.31 10.78 40.00 15.46 42.74 C 21.43 46.22 25.34 52.13 30.48 56.60 C 33.14 58.99 36.63 60.04 40.04 60.83 C 38.66 67.28 39.94 73.94 42.81 79.80 C 37.79 81.27 32.39 82.49 27.25 80.85 C 20.15 78.67 15.51 72.49 10.41 67.52 C 7.35 64.31 3.63 61.88 0.00 59.38 L 0.00 39.49 Z" />
<path fill="#fffff5" opacity="1.00" d=" M 260.58 54.07 C 263.26 52.83 265.70 51.15 267.95 49.25 C 273.17 53.08 277.39 59.27 276.10 66.03 C 275.25 74.69 266.61 81.61 257.95 80.23 C 253.15 79.54 249.37 74.79 249.92 69.96 C 250.44 66.48 255.60 63.91 258.19 66.83 C 259.67 68.48 258.02 70.40 257.49 72.06 C 258.32 73.84 260.72 72.34 260.88 70.86 C 261.47 67.43 265.30 65.59 265.20 61.96 C 265.09 58.70 262.92 56.11 260.58 54.07 Z" />
<path fill="#fffff5" opacity="1.00" d=" M 281.97 55.99 C 284.43 51.95 289.63 50.86 293.99 51.89 C 298.91 52.52 301.10 57.63 305.02 60.04 C 309.01 63.17 314.29 62.58 318.97 63.58 C 321.74 64.17 323.79 66.28 325.79 68.12 C 322.16 68.97 318.39 69.92 315.47 72.37 C 312.10 74.94 309.81 79.13 305.45 80.21 C 302.41 81.23 298.66 80.83 296.28 83.31 C 294.31 85.39 294.07 88.40 292.90 90.90 C 291.74 93.66 289.24 95.46 286.90 97.16 C 286.27 94.15 284.25 91.58 281.17 90.84 C 276.18 89.32 271.00 90.59 265.99 91.28 C 261.28 91.95 257.17 87.55 257.38 82.95 C 262.50 83.23 267.84 82.16 271.85 78.79 C 275.51 75.97 277.60 71.63 278.62 67.21 C 281.05 70.15 285.01 72.56 288.90 71.10 C 292.87 69.86 295.40 64.07 291.95 60.97 C 289.66 58.40 283.67 59.23 283.22 62.78 C 285.02 64.69 288.04 60.61 290.18 62.81 C 292.77 66.26 287.84 70.25 284.45 68.52 C 279.18 66.83 279.11 59.84 281.97 55.99 Z" />
<path fill="#fffff5" opacity="1.00" d=" M 329.40 77.41 C 330.72 75.44 333.03 74.58 335.03 73.50 C 335.68 76.01 336.16 79.03 338.78 80.25 C 343.26 82.34 348.63 81.13 353.02 83.50 C 355.30 84.58 355.17 87.43 355.69 89.52 C 348.02 89.22 338.51 92.78 337.17 101.32 C 334.35 100.21 330.98 99.65 328.24 101.25 C 324.15 103.31 324.05 110.07 328.04 112.30 C 330.30 112.78 332.33 111.33 333.98 109.98 C 333.65 106.53 330.24 109.58 328.63 109.98 C 328.13 108.18 326.90 105.99 328.53 104.38 C 331.87 100.68 339.26 103.85 338.53 108.95 C 337.72 115.47 330.32 120.21 324.04 118.24 C 318.93 116.45 315.53 111.46 310.13 110.31 C 306.89 109.35 303.58 110.35 300.45 111.18 C 300.73 108.87 300.90 106.34 302.54 104.52 C 304.83 101.55 308.88 101.02 311.62 98.63 C 313.58 96.32 313.23 92.72 315.48 90.58 C 318.65 88.29 323.29 88.99 326.08 86.04 C 327.99 83.52 327.66 80.02 329.40 77.41 Z" />
<path fill="#fffff5" opacity="1.00" d=" M 127.08 87.97 C 134.88 86.58 139.17 78.52 146.96 77.03 C 159.32 74.13 168.74 86.74 181.00 85.43 C 188.70 84.43 197.13 83.67 204.09 87.84 C 211.98 92.52 220.23 98.35 229.90 97.45 C 238.78 96.58 248.13 96.01 256.54 99.61 C 267.16 103.90 273.60 114.42 284.12 118.90 C 291.43 122.36 299.90 122.30 307.50 119.83 C 306.94 127.70 300.69 134.65 292.99 136.17 C 287.58 137.29 282.02 135.84 276.61 136.80 C 270.63 138.54 266.78 143.83 261.96 147.41 C 256.72 145.65 250.85 144.50 245.55 146.69 C 242.66 147.73 240.63 150.12 238.66 152.36 C 233.12 149.82 229.93 144.29 224.85 141.13 C 219.23 137.63 211.86 139.43 206.33 135.74 C 202.93 133.54 201.96 129.36 200.93 125.73 C 208.34 127.43 216.78 126.61 222.95 121.85 C 227.70 118.38 232.91 114.85 239.02 114.69 C 244.14 114.62 249.80 115.80 253.42 119.70 C 257.73 124.70 257.04 133.80 250.94 137.07 C 246.32 139.14 239.26 137.50 237.88 132.06 C 237.00 129.37 239.12 125.82 242.21 126.49 C 243.37 127.76 244.13 129.31 245.10 130.72 C 248.39 130.46 246.00 126.65 244.74 125.25 C 240.81 121.38 234.43 126.13 235.17 131.01 C 235.43 139.25 246.48 143.05 252.87 138.99 C 260.04 134.49 260.75 123.07 254.70 117.36 C 249.60 112.39 241.84 111.37 235.08 112.57 C 230.98 113.44 227.34 115.65 223.87 117.92 C 217.66 109.14 207.62 103.64 197.06 102.12 C 190.14 100.69 183.13 101.83 176.28 102.96 C 170.24 99.19 163.29 96.63 156.06 97.12 C 150.38 96.93 145.37 99.86 139.99 101.12 C 133.37 102.18 126.70 100.17 120.07 101.08 C 115.10 101.59 110.12 103.09 106.03 106.03 C 104.69 106.94 103.32 108.82 104.73 110.30 C 108.27 111.42 112.20 110.91 115.56 112.67 C 122.86 116.24 127.69 123.23 134.69 127.28 C 141.36 131.32 150.02 132.52 157.25 129.23 C 161.19 127.40 164.58 123.49 164.46 118.96 C 164.03 112.23 156.04 107.15 149.80 109.81 C 145.36 111.82 144.63 119.22 149.09 121.59 C 151.52 123.18 154.48 121.71 156.47 120.08 C 155.66 116.44 151.93 120.88 150.11 119.10 C 147.34 117.12 148.73 112.47 151.88 111.74 C 155.83 111.19 160.07 113.65 161.51 117.38 C 162.82 121.49 159.55 125.40 155.96 126.95 C 150.00 129.53 142.93 128.73 137.27 125.73 C 129.66 121.75 124.65 114.20 116.93 110.40 C 114.03 108.88 110.72 108.61 107.54 108.19 C 115.22 102.65 125.19 103.22 134.14 104.04 C 141.48 105.00 147.83 100.27 154.98 99.75 C 163.71 99.01 173.17 102.29 178.54 109.45 C 183.72 116.32 184.02 125.97 180.77 133.73 C 178.87 138.44 174.90 142.28 170.06 143.87 C 162.27 146.44 153.58 145.30 146.25 141.81 C 140.42 139.20 135.31 134.96 128.96 133.59 C 122.39 131.98 115.59 133.10 108.94 132.32 C 103.24 131.63 97.82 129.23 93.28 125.74 C 88.14 121.97 84.32 116.56 78.66 113.48 C 73.37 110.71 67.26 111.88 61.56 111.27 C 66.15 103.22 76.59 105.05 84.12 102.36 C 91.77 100.00 95.03 91.08 102.89 89.13 C 110.84 87.33 119.14 90.09 127.08 87.97 Z" />
<path fill="#fffff5" opacity="1.00" d=" M 0.00 82.02 C 1.40 82.91 2.93 83.63 4.17 84.75 C 4.87 86.27 5.14 87.95 5.54 89.57 C 3.69 89.65 1.85 89.71 0.00 89.78 L 0.00 82.02 Z" />
<path fill="#fffff5" opacity="1.00" d=" M 451.45 89.70 C 456.41 87.75 461.83 88.64 467.00 88.79 L 467.00 101.35 C 462.66 103.00 457.16 103.90 454.55 108.13 C 453.25 109.62 455.81 110.72 456.98 110.75 C 460.38 111.22 463.82 111.68 467.00 113.06 L 467.00 132.70 C 462.54 132.62 458.00 132.52 453.72 131.12 C 447.90 129.32 442.89 125.64 438.56 121.46 C 435.10 118.20 431.79 114.49 427.25 112.74 C 422.30 110.97 416.96 111.70 411.82 111.36 C 416.14 103.56 426.07 104.87 433.43 102.67 C 441.06 100.80 444.43 92.59 451.45 89.70 Z" />
<path fill="#fffff5" opacity="1.00" d=" M 0.00 92.36 C 5.88 91.74 11.81 93.82 15.97 98.01 C 21.22 102.72 22.97 109.81 24.18 116.47 C 20.20 115.24 16.05 114.82 11.91 114.49 C 11.66 111.32 11.96 107.76 9.82 105.12 C 8.37 102.80 5.67 101.98 3.17 101.36 C 2.10 100.54 1.03 99.72 0.00 98.84 L 0.00 92.36 Z" />
<path fill="#fffff5" opacity="1.00" d=" M 340.69 98.71 C 343.05 94.80 347.69 92.75 352.10 92.35 C 358.78 91.83 364.95 95.84 368.85 100.99 C 372.27 105.48 373.39 111.15 374.43 116.57 C 370.59 115.07 366.47 114.94 362.43 114.56 C 361.72 111.33 362.25 107.58 359.90 104.93 C 358.42 102.78 355.93 101.85 353.48 101.37 C 351.57 99.73 349.01 97.80 346.47 99.43 C 344.46 100.10 342.78 104.65 345.78 104.80 C 346.58 103.74 347.20 102.55 348.02 101.48 C 351.23 101.00 352.91 105.67 350.87 107.83 C 348.81 109.96 345.04 110.34 342.78 108.30 C 340.02 106.04 339.39 101.90 340.69 98.71 Z" />
<path fill="#fffff5" opacity="1.00" d=" M 0.00 101.45 C 1.54 103.92 1.80 106.63 0.00 109.08 L 0.00 101.45 Z" />
<path fill="#fffff5" opacity="1.00" d=" M 178.76 105.15 C 194.21 101.92 212.28 106.05 221.81 119.43 C 218.46 121.97 214.49 123.59 210.27 123.78 C 203.78 117.39 193.52 115.88 185.48 120.16 C 184.73 114.59 182.17 109.54 178.76 105.15 Z" />
<path fill="#fffff5" opacity="1.00" d=" M 457.55 108.10 C 460.56 106.42 463.78 105.19 467.00 103.97 L 467.00 110.18 C 463.96 109.04 460.74 108.57 457.55 108.10 Z" />
<path fill="#fffff5" opacity="1.00" d=" M 0.00 121.59 C 7.75 116.70 19.02 115.37 26.52 121.41 C 32.91 126.14 35.65 134.24 42.06 138.94 C 47.27 142.74 54.30 140.18 59.79 143.21 C 61.87 144.25 62.87 146.44 64.06 148.31 C 56.75 149.03 49.04 151.37 44.30 157.36 C 40.20 161.94 40.23 169.31 34.75 172.78 C 28.01 177.09 19.62 177.04 12.43 180.29 C 7.35 182.41 3.60 186.59 0.00 190.59 L 0.00 170.78 C 3.30 168.15 6.17 165.07 9.08 162.05 C 12.00 160.35 15.69 160.48 18.60 158.67 C 26.56 154.20 29.12 142.00 22.95 135.05 C 18.28 129.44 8.98 128.64 3.39 133.26 C -0.72 136.78 -0.20 144.09 4.21 147.14 C 7.77 149.34 13.18 147.32 13.90 143.04 C 11.26 141.19 9.90 146.26 7.06 145.46 C 2.54 144.34 1.91 137.13 5.72 134.74 C 11.02 131.10 19.04 132.93 22.25 138.49 C 25.84 145.18 22.57 154.95 15.17 157.42 C 10.22 159.35 4.69 158.49 0.01 156.23 L 0.00 157.04 L 0.00 121.59 Z" />
<path fill="#fffff5" opacity="1.00" d=" M 356.43 118.63 C 362.86 116.94 370.47 116.54 376.01 120.85 C 383.11 125.54 385.74 134.50 392.76 139.25 C 398.08 142.81 405.16 140.02 410.50 143.50 C 412.35 144.57 413.28 146.55 414.20 148.38 C 406.64 148.96 398.72 151.66 394.06 157.98 C 390.47 162.37 390.35 168.99 385.51 172.42 C 378.02 177.60 368.21 176.91 360.40 181.42 C 354.82 184.35 351.82 190.53 346.07 193.22 C 341.11 195.76 335.36 195.79 329.95 195.23 C 333.52 189.96 336.55 183.54 342.85 181.04 C 345.35 179.62 348.99 180.38 350.89 178.02 C 350.56 175.58 348.07 174.39 346.41 172.91 C 351.66 170.25 355.79 166.04 359.64 161.71 C 363.05 160.36 367.03 160.28 370.02 157.91 C 377.10 152.93 379.06 141.50 373.08 134.95 C 368.36 129.34 358.98 128.66 353.46 133.41 C 348.49 137.73 350.91 148.06 358.01 148.22 C 360.92 148.08 365.64 144.90 362.86 141.91 C 361.20 143.49 359.66 146.15 356.94 145.45 C 352.83 143.87 352.21 137.26 355.86 134.85 C 361.55 130.73 370.64 133.29 373.18 139.89 C 375.16 145.81 373.10 153.35 367.44 156.49 C 362.08 159.38 355.15 159.16 350.02 155.85 C 345.88 153.46 342.98 148.97 338.06 148.01 C 332.52 146.84 326.53 146.59 321.70 143.28 C 319.09 141.71 317.50 139.04 316.02 136.48 C 323.08 138.13 330.55 136.51 336.47 132.38 C 343.37 128.16 348.49 121.11 356.43 118.63 Z" />
<path fill="#fffff5" opacity="1.00" d=" M 80.24 130.83 C 81.07 127.50 84.38 125.74 87.09 124.09 C 94.36 130.95 103.91 135.44 114.02 135.37 C 107.53 140.71 102.56 148.17 101.40 156.61 C 98.07 151.35 89.52 150.26 85.74 155.56 C 82.26 159.70 86.71 167.07 92.02 165.37 C 93.96 164.61 96.63 162.00 94.95 159.88 C 93.16 160.15 92.39 162.09 90.91 162.93 C 87.46 163.37 85.96 158.44 88.48 156.43 C 92.20 152.41 99.76 155.54 99.84 160.91 C 100.42 166.95 93.57 171.54 88.03 170.06 C 83.84 169.08 80.65 165.88 76.60 164.58 C 73.70 163.82 70.69 164.44 67.76 164.63 C 70.60 161.87 74.15 159.80 76.52 156.59 C 78.84 152.53 74.50 148.27 75.82 144.06 C 76.64 141.41 79.59 140.33 80.79 137.95 C 80.78 135.56 80.09 133.22 80.24 130.83 Z" />
<path fill="#fffff5" opacity="1.00" d=" M 430.44 131.02 C 431.23 127.54 434.60 125.56 437.59 124.14 C 444.62 131.17 454.28 135.33 464.25 135.40 C 457.79 140.72 452.88 148.12 451.63 156.50 C 449.63 154.36 447.26 152.13 444.13 152.12 C 440.54 151.63 436.64 153.56 435.25 156.98 C 433.27 161.08 437.49 166.71 442.03 165.43 C 444.37 164.74 447.32 161.33 444.43 159.49 C 443.54 160.56 442.74 161.71 441.76 162.71 C 438.22 164.06 435.87 158.62 438.66 156.48 C 442.16 152.66 449.08 155.09 450.01 160.01 C 451.25 165.68 445.46 170.63 440.07 170.33 C 435.10 170.02 431.48 166.12 426.92 164.60 C 424.01 163.78 420.98 164.42 418.05 164.71 C 420.75 161.85 424.35 159.88 426.70 156.71 C 429.32 152.38 424.14 147.67 426.40 143.27 C 427.55 141.19 429.83 140.04 431.10 138.04 C 431.00 135.68 430.34 133.38 430.44 131.02 Z" />
<path fill="#fffff5" opacity="1.00" d=" M 118.29 135.26 C 122.66 135.24 127.04 135.61 131.25 136.87 C 127.51 139.56 123.53 142.01 120.41 145.45 C 117.16 148.74 115.49 153.15 112.83 156.88 C 110.87 159.62 112.69 163.27 115.38 164.73 C 116.69 165.33 117.95 163.23 116.51 162.51 C 115.63 161.24 113.50 159.63 115.05 158.02 C 116.87 155.20 121.36 154.92 123.50 157.52 C 126.64 161.28 125.24 167.52 121.00 169.85 C 116.27 172.73 109.14 171.67 106.23 166.70 C 102.76 161.45 103.68 154.61 106.31 149.21 C 108.87 143.51 113.41 139.03 118.29 135.26 Z" />
<path fill="#fffff5" opacity="1.00" d=" M 454.44 155.92 C 455.68 147.95 461.01 141.40 467.00 136.33 L 467.00 150.32 C 465.70 153.38 463.18 155.83 462.24 159.03 C 461.73 162.23 464.96 163.88 467.00 165.63 L 467.00 171.59 C 464.19 171.25 461.05 171.22 458.79 169.28 C 454.91 166.12 453.62 160.71 454.44 155.92 Z" />
<path fill="#fffff5" opacity="1.00" d=" M 218.63 141.43 C 221.99 142.37 225.05 144.10 227.54 146.56 C 226.63 151.30 225.25 156.22 221.61 159.64 C 216.69 165.17 207.28 166.27 201.46 161.60 C 197.84 158.72 200.43 152.19 205.00 152.40 C 206.74 152.11 207.63 153.87 208.63 154.92 C 207.92 156.61 204.04 158.14 206.02 160.02 C 209.59 159.89 210.36 155.61 212.97 153.86 C 216.70 150.83 218.10 146.02 218.63 141.43 Z" />
<path fill="#fffff5" opacity="1.00" d=" M 242.92 172.14 C 234.82 165.34 238.97 149.15 249.93 148.29 C 261.49 146.40 269.69 157.69 281.00 157.31 C 287.35 157.15 293.94 155.73 300.10 158.07 C 305.83 159.82 309.75 164.65 314.89 167.45 C 321.69 170.65 329.57 168.10 336.55 170.58 C 340.50 171.95 344.05 174.28 347.21 176.99 C 343.71 177.73 340.22 178.94 337.42 181.25 C 332.14 185.23 330.01 191.87 325.31 196.40 C 318.62 203.45 307.48 203.50 301.20 211.14 C 294.03 219.75 283.19 225.12 272.00 225.58 C 264.69 225.83 258.36 221.57 253.00 217.06 C 249.07 213.78 244.27 211.11 239.00 211.33 C 233.23 211.15 227.75 213.47 222.00 213.47 C 213.71 213.19 208.43 204.64 200.06 204.68 C 196.34 204.37 193.03 206.19 190.03 208.12 C 189.94 204.04 190.06 199.33 193.47 196.49 C 199.18 191.64 207.49 192.78 213.60 188.70 C 219.72 184.81 223.13 178.00 229.02 173.84 C 231.50 171.99 234.38 170.81 237.20 169.60 C 239.95 172.54 242.33 176.03 246.05 177.85 C 251.09 180.78 258.31 179.40 261.71 174.59 C 263.22 172.53 263.41 169.87 263.78 167.43 C 270.27 168.10 275.95 171.47 282.08 173.38 C 289.23 175.70 297.01 173.24 304.10 175.84 C 308.17 177.58 310.62 181.51 312.84 185.13 C 307.39 185.97 302.15 188.15 298.01 191.85 C 292.74 196.03 290.09 202.85 284.05 206.15 C 279.03 209.35 272.41 209.77 267.12 207.00 C 257.25 202.37 247.65 194.69 236.06 196.42 C 237.61 194.12 239.32 191.75 241.90 190.53 C 245.33 188.73 249.34 189.54 253.04 189.02 C 258.99 188.63 262.95 182.81 269.02 182.86 C 272.39 183.09 276.50 185.22 276.67 189.00 C 276.69 192.15 273.46 193.67 270.91 194.54 C 269.66 193.78 268.43 192.98 267.23 192.14 C 267.81 190.67 270.16 189.53 269.31 187.75 C 267.34 186.85 265.37 189.11 265.13 190.92 C 264.53 193.81 267.20 196.24 269.86 196.62 C 274.72 197.55 280.02 192.97 279.26 187.96 C 278.18 182.97 272.79 179.83 267.89 180.34 C 263.63 180.62 260.21 183.42 256.56 185.29 C 252.67 187.34 248.10 185.96 243.98 187.06 C 239.06 188.13 234.56 192.01 233.63 197.09 C 234.41 200.77 238.48 198.66 241.06 198.92 C 252.23 199.59 260.48 208.47 271.03 211.14 C 279.61 212.96 288.39 208.06 293.23 201.11 C 297.42 195.01 303.43 189.73 310.87 188.26 C 312.57 187.75 315.57 187.39 315.33 184.95 C 314.18 181.40 311.70 178.44 309.04 175.91 C 303.86 171.41 296.40 171.89 289.97 171.81 C 280.58 172.25 273.00 165.26 263.72 164.94 C 261.51 162.42 259.62 159.10 255.97 158.54 C 251.82 157.41 247.84 162.44 249.74 166.23 C 250.37 167.80 252.19 168.02 253.58 168.53 C 253.10 166.83 252.41 165.20 251.62 163.62 C 252.73 161.96 254.49 160.15 256.62 161.52 C 262.90 163.84 262.05 173.95 255.97 175.96 C 251.24 178.07 246.14 175.72 242.92 172.14 Z" />
<path fill="#fffff5" opacity="1.00" d=" M 150.11 156.19 C 156.69 150.71 165.51 148.12 174.01 149.01 C 178.94 149.57 184.61 151.21 187.18 155.85 C 189.37 160.39 184.58 165.79 179.88 165.19 C 177.49 164.58 177.28 161.83 177.94 159.86 C 179.47 158.94 182.14 160.10 182.67 157.88 C 181.12 156.23 178.29 155.99 176.67 157.65 C 175.16 158.91 175.33 161.06 174.93 162.79 C 170.32 160.52 165.03 158.78 159.89 160.15 C 154.30 161.35 148.65 165.95 148.80 172.10 C 149.16 179.56 157.67 185.14 164.65 182.54 C 167.58 181.60 169.20 177.93 167.73 175.17 C 166.44 171.34 161.86 170.14 158.26 170.91 C 155.86 173.46 160.35 173.43 161.91 173.60 C 165.07 173.49 167.19 178.43 164.00 180.02 C 157.91 182.47 150.21 176.57 151.62 169.98 C 153.54 164.18 160.53 161.54 166.20 162.46 C 173.57 163.66 179.01 169.25 185.44 172.55 C 189.95 174.89 195.15 174.61 200.07 174.57 C 198.46 176.73 196.87 179.05 194.49 180.44 C 189.82 183.33 183.84 182.29 179.19 185.24 C 172.19 189.28 165.37 194.62 156.95 195.03 C 147.35 195.72 140.07 188.23 131.12 186.20 C 126.10 184.77 120.86 185.64 115.84 186.51 C 117.24 184.42 118.60 182.23 120.59 180.63 C 124.93 176.95 131.09 176.25 135.09 172.08 C 140.26 166.93 144.32 160.71 150.11 156.19 Z" />
<path fill="#fffff5" opacity="1.00" d=" M 319.90 166.24 C 328.87 165.45 337.93 161.60 343.25 154.06 C 347.03 157.52 351.54 160.15 356.62 161.11 C 353.17 165.34 348.82 168.75 343.97 171.25 C 339.70 168.75 334.96 166.91 329.97 166.71 C 326.61 166.61 323.24 166.68 319.90 166.24 Z" />
<path fill="#fffff5" opacity="1.00" d=" M 464.76 159.34 C 465.39 158.10 466.25 157.00 467.00 155.83 L 467.00 163.11 C 466.25 161.85 465.33 160.69 464.76 159.34 Z" />
<path fill="#fffff5" opacity="1.00" d=" M 0.00 159.08 C 2.09 159.89 4.24 160.52 6.38 161.17 C 4.33 163.38 2.12 165.44 0.00 167.57 L 0.00 159.08 Z" />
<path fill="#fffff5" opacity="1.00" d=" M 63.52 180.19 C 66.17 179.09 68.99 177.67 71.93 178.43 C 76.46 179.71 79.50 183.88 84.06 185.11 C 89.90 186.40 96.03 182.83 101.70 185.21 C 105.92 188.40 107.73 193.86 111.99 197.07 C 116.99 201.57 124.04 202.11 130.42 201.30 C 128.55 203.75 126.68 206.39 123.85 207.81 C 119.13 210.29 113.60 209.84 108.59 211.32 C 102.56 213.09 99.90 219.93 93.91 221.82 C 88.58 223.46 82.44 222.31 77.97 218.99 C 71.35 214.01 72.60 201.24 80.99 198.91 C 85.20 197.33 90.91 200.21 90.86 205.03 C 91.36 208.46 87.36 209.30 85.35 211.11 C 85.71 214.04 88.92 212.36 90.50 211.44 C 95.08 208.58 94.55 201.56 90.68 198.32 C 85.02 192.94 74.73 196.20 72.17 203.29 C 69.83 208.39 70.91 214.29 73.52 219.08 C 68.58 223.12 62.50 226.29 55.94 225.92 C 46.99 225.98 39.82 219.59 31.19 218.26 C 25.09 217.04 19.00 219.38 12.88 218.65 C 7.72 218.25 2.85 215.47 0.00 211.13 L 0.00 208.98 C 3.62 208.57 7.43 207.81 10.22 205.28 C 13.78 202.14 16.89 198.33 21.34 196.38 C 25.41 194.16 30.20 194.67 34.51 193.32 C 41.21 190.70 44.71 183.09 51.91 181.37 C 57.86 179.38 65.41 183.46 65.87 189.97 C 66.59 196.08 59.59 201.65 53.84 199.24 C 50.72 197.94 50.37 192.95 53.26 191.24 C 55.32 190.90 57.45 191.96 59.47 191.10 C 58.07 187.01 51.77 187.09 49.73 190.58 C 46.96 194.38 48.56 200.37 53.02 202.04 C 60.59 205.12 69.57 197.91 68.77 189.92 C 68.81 185.96 65.95 182.97 63.52 180.19 Z" />
<path fill="#fffff5" opacity="1.00" d=" M 413.82 180.13 C 416.60 179.01 419.61 177.57 422.66 178.55 C 427.12 180.10 430.24 184.31 434.97 185.25 C 440.29 185.96 445.60 183.50 450.90 184.73 C 454.44 186.17 455.93 190.04 458.25 192.82 C 460.45 196.07 463.79 198.21 467.00 200.34 L 467.00 209.84 C 463.81 210.35 460.53 210.63 457.49 211.79 C 452.56 214.03 450.00 219.50 444.92 221.54 C 439.60 223.57 433.37 222.46 428.69 219.35 C 421.65 214.69 422.65 201.49 431.08 198.95 C 435.38 197.28 440.99 200.11 441.21 204.97 C 441.53 208.57 437.31 209.60 435.06 211.37 C 437.37 214.08 440.97 211.83 442.66 209.60 C 445.24 205.87 443.85 200.30 440.25 197.72 C 435.00 193.66 426.66 195.88 423.38 201.43 C 420.03 206.77 420.76 213.76 423.79 219.08 C 418.77 223.16 412.60 226.36 405.95 225.91 C 397.58 225.88 390.78 220.22 382.82 218.52 C 374.80 216.44 366.41 220.68 358.51 217.62 C 354.24 216.32 351.14 212.84 349.26 208.92 C 354.48 209.02 359.60 206.97 362.99 202.94 C 366.77 198.88 371.60 195.44 377.21 194.64 C 380.57 194.10 384.21 194.11 387.14 192.16 C 391.77 189.18 394.99 184.29 400.13 182.04 C 404.35 180.14 409.79 180.58 413.15 183.96 C 416.15 186.69 417.30 191.49 414.99 195.02 C 412.73 199.03 406.59 201.67 402.78 198.27 C 400.19 195.74 401.94 192.05 404.53 190.37 C 405.71 190.96 406.89 191.55 408.08 192.14 C 408.49 191.54 409.31 190.35 409.72 189.75 C 407.63 188.92 405.41 187.16 403.09 188.22 C 397.75 190.06 397.05 198.33 401.84 201.24 C 408.64 205.69 418.27 199.71 418.99 192.04 C 419.84 187.34 416.72 183.41 413.82 180.13 Z" />
<path fill="#fffff5" opacity="1.00" d=" M 177.66 194.13 C 176.59 190.77 179.61 187.28 183.07 187.79 C 188.29 188.36 190.37 195.56 187.33 199.42 C 184.02 203.66 177.88 205.24 172.82 203.63 C 168.85 202.62 165.95 199.52 163.11 196.77 C 167.16 195.26 171.11 193.43 174.67 190.96 C 174.94 194.03 175.48 198.06 179.09 198.90 C 180.40 199.10 183.58 200.54 183.46 198.07 C 182.31 195.90 178.22 197.07 177.66 194.13 Z" />
<path fill="#fffff5" opacity="1.00" d=" M 140.07 200.86 C 138.68 198.33 139.83 195.47 140.59 192.95 C 146.59 196.35 153.44 198.55 160.40 197.36 C 162.96 200.49 165.89 203.40 169.55 205.24 C 167.22 207.06 164.84 209.86 165.97 213.05 C 166.60 216.72 171.05 219.97 174.44 217.35 C 176.51 216.24 177.69 210.99 174.40 211.31 C 173.87 212.61 173.53 213.99 172.99 215.29 C 169.23 217.04 166.74 210.79 169.65 208.58 C 172.78 206.16 178.43 206.73 180.30 210.49 C 182.45 215.63 179.92 221.86 183.34 226.62 C 184.69 228.94 187.47 229.38 189.77 230.27 C 186.29 231.89 182.25 232.37 178.53 231.38 C 174.44 230.12 173.03 225.62 169.84 223.21 C 164.74 219.34 157.25 223.03 152.41 218.60 C 149.20 216.30 150.44 211.95 149.33 208.69 C 146.99 205.28 142.18 204.51 140.07 200.86 Z" />
<path fill="#fffff5" opacity="1.00" d=" M 309.94 207.62 C 316.37 205.09 323.10 202.69 328.02 197.58 C 327.97 200.32 326.94 203.24 327.93 205.89 C 329.89 208.04 333.40 207.70 335.30 209.97 C 335.67 212.37 334.80 214.92 335.71 217.22 C 337.55 219.47 341.06 219.73 342.58 222.31 C 344.05 224.72 342.60 227.41 341.97 229.85 C 337.64 224.63 330.64 227.16 325.00 227.98 C 320.88 228.94 315.88 226.36 315.95 221.63 C 318.36 223.10 320.81 225.91 323.97 224.67 C 327.50 223.40 327.95 218.18 325.10 215.97 C 322.84 213.67 319.34 214.02 316.60 215.12 C 315.36 211.86 312.90 209.37 309.94 207.62 Z" />
<path fill="#fffff5" opacity="1.00" d=" M 300.51 215.39 C 302.64 213.40 304.70 211.35 306.88 209.41 C 310.29 210.65 313.75 213.04 314.07 216.98 C 315.38 223.13 307.75 227.80 302.48 225.28 C 299.58 223.67 299.72 218.79 302.93 217.60 C 304.58 217.23 305.65 218.40 306.56 219.56 C 305.74 220.99 304.04 223.46 306.98 223.47 C 309.29 221.94 309.65 218.29 307.51 216.48 C 305.72 214.52 302.80 215.23 300.51 215.39 Z" />
<path fill="#fffff5" opacity="1.00" d=" M 237.08 213.96 C 241.12 213.44 245.07 214.89 248.55 216.84 C 244.55 222.10 242.44 228.66 242.84 235.29 C 239.65 228.62 229.41 226.67 224.53 232.42 C 221.53 235.76 223.37 241.90 228.03 242.46 C 230.56 242.58 234.86 240.57 233.34 237.46 C 231.28 238.31 228.38 241.30 226.44 238.66 C 224.22 236.30 226.71 233.08 229.17 232.24 C 234.81 229.59 242.19 234.84 241.07 241.09 C 240.20 246.61 234.18 249.55 229.03 249.24 C 220.97 249.03 215.97 240.99 208.04 240.24 C 204.24 239.50 200.73 241.27 197.47 242.94 C 197.24 239.89 196.87 236.44 199.03 233.94 C 203.10 229.17 210.41 230.07 214.91 225.90 C 217.70 223.24 219.12 219.54 221.08 216.28 C 226.47 215.93 231.72 214.57 237.08 213.96 Z" />
<path fill="#fffff5" opacity="1.00" d=" M 316.26 219.88 C 317.57 217.86 320.21 215.51 322.65 217.39 C 325.08 218.50 325.04 222.54 321.91 222.47 C 321.08 221.88 319.42 220.69 318.59 220.10 L 318.04 221.60 C 317.44 221.03 316.85 220.45 316.26 219.88 Z" />
<path fill="#fffff5" opacity="1.00" d=" M 117.20 221.21 C 120.58 219.61 124.35 218.79 128.08 218.83 C 133.09 219.05 137.79 223.96 136.82 229.09 C 136.33 232.31 133.38 235.54 129.87 234.78 C 127.73 234.65 126.52 232.73 125.45 231.14 C 125.81 230.63 126.55 229.60 126.91 229.08 C 128.03 228.59 130.01 228.86 129.98 227.13 C 129.15 224.92 126.31 225.81 124.94 226.97 C 123.03 228.36 123.21 230.88 123.03 232.97 C 120.02 236.01 116.97 239.54 116.79 244.05 C 116.67 253.11 127.06 260.52 135.57 257.37 C 139.30 255.92 142.61 252.08 141.67 247.85 C 141.06 244.19 137.11 241.25 133.42 242.50 C 129.71 243.41 127.89 248.80 131.08 251.36 C 134.19 250.67 130.92 246.11 134.03 245.33 C 138.17 243.90 140.51 249.98 137.57 252.54 C 131.18 259.47 118.27 251.72 119.84 242.92 C 120.46 239.94 122.65 237.72 124.56 235.50 C 127.04 237.04 129.95 238.43 132.94 237.54 C 136.59 236.60 138.58 233.12 139.94 229.90 C 142.76 230.41 145.77 230.93 148.01 232.88 C 151.13 235.36 153.84 238.95 158.07 239.47 C 162.79 239.88 167.68 239.15 172.25 240.80 C 176.88 242.32 180.99 245.33 183.77 249.34 C 178.45 250.40 172.77 250.10 167.81 252.60 C 156.71 257.80 149.96 270.68 136.96 272.05 C 128.66 273.48 122.20 267.38 115.82 263.20 C 109.69 259.08 101.54 262.70 95.41 258.72 C 90.58 255.58 89.19 249.57 85.55 245.40 C 82.64 242.09 78.00 241.66 74.06 240.37 C 76.25 238.43 78.48 236.25 81.42 235.56 C 88.24 234.10 95.47 237.21 102.09 234.38 C 108.61 231.81 110.96 224.17 117.20 221.21 Z" />
<path fill="#fffff5" opacity="1.00" d=" M 248.33 245.62 C 243.89 237.16 244.58 226.06 250.63 218.53 C 253.60 220.98 256.67 223.32 260.03 225.22 C 257.58 227.90 255.94 231.35 256.74 235.05 C 254.53 237.18 252.65 240.49 254.44 243.49 C 256.01 247.24 262.82 246.41 262.65 242.07 C 261.73 239.33 259.68 242.74 258.80 243.64 C 256.72 242.92 255.73 241.05 256.83 239.00 C 260.11 234.51 268.75 236.32 269.61 242.01 C 270.78 246.18 267.93 250.44 263.98 251.73 C 258.16 254.14 251.15 251.08 248.33 245.62 Z" />
<path fill="#fffff5" opacity="1.00" d=" M 454.43 233.28 C 459.21 229.83 462.28 224.56 467.00 221.00 L 467.00 263.62 C 461.56 260.00 454.82 261.47 448.79 260.18 C 442.27 258.37 440.14 251.34 436.61 246.40 C 433.87 242.37 428.72 241.68 424.40 240.45 C 426.74 238.08 429.45 235.66 432.93 235.34 C 440.05 234.45 447.95 237.55 454.43 233.28 Z" />
<path fill="#fffff5" opacity="1.00" d=" M 286.02 236.97 C 289.11 239.22 292.11 241.93 296.04 242.55 C 307.36 245.16 318.77 239.86 330.09 242.15 C 336.41 243.36 342.03 248.53 342.54 255.15 C 343.83 263.22 336.21 271.45 328.02 270.30 C 322.75 269.58 319.79 262.85 322.50 258.40 C 324.10 255.92 328.66 258.24 329.47 254.96 C 327.32 253.44 324.27 253.94 322.02 254.96 C 316.69 258.72 317.99 267.53 322.89 271.14 C 326.64 274.14 331.84 273.63 336.02 271.89 C 338.18 276.18 341.60 279.77 345.53 282.48 C 350.43 285.70 356.59 284.59 362.00 286.16 C 373.60 289.57 377.75 304.57 390.44 305.78 C 388.68 312.19 390.29 318.88 393.01 324.78 C 387.01 326.78 380.12 327.71 374.34 324.57 C 365.50 319.71 360.45 310.16 351.54 305.35 C 342.09 299.49 329.91 301.39 320.56 295.35 C 313.72 290.53 311.13 282.17 308.23 274.74 C 306.26 269.52 302.38 265.31 297.99 262.00 C 294.16 258.89 289.49 256.46 286.97 252.04 C 284.59 247.41 284.25 241.87 286.02 236.97 Z" />
<path fill="#fffff5" opacity="1.00" d=" M 0.00 250.54 C 15.34 249.59 28.26 237.82 43.97 239.58 C 55.05 240.86 62.36 250.36 68.05 259.02 C 71.90 264.65 75.85 270.80 82.23 273.84 C 87.73 276.33 93.93 276.76 99.36 279.47 C 104.21 281.66 108.22 285.41 111.15 289.83 C 115.11 295.51 117.75 302.33 123.34 306.71 C 126.68 309.42 130.88 310.60 134.97 311.64 C 130.89 314.57 126.50 317.33 121.50 318.31 C 113.33 320.17 105.08 316.92 96.90 318.17 C 88.95 319.33 83.19 325.49 76.25 328.94 C 70.02 332.46 62.31 333.88 55.46 331.36 C 48.95 328.94 43.97 322.83 42.81 316.00 C 41.90 311.44 42.25 306.13 45.58 302.59 C 48.97 299.13 54.19 297.59 58.92 298.48 C 61.71 299.03 64.68 300.85 65.16 303.88 C 65.41 306.71 64.49 310.32 61.56 311.45 C 59.08 311.76 56.64 310.90 54.18 310.71 C 55.19 314.75 60.43 315.43 63.62 313.69 C 66.05 312.50 66.93 309.77 68.05 307.52 C 74.83 308.26 80.23 302.75 86.94 303.22 C 89.18 303.03 91.84 303.89 93.62 302.09 C 92.85 299.01 90.10 297.10 87.74 295.25 C 82.44 291.04 75.12 291.27 69.66 287.34 C 62.93 283.47 59.00 276.58 53.55 271.33 C 48.12 266.07 40.33 264.13 32.95 264.38 C 21.47 264.20 11.40 270.94 0.00 271.45 L 0.00 250.54 Z" />
<path fill="#fffff5" opacity="1.00" d=" M 378.83 241.56 C 386.91 238.71 396.53 238.14 403.92 243.12 C 414.02 249.46 418.31 261.24 426.41 269.52 C 434.09 277.61 446.91 275.56 455.13 282.87 C 460.41 287.12 463.58 293.26 467.00 298.97 L 467.00 318.96 C 459.06 319.04 450.87 316.32 443.14 319.18 C 436.32 321.87 430.93 327.17 424.21 330.07 C 417.46 333.33 409.00 333.73 402.44 329.79 C 397.65 326.78 394.05 321.77 393.09 316.15 C 391.97 311.17 392.61 305.16 396.78 301.72 C 401.12 298.15 407.92 296.82 412.83 300.00 C 416.76 302.44 416.07 309.11 412.25 311.30 C 409.92 311.97 407.50 310.77 405.12 310.85 C 404.24 314.09 408.75 314.58 411.04 314.54 C 414.97 314.41 417.03 310.74 418.30 307.53 C 422.65 307.79 426.66 306.06 430.55 304.36 C 434.49 302.60 438.87 303.53 443.02 303.07 C 443.92 301.78 443.80 300.61 442.67 299.55 C 439.18 295.40 434.34 292.43 429.04 291.22 C 424.33 290.09 419.96 287.79 416.26 284.70 C 410.29 280.02 406.85 272.77 400.39 268.65 C 393.85 264.36 385.61 263.83 378.04 264.75 C 370.45 265.58 363.63 269.44 356.11 270.62 C 350.21 271.71 344.16 271.61 338.23 270.80 C 340.89 268.23 343.70 265.52 344.77 261.86 C 346.13 258.10 345.40 254.08 344.47 250.33 C 356.72 251.79 367.66 245.38 378.83 241.56 Z" />
<path fill="#fffff5" opacity="1.00" d=" M 198.58 259.76 C 201.56 257.64 205.19 255.66 208.97 256.73 C 215.18 258.42 220.27 263.28 226.87 263.69 C 233.82 264.52 239.98 259.45 246.92 260.58 C 253.46 261.71 257.35 268.47 264.01 269.28 C 269.91 269.80 275.77 266.55 281.62 268.57 C 286.09 269.58 288.75 273.62 290.23 277.66 C 285.79 277.58 281.02 277.65 277.16 280.15 C 271.67 283.70 269.15 290.19 263.98 294.10 C 259.35 297.90 252.82 297.59 247.96 300.99 C 242.11 304.83 239.91 312.07 234.48 316.35 C 228.14 321.48 218.42 321.88 211.71 317.22 C 205.57 313.10 202.81 304.16 206.56 297.57 C 209.63 291.54 217.83 288.72 223.85 291.98 C 227.15 293.71 228.96 298.04 227.34 301.51 C 225.69 304.50 220.21 306.04 218.65 302.18 C 218.93 300.85 219.42 299.59 219.69 298.26 C 217.98 296.10 216.07 299.27 216.10 300.96 C 215.68 305.06 220.29 308.42 224.08 306.81 C 228.74 305.91 231.48 301.09 230.47 296.56 C 237.41 295.05 239.06 286.66 245.50 284.41 C 248.25 283.33 251.30 283.86 254.10 283.00 C 255.33 281.59 254.15 279.97 253.18 278.87 C 250.87 276.17 247.55 274.40 244.02 274.02 C 238.20 273.11 232.66 275.69 226.94 276.16 C 222.15 275.70 218.43 272.28 213.95 270.88 C 211.14 269.84 208.11 269.82 205.15 269.84 C 204.34 265.72 201.86 262.28 198.58 259.76 Z" />
<path fill="#fffff5" opacity="1.00" d=" M 173.14 265.17 C 179.56 259.39 190.15 257.39 197.53 262.47 C 203.02 266.17 204.28 274.33 200.98 279.86 C 197.26 286.05 186.25 286.02 183.43 279.04 C 181.59 276.04 184.15 271.11 187.94 272.23 C 190.96 272.64 189.19 276.83 190.99 278.59 C 193.33 277.63 192.71 274.73 192.33 272.79 C 190.79 268.55 184.34 268.41 181.90 271.90 C 179.63 274.39 180.28 277.94 181.12 280.89 C 175.92 282.13 172.52 286.32 168.84 289.83 C 166.30 292.37 162.57 292.34 159.38 293.40 C 157.83 294.35 158.90 296.13 159.78 297.11 C 162.31 300.04 166.26 301.41 170.07 301.44 C 175.38 301.60 180.64 299.18 185.95 300.47 C 189.53 301.69 192.20 304.68 195.81 305.83 C 197.88 306.54 200.11 306.46 202.27 306.56 C 202.99 310.48 204.79 314.09 207.34 317.15 C 204.05 318.49 200.41 319.99 196.85 318.72 C 189.69 316.49 183.76 310.77 176.03 310.31 C 170.33 309.79 165.11 313.78 159.41 312.41 C 155.06 310.83 152.98 306.28 149.73 303.29 C 146.01 299.33 139.92 298.80 136.51 294.47 C 134.16 291.80 133.29 288.22 133.45 284.73 C 140.41 289.53 149.27 286.90 156.17 283.40 C 163.52 279.08 166.74 270.56 173.14 265.17 Z" />
<path fill="#fffff5" opacity="1.00" d=" M 366.91 270.66 C 375.52 267.35 385.28 265.93 394.20 268.80 C 399.76 270.60 403.78 275.09 407.29 279.53 C 412.48 286.24 419.55 291.89 427.92 293.92 C 432.24 294.79 436.17 297.01 439.26 300.15 C 436.16 300.25 432.97 300.26 430.05 301.44 C 426.35 302.83 422.77 305.00 418.66 304.59 C 417.90 301.97 416.97 299.13 414.49 297.65 C 407.13 292.83 396.50 295.88 391.64 302.88 C 387.86 302.63 384.20 301.15 381.50 298.47 C 376.43 293.55 372.09 287.55 365.58 284.40 C 360.73 281.99 355.16 282.71 350.05 281.36 C 346.12 280.28 343.47 276.97 340.73 274.18 C 349.58 274.81 358.59 273.84 366.91 270.66 Z" />
<path fill="#fffff5" opacity="1.00" d=" M 16.89 270.58 C 25.52 267.31 35.31 265.92 44.22 268.90 C 50.01 270.85 54.02 275.72 57.70 280.34 C 62.87 286.78 69.84 292.10 78.00 294.00 C 82.29 294.90 85.97 297.33 89.28 300.11 C 85.75 300.22 82.12 300.35 78.84 301.82 C 75.56 303.26 72.21 304.68 68.56 304.65 C 67.58 301.88 66.54 298.73 63.71 297.30 C 56.23 292.91 46.15 296.18 41.23 302.95 C 37.91 302.45 34.54 301.46 32.02 299.12 C 26.78 294.35 22.59 288.26 16.21 284.85 C 11.24 282.13 5.40 282.54 0.00 281.48 L 0.00 274.33 C 5.76 273.75 11.47 272.65 16.89 270.58 Z" />
<path fill="#fffff5" opacity="1.00" d=" M 202.36 282.41 C 204.75 279.70 205.20 276.01 205.65 272.58 C 208.09 272.58 210.62 272.37 212.95 273.27 C 217.98 274.97 222.31 279.20 227.95 278.67 C 233.62 278.10 239.21 275.54 244.98 276.82 C 247.63 277.31 249.66 279.17 251.56 280.95 C 248.34 281.07 244.95 281.32 242.17 283.12 C 237.21 285.87 235.53 292.54 229.71 294.00 C 224.98 286.40 213.33 286.39 207.31 292.38 C 204.07 295.31 202.55 299.61 202.16 303.87 C 199.36 303.77 196.34 303.82 193.98 302.05 C 190.19 299.43 185.93 296.60 181.07 297.48 C 174.59 298.51 167.14 300.32 161.54 295.75 C 165.02 294.89 168.67 293.89 171.20 291.16 C 174.48 287.77 177.92 284.19 182.75 283.20 C 188.00 288.44 197.64 288.21 202.36 282.41 Z" />
<path fill="#fffff5" opacity="1.00" d=" M 0.00 284.49 C 5.17 285.31 10.76 285.00 15.43 287.72 C 21.41 291.20 25.32 297.10 30.45 301.58 C 33.12 303.97 36.61 305.04 40.04 305.83 C 38.67 312.28 39.94 318.94 42.81 324.80 C 37.59 326.36 31.89 327.56 26.59 325.63 C 19.64 323.18 15.12 317.02 9.98 312.10 C 7.03 309.06 3.45 306.78 0.00 304.38 L 0.00 284.49 Z" />
<path fill="#fffff5" opacity="1.00" d=" M 260.62 299.09 C 263.27 297.81 265.70 296.14 267.95 294.25 C 273.15 298.07 277.37 304.22 276.11 310.97 C 275.29 319.27 267.42 326.00 259.07 325.37 C 253.80 325.21 249.25 320.15 249.94 314.90 C 250.46 311.20 256.47 308.66 258.54 312.42 C 259.89 314.30 256.39 316.32 258.14 317.87 C 260.40 318.17 260.94 315.72 261.59 314.12 C 262.36 311.87 264.81 310.51 265.09 308.03 C 265.65 304.41 263.17 301.31 260.62 299.09 Z" />
<path fill="#fffff5" opacity="1.00" d=" M 282.37 300.42 C 285.65 295.86 292.29 295.73 297.00 297.88 C 300.35 300.20 302.59 303.86 306.23 305.82 C 310.23 308.28 315.13 307.54 319.50 308.72 C 322.04 309.44 323.90 311.40 325.79 313.12 C 322.15 313.96 318.37 314.93 315.45 317.39 C 312.08 319.96 309.78 324.15 305.42 325.21 C 302.40 326.22 298.70 325.84 296.32 328.27 C 294.32 330.36 294.07 333.41 292.88 335.93 C 291.72 338.68 289.21 340.46 286.91 342.18 C 286.28 339.15 284.24 336.57 281.15 335.84 C 276.15 334.32 270.97 335.60 265.96 336.29 C 261.25 336.93 257.18 332.53 257.37 327.95 C 262.49 328.23 267.84 327.16 271.85 323.79 C 275.50 320.97 277.61 316.65 278.61 312.23 C 280.75 314.60 283.59 316.80 286.98 316.51 C 291.34 316.39 295.19 311.18 292.90 307.14 C 290.98 303.64 285.55 303.71 283.35 306.81 C 283.38 307.29 283.44 308.25 283.47 308.74 C 285.67 308.00 289.79 305.57 290.83 309.07 C 291.57 313.21 286.11 315.14 283.17 312.92 C 278.77 310.31 279.56 303.94 282.37 300.42 Z" />
<path fill="#fffff5" opacity="1.00" d=" M 328.72 323.82 C 329.62 321.00 332.57 319.85 334.90 318.48 C 335.77 320.90 336.16 324.01 338.77 325.23 C 343.12 327.21 348.23 326.28 352.59 328.26 C 355.10 329.23 355.14 332.23 355.78 334.44 C 348.06 334.30 338.81 337.66 337.11 346.12 C 332.62 344.40 327.05 345.18 324.93 350.00 L 301.84 350.00 C 304.34 347.57 307.52 346.12 310.52 344.43 C 312.88 343.11 312.99 340.09 314.07 337.88 C 315.39 333.70 320.59 334.21 323.86 332.56 C 327.53 331.28 327.42 326.83 328.72 323.82 Z" />
<path fill="#fffff5" opacity="1.00" d=" M 132.70 330.74 C 137.79 327.16 142.48 322.26 149.03 321.63 C 160.25 320.68 168.75 330.95 179.92 330.47 C 184.96 330.19 190.00 329.12 195.05 329.87 C 204.17 330.83 210.69 338.16 219.17 340.93 C 225.83 343.61 233.03 342.01 239.95 341.77 C 249.17 341.37 258.39 344.24 265.62 350.00 L 207.55 350.00 C 197.65 346.06 186.61 345.44 176.30 348.13 C 168.91 342.90 159.39 340.83 150.52 342.81 C 146.28 343.80 142.36 346.05 137.96 346.36 C 131.64 346.75 125.31 345.17 119.01 346.20 C 114.89 346.60 111.06 348.25 107.36 350.00 L 71.19 350.00 C 75.50 349.08 79.95 348.75 84.14 347.35 C 92.07 344.85 95.45 335.28 103.94 333.88 C 113.44 332.49 123.94 336.01 132.70 330.74 Z" />
<path fill="#fffff5" opacity="1.00" d=" M 0.00 327.02 C 1.40 327.91 2.94 328.63 4.18 329.76 C 4.87 331.28 5.14 332.95 5.54 334.57 C 3.69 334.65 1.85 334.71 0.00 334.78 L 0.00 327.02 Z" />
<path fill="#fffff5" opacity="1.00" d=" M 451.47 334.69 C 456.42 332.75 461.83 333.64 467.00 333.79 L 467.00 346.32 C 463.80 347.39 460.66 348.58 457.61 350.00 L 421.37 350.00 C 425.87 349.06 430.54 348.71 434.90 347.16 C 441.65 344.75 444.86 337.34 451.47 334.69 Z" />
<path fill="#fffff5" opacity="1.00" d=" M 0.00 337.36 C 9.06 336.15 17.21 342.26 21.21 349.99 L 19.97 350.00 L 10.21 350.00 C 7.16 347.39 3.10 346.56 0.00 344.03 L 0.00 337.36 Z" />
<path fill="#fffff5" opacity="1.00" d=" M 341.51 342.50 C 345.83 337.48 353.52 335.96 359.55 338.59 C 364.83 340.71 368.67 345.19 371.48 350.00 L 360.42 350.00 C 358.37 348.32 356.08 346.99 353.54 346.22 C 351.64 345.16 349.62 343.04 347.28 344.11 C 344.74 344.71 342.74 348.49 345.69 349.99 C 346.51 348.69 347.29 347.37 348.03 346.02 C 349.85 346.94 351.25 348.41 352.51 350.00 L 340.27 350.00 C 340.17 347.48 339.64 344.54 341.51 342.50 Z" />
<path fill="#fffff5" opacity="1.00" d=" M 135.09 349.08 C 141.39 349.58 146.93 346.01 152.98 345.04 C 160.34 343.70 168.09 345.72 174.17 350.00 L 114.01 350.00 C 120.85 347.85 128.07 348.56 135.09 349.08 Z" />
<path fill="#fffff5" opacity="1.00" d=" M 0.00 347.11 C 1.18 347.58 1.93 348.71 1.80 350.00 L 0.00 350.00 L 0.00 347.11 Z" />
<path fill="#fffff5" opacity="1.00" d=" M 327.42 350.00 C 328.98 349.22 330.41 347.99 332.18 347.75 C 334.30 347.75 336.07 349.17 337.92 350.00 L 327.42 350.00 Z" />
<path fill="#fffff5" opacity="1.00" d=" M 180.48 350.00 C 186.36 348.81 192.39 349.01 198.28 350.00 L 180.48 350.00 Z" />
</g>
</svg>
