<?xml version="1.0" encoding="UTF-8" ?>
<!DOCTYPE svg PUBLIC "-//W3C//DTD SVG 1.1//EN" "http://www.w3.org/Graphics/SVG/1.1/DTD/svg11.dtd">
<svg width="360pt" height="360pt" viewBox="0 0 360 360" version="1.1" xmlns="http://www.w3.org/2000/svg">
<g id="#3a3a3aff">
<path fill="#3a3a3a" opacity="1.00" d=" M 135.82 12.92 C 140.51 6.72 148.55 4.69 155.98 4.93 C 164.10 5.98 172.46 8.73 178.24 14.80 C 186.53 22.55 190.30 34.92 187.62 45.96 C 184.83 54.63 177.41 62.94 167.62 62.74 C 166.73 64.22 165.89 65.74 164.88 67.15 C 163.53 66.64 162.22 66.01 160.91 65.41 C 159.62 66.58 158.34 67.76 157.10 68.98 C 158.52 69.64 159.95 70.31 161.39 70.96 C 160.64 72.95 160.23 75.03 159.96 77.13 C 160.75 75.05 161.52 72.95 162.65 71.02 C 161.26 69.93 159.85 68.86 158.46 67.77 C 160.01 67.51 161.57 67.29 163.13 67.09 C 166.43 71.26 166.65 77.82 162.78 81.72 C 161.25 83.12 159.31 85.18 157.03 84.44 C 152.26 82.90 147.56 81.04 143.21 78.54 C 143.33 76.07 144.85 73.63 143.88 71.18 C 143.48 69.90 142.44 68.98 141.67 67.92 C 142.11 70.64 144.58 75.62 141.01 76.90 C 137.79 75.64 134.08 74.33 132.02 71.42 C 128.73 70.92 124.67 70.05 124.59 65.92 C 125.71 65.47 126.84 65.02 127.97 64.56 C 127.05 64.50 126.13 64.44 125.22 64.37 C 124.11 62.98 122.99 61.61 121.86 60.25 C 124.25 58.72 122.92 55.97 123.78 53.83 C 124.55 53.68 126.09 53.39 126.86 53.25 C 126.83 52.96 126.77 52.38 126.74 52.09 C 124.89 52.71 123.04 53.33 121.17 53.88 C 119.94 52.43 118.58 51.12 117.10 49.94 C 116.69 50.70 115.86 52.22 115.45 52.99 C 116.95 52.40 118.53 51.89 119.94 53.05 C 117.80 54.48 115.60 55.81 113.32 57.00 C 113.00 55.83 112.67 54.67 112.34 53.51 C 112.31 54.40 112.26 56.20 112.24 57.09 C 110.57 57.25 108.91 57.40 107.26 57.58 C 107.64 59.23 108.03 60.87 108.49 62.50 C 108.57 60.97 108.63 59.44 108.68 57.91 C 109.64 57.86 111.56 57.74 112.52 57.68 C 111.44 60.54 111.36 63.80 114.03 65.80 C 116.97 65.57 118.35 61.98 121.14 61.00 C 122.18 61.99 123.28 62.94 124.20 64.06 C 124.43 65.75 124.39 67.47 124.69 69.15 C 126.32 71.01 129.45 71.38 130.04 74.10 C 131.34 77.70 135.78 78.58 137.55 81.89 C 138.31 85.14 134.48 86.13 132.41 87.55 C 131.72 87.09 131.03 86.64 130.35 86.19 C 127.77 85.75 125.17 85.48 122.56 85.55 C 122.45 87.15 122.35 88.75 122.28 90.36 C 122.89 89.16 123.48 87.95 124.06 86.74 C 125.44 86.63 126.81 86.53 128.18 86.44 C 128.99 87.37 129.81 88.30 130.61 89.25 C 129.44 90.93 128.45 92.79 127.00 94.27 C 123.02 95.89 118.72 96.77 115.02 99.06 C 109.50 102.32 103.63 106.19 96.94 105.79 C 94.63 105.80 94.26 103.31 93.46 101.69 C 91.49 101.80 89.55 101.43 87.93 100.24 C 89.58 98.50 91.04 96.46 93.19 95.30 C 96.17 95.06 98.99 96.52 101.98 96.38 C 103.79 96.11 105.46 95.30 107.15 94.63 C 103.46 95.40 99.71 95.39 96.17 93.97 C 91.56 92.21 88.86 97.51 86.22 100.28 C 85.21 102.05 82.98 101.97 81.36 101.17 C 81.35 99.35 81.98 97.62 82.39 95.87 C 79.81 100.16 78.25 105.12 74.86 108.88 C 72.26 111.03 71.25 106.85 71.84 104.95 C 73.16 95.47 75.12 86.03 77.79 76.83 C 77.08 75.31 76.11 73.79 76.36 72.03 C 76.49 68.63 75.72 65.05 77.49 61.93 C 77.42 60.66 77.43 59.41 77.52 58.15 C 80.00 53.32 81.47 48.01 84.13 43.28 C 87.54 40.84 88.38 35.52 93.10 35.11 C 94.68 32.06 97.10 29.59 100.76 29.59 C 101.93 28.52 103.03 27.34 104.40 26.52 C 105.89 26.06 107.48 26.58 109.00 26.67 C 109.47 26.42 110.40 25.93 110.86 25.68 C 119.63 28.54 129.13 31.38 135.15 38.89 C 138.76 42.74 140.18 48.05 139.68 53.24 C 132.55 51.18 127.02 43.94 119.05 45.32 C 110.52 46.83 104.21 53.75 99.90 60.83 C 101.54 59.40 103.11 57.76 105.24 57.08 C 105.29 54.59 107.20 52.61 109.71 53.76 C 109.50 51.78 110.70 50.36 112.06 49.12 C 112.98 49.91 113.91 50.70 114.84 51.49 C 114.80 50.61 114.73 48.84 114.70 47.95 C 116.09 47.56 117.47 47.17 118.87 46.78 C 119.52 47.25 119.75 50.03 120.85 48.48 C 121.09 48.01 121.56 47.05 121.79 46.57 C 122.42 46.63 123.68 46.76 124.31 46.82 C 124.38 48.07 124.56 49.32 124.83 50.54 C 125.87 49.87 126.89 49.18 127.89 48.46 C 128.34 48.80 129.24 49.50 129.69 49.84 C 129.35 50.36 128.67 51.40 128.33 51.91 C 128.77 52.17 129.66 52.70 130.10 52.96 C 130.63 52.36 131.70 51.16 132.24 50.56 C 132.92 51.95 133.49 53.39 133.93 54.88 C 134.75 54.39 135.56 53.90 136.38 53.41 C 137.43 53.60 138.49 53.79 139.54 53.97 C 139.37 54.76 139.01 56.35 138.84 57.14 C 139.51 56.23 140.16 55.32 140.81 54.40 C 140.68 50.92 141.26 47.31 140.06 43.96 C 139.42 42.33 139.35 40.60 139.55 38.89 C 137.81 35.95 135.70 33.12 132.64 31.46 C 134.29 33.78 136.25 35.88 137.65 38.37 C 134.76 36.07 132.06 33.54 129.21 31.19 C 129.21 30.96 129.21 30.49 129.21 30.26 C 129.70 29.95 130.67 29.35 131.16 29.04 C 131.31 28.25 131.62 26.65 131.77 25.86 C 134.09 28.05 136.64 30.05 138.62 32.57 C 141.10 35.94 141.57 40.22 142.68 44.14 C 142.66 40.72 142.50 37.18 140.87 34.09 C 139.34 30.74 136.17 28.68 133.40 26.46 C 134.28 25.32 135.30 24.27 136.00 23.00 C 135.56 19.65 135.59 16.28 135.82 12.92 M 156.13 11.22 C 152.29 12.82 149.87 16.37 146.90 19.09 C 147.54 22.93 142.88 25.59 145.30 29.31 C 144.66 30.25 144.01 31.19 143.35 32.13 C 145.71 36.39 145.14 41.37 146.08 46.00 C 146.88 50.16 147.02 54.39 147.55 58.58 C 149.21 54.05 148.21 49.17 147.71 44.53 C 146.89 36.37 146.41 27.67 149.98 20.04 C 153.83 11.80 166.32 8.16 173.15 14.87 C 179.76 21.06 184.68 29.74 184.35 39.02 C 184.95 46.00 180.15 52.00 174.68 55.70 C 167.04 60.12 157.79 62.39 149.03 60.57 C 141.49 59.47 134.19 57.28 126.90 55.14 C 128.72 56.23 130.58 57.28 132.37 58.42 C 135.21 58.87 138.10 59.40 140.65 60.79 C 141.20 64.47 136.91 65.50 134.44 66.95 C 134.46 67.11 134.52 67.43 134.54 67.59 C 137.75 66.29 141.69 64.84 141.89 60.77 C 144.71 61.42 147.58 61.82 150.47 61.80 C 149.47 63.15 148.57 64.57 147.79 66.06 C 149.42 64.95 150.88 63.63 152.31 62.29 C 158.49 61.73 164.91 62.22 170.76 59.78 C 177.83 57.68 183.61 51.79 185.83 44.80 C 187.04 38.14 186.57 30.82 183.05 24.89 C 179.67 18.93 175.29 12.83 168.65 10.30 C 164.60 8.59 160.00 9.49 156.13 11.22 M 154.07 34.08 C 151.41 36.61 149.87 40.29 149.82 43.94 C 150.09 49.36 153.49 53.86 157.17 57.56 C 154.62 57.92 152.06 58.21 149.55 58.77 C 153.11 58.99 156.67 58.77 160.21 58.43 C 157.77 53.91 153.47 50.26 152.74 44.95 C 152.45 41.72 153.50 38.17 155.94 35.94 C 158.70 34.07 163.06 33.90 165.40 36.56 C 166.91 37.97 166.51 40.20 166.69 42.05 C 164.06 41.77 163.30 40.01 163.29 37.52 C 162.89 37.93 162.09 38.75 161.69 39.16 C 160.32 41.99 163.68 43.61 165.79 44.46 C 166.45 44.13 167.76 43.47 168.42 43.14 C 169.88 40.14 169.30 36.54 166.79 34.30 C 163.45 30.76 157.73 31.42 154.07 34.08 M 165.03 49.17 C 164.28 49.08 162.76 48.90 162.01 48.81 C 160.42 50.67 159.38 52.91 158.30 55.08 C 161.12 54.51 162.01 51.59 163.88 49.79 C 162.91 51.97 161.69 54.04 160.80 56.26 C 164.89 54.23 166.58 49.36 170.91 47.74 C 171.33 50.40 168.62 51.27 166.91 52.54 C 167.58 52.65 168.92 52.85 169.59 52.95 C 167.34 55.16 164.48 56.51 161.72 57.94 C 164.90 57.77 168.23 56.97 170.54 54.61 C 172.49 52.79 172.57 49.98 172.92 47.52 C 171.60 47.04 170.26 46.69 168.89 46.46 C 167.54 47.27 166.29 48.23 165.03 49.17 M 143.20 50.65 C 142.22 51.77 142.44 52.45 143.85 52.69 C 144.80 51.57 144.59 50.89 143.20 50.65 M 89.42 55.20 C 86.99 57.00 83.12 57.70 82.38 61.07 C 81.55 65.43 81.04 69.84 80.44 74.23 C 82.59 70.15 82.85 65.52 83.69 61.08 C 84.28 59.03 86.67 56.73 88.92 57.90 C 92.36 59.32 92.62 63.43 93.94 66.41 C 93.93 63.49 93.48 60.45 91.22 58.38 C 91.06 57.87 90.75 56.86 90.59 56.36 L 92.45 56.94 C 92.40 54.94 92.38 52.94 92.34 50.93 C 89.96 50.78 87.31 52.75 89.42 55.20 M 143.30 55.27 C 143.79 55.86 143.79 55.86 143.30 55.27 M 134.30 62.08 C 133.73 63.70 134.27 64.21 135.92 63.61 C 136.49 61.98 135.96 61.47 134.30 62.08 M 144.81 70.24 C 147.61 71.84 150.66 73.42 153.77 71.55 C 153.54 70.00 153.26 68.46 153.00 66.93 C 152.82 68.37 152.65 69.81 152.48 71.25 C 151.51 71.22 149.56 71.15 148.59 71.12 C 148.40 69.80 148.22 68.49 148.01 67.17 C 146.62 67.84 145.53 68.88 144.81 70.24 M 139.20 70.27 C 137.70 70.20 137.00 72.97 138.87 72.87 C 140.36 72.95 141.04 70.19 139.20 70.27 M 91.90 75.27 C 88.44 76.34 84.22 75.63 81.45 78.38 C 78.55 80.83 79.50 84.97 79.24 88.30 C 79.56 87.81 80.21 86.84 80.53 86.36 C 80.86 86.48 81.51 86.74 81.83 86.86 C 81.98 86.26 82.27 85.06 82.41 84.46 C 84.07 83.99 85.72 83.53 87.38 83.07 L 87.22 85.83 C 89.17 83.73 91.03 81.56 92.84 79.35 C 88.80 81.42 84.33 82.34 80.07 83.85 C 80.49 79.74 84.17 77.31 88.11 77.62 C 92.17 77.85 95.82 75.45 97.50 71.79 C 95.61 72.92 93.88 74.31 91.90 75.27 M 146.12 76.21 C 144.42 79.09 149.45 76.53 146.12 76.21 Z" />
<path fill="#3a3a3a" opacity="1.00" d=" M 118.47 20.77 C 123.60 18.90 127.24 14.56 132.08 12.18 C 135.15 11.79 134.69 15.41 134.54 17.38 C 134.15 19.97 135.47 23.44 132.79 25.13 C 130.74 25.82 128.54 25.74 126.42 25.90 C 126.62 24.99 127.01 23.15 127.21 22.23 C 127.70 22.65 128.67 23.48 129.16 23.89 C 129.89 23.04 130.64 22.19 131.12 21.16 C 130.11 20.71 129.09 20.30 128.05 19.92 L 127.33 19.48 C 127.94 18.83 129.18 17.54 129.80 16.89 C 126.16 17.79 125.07 21.59 125.58 24.95 C 123.28 23.16 120.59 22.04 117.65 22.00 C 120.72 23.19 123.79 24.43 126.63 26.12 C 128.15 26.65 131.30 25.41 130.93 28.17 C 129.71 29.95 128.56 29.86 127.48 27.90 C 127.34 28.17 127.06 28.70 126.92 28.96 L 126.39 29.39 C 121.96 27.76 117.55 26.03 112.90 25.10 C 114.57 23.44 116.21 21.62 118.47 20.77 Z" />
<path fill="#3a3a3a" opacity="1.00" d=" M 137.65 38.37 C 138.04 39.00 138.04 39.00 137.65 38.37 Z" />
<path fill="#3a3a3a" opacity="1.00" d=" M 112.43 61.04 C 113.77 57.07 117.85 55.24 121.45 53.84 C 121.89 55.27 122.33 56.70 122.77 58.13 C 120.37 60.71 116.15 61.35 114.96 65.01 C 113.68 64.07 111.21 63.08 112.43 61.04 M 118.41 57.30 C 117.17 57.25 116.37 59.69 117.99 59.67 C 119.26 59.71 120.11 57.24 118.41 57.30 Z" />
<path fill="#3a3a3a" opacity="1.00" d=" M 130.18 72.23 C 134.34 74.52 138.24 77.25 142.51 79.35 C 148.28 82.38 154.60 84.12 160.62 86.56 C 173.82 91.77 187.54 95.46 201.11 99.55 C 204.34 100.48 207.67 100.94 210.96 101.61 C 222.16 104.12 233.70 102.85 245.07 103.20 C 253.22 103.46 261.77 101.34 269.61 104.39 C 273.28 106.01 273.09 110.60 273.27 113.98 C 273.04 122.64 272.02 131.28 271.81 139.95 C 272.16 155.70 269.56 171.32 269.29 187.05 C 269.19 193.27 268.94 199.50 269.31 205.72 C 268.89 205.82 268.07 206.02 267.66 206.11 C 270.35 209.86 268.78 214.66 268.83 218.91 C 267.84 229.95 269.88 240.91 270.02 251.94 C 270.76 250.68 271.41 249.36 272.01 248.04 C 278.27 250.70 282.52 256.34 285.78 262.08 C 290.12 270.59 293.44 280.30 291.48 289.94 C 289.27 307.39 272.28 320.82 254.93 320.29 C 253.60 320.09 252.28 319.81 250.97 319.47 C 256.19 318.40 262.14 318.16 266.04 314.02 C 270.32 310.68 272.15 305.40 273.16 300.27 C 274.39 301.22 275.63 302.19 276.89 303.13 C 276.29 301.31 275.28 299.72 273.46 298.94 C 273.61 295.47 273.83 292.01 274.17 288.57 C 275.72 288.79 277.27 289.03 278.82 289.25 C 278.66 289.96 278.34 291.39 278.18 292.10 C 279.12 291.56 281.00 290.47 281.95 289.93 C 279.93 287.63 277.03 287.34 274.17 287.70 C 274.15 286.14 274.12 284.57 274.08 283.01 C 274.59 283.26 275.60 283.75 276.11 283.99 C 273.43 277.30 273.16 270.05 273.42 262.93 C 274.23 263.47 275.85 264.53 276.66 265.06 C 276.94 266.92 275.96 268.65 275.52 270.41 C 276.42 269.02 277.91 267.78 277.85 265.99 C 278.33 262.02 272.16 263.18 272.31 259.18 C 275.51 259.45 279.46 259.69 281.29 262.80 C 283.42 266.91 277.16 269.44 278.49 273.64 C 280.69 275.01 283.92 274.66 285.48 276.95 C 285.89 280.04 280.35 281.09 281.44 284.55 C 282.67 286.58 284.22 288.46 284.85 290.81 C 282.36 292.19 278.73 292.83 277.71 295.87 C 278.01 298.36 279.39 300.93 278.41 303.43 C 277.60 305.21 276.34 306.72 275.27 308.34 C 276.89 307.02 278.86 305.79 279.50 303.67 C 280.30 300.95 279.11 298.17 279.36 295.42 C 281.28 293.92 283.60 293.06 285.58 291.66 C 287.35 288.15 282.63 286.13 282.60 282.99 C 284.09 281.01 285.98 279.38 287.71 277.62 C 289.13 285.88 287.19 294.25 284.12 301.91 C 290.15 293.31 290.97 281.85 287.58 272.07 C 284.73 263.54 280.41 254.59 272.45 249.79 C 274.82 252.97 277.74 255.68 280.22 258.78 C 277.64 258.44 275.07 258.07 272.49 257.73 C 272.33 255.58 272.18 253.43 272.09 251.28 C 271.48 251.96 270.87 252.63 270.27 253.32 C 271.41 267.48 273.50 281.71 272.23 295.94 C 271.52 301.35 270.34 307.27 266.20 311.19 C 260.59 316.92 251.96 319.00 244.16 318.23 C 240.26 318.98 237.64 322.46 234.63 324.79 C 234.36 324.07 234.33 323.35 234.53 322.64 C 237.26 319.17 241.00 316.70 244.78 314.51 C 245.64 314.46 247.38 314.36 248.24 314.31 C 246.92 314.08 245.48 313.40 244.18 314.08 C 239.99 315.93 236.69 319.22 233.37 322.28 C 233.16 322.99 232.74 324.39 232.53 325.10 C 230.16 322.56 229.64 318.46 231.69 315.58 C 233.89 312.41 237.14 310.12 240.44 308.20 C 245.69 305.12 251.95 306.90 257.69 306.60 C 257.95 309.39 258.27 312.32 260.42 314.36 C 259.46 311.93 258.36 309.46 258.54 306.79 C 263.86 303.88 266.53 297.95 266.78 292.07 C 267.60 279.13 263.35 266.64 260.99 254.07 C 259.25 244.44 256.19 234.92 256.57 225.04 C 256.79 219.02 256.68 213.01 256.73 207.00 C 256.66 204.79 258.09 202.69 260.00 201.68 C 262.69 200.76 264.95 203.11 266.14 205.24 C 266.57 204.80 267.01 204.36 267.44 203.92 C 265.89 202.72 264.51 201.25 262.73 200.39 C 260.36 199.66 258.20 201.30 256.08 202.11 C 254.74 206.23 256.02 211.18 255.54 215.63 C 254.06 215.66 252.59 215.67 251.13 215.68 C 253.75 213.07 256.54 209.37 254.59 205.52 C 254.21 203.70 252.11 204.43 250.81 204.12 C 250.75 203.23 250.62 201.46 250.56 200.57 C 252.30 200.64 254.07 201.11 255.81 200.80 C 257.57 196.21 256.09 191.04 256.75 186.22 C 259.77 164.55 259.61 142.62 260.22 120.80 C 248.68 115.97 235.48 117.45 224.08 121.93 C 215.96 125.16 207.93 129.48 202.15 136.18 C 196.88 142.95 193.94 151.37 192.89 159.83 C 192.30 164.90 190.97 169.90 191.20 175.04 C 191.06 181.01 192.84 186.97 191.49 192.90 C 187.24 193.35 186.43 188.43 184.17 185.86 C 182.25 182.26 176.73 182.54 174.25 185.25 C 174.19 186.77 174.20 188.29 174.30 189.82 C 173.73 189.79 172.58 189.75 172.01 189.72 C 170.95 187.50 170.44 185.06 169.65 182.73 C 163.66 184.61 167.59 193.61 161.39 195.48 C 161.31 187.32 161.54 179.17 161.25 171.02 C 160.69 158.14 157.43 145.60 154.26 133.17 C 153.09 128.85 151.05 124.85 149.09 120.85 C 145.88 120.17 142.67 119.50 139.43 119.04 C 137.43 131.61 138.62 144.39 138.48 157.05 C 138.29 166.68 139.00 176.29 139.75 185.88 C 140.52 192.90 141.42 200.03 140.51 207.08 C 140.13 211.23 135.01 213.74 131.49 211.48 C 128.73 210.55 128.73 207.28 128.30 204.90 C 127.21 195.26 126.39 185.60 125.65 175.93 C 125.20 167.31 125.36 158.66 124.88 150.04 C 125.53 137.43 124.81 124.77 125.60 112.16 C 125.69 108.80 128.34 105.15 132.01 105.54 C 138.46 105.62 144.93 106.13 151.38 105.62 C 144.86 99.84 136.98 95.36 128.30 93.98 C 129.96 91.76 131.09 88.84 133.82 87.71 C 136.06 86.62 139.16 85.17 138.59 82.11 C 136.83 77.94 130.96 77.02 130.18 72.23 M 133.22 205.26 C 133.23 205.87 133.26 207.10 133.27 207.71 C 133.84 207.68 134.99 207.62 135.56 207.59 C 135.52 207.07 135.45 206.01 135.41 205.49 C 134.86 205.43 133.76 205.32 133.22 205.26 M 260.17 205.34 C 260.23 206.50 260.32 207.66 260.45 208.83 C 262.30 208.84 262.45 207.19 262.64 205.74 C 262.02 205.64 260.79 205.44 260.17 205.34 M 255.26 308.31 C 254.39 309.84 254.53 311.93 254.53 313.66 C 256.27 313.14 257.32 308.93 255.26 308.31 Z" />
<path fill="#3a3a3a" opacity="1.00" d=" M 245.34 156.29 C 247.72 155.74 250.74 157.38 250.80 160.02 C 251.21 163.10 249.95 166.02 248.90 168.84 C 246.66 166.92 244.71 164.57 242.03 163.24 C 241.13 163.99 240.95 165.26 240.41 166.25 C 238.94 166.21 236.53 165.95 236.34 167.99 C 236.22 171.27 239.58 173.14 241.28 175.52 C 240.23 175.54 238.13 175.56 237.08 175.57 C 236.44 173.46 236.25 171.02 234.70 169.33 C 233.06 168.90 230.72 169.25 230.34 171.22 C 228.90 175.79 234.69 177.61 235.69 181.57 C 231.45 182.29 230.43 178.03 228.92 175.12 C 226.88 175.98 225.46 177.58 225.31 179.85 C 224.51 179.24 223.70 178.62 222.90 178.02 C 221.06 180.28 221.36 182.87 223.73 184.75 C 223.51 183.41 223.06 180.73 222.84 179.39 C 225.67 181.05 224.23 184.66 224.66 187.31 C 221.64 186.77 221.33 183.90 220.60 181.44 C 218.97 178.90 217.05 182.39 215.59 183.31 C 215.52 181.37 215.46 179.44 215.38 177.51 C 218.80 178.19 222.06 176.96 225.30 176.06 C 226.05 173.93 226.57 171.69 227.70 169.72 C 229.00 168.03 231.38 168.10 233.24 167.42 C 234.48 165.61 235.94 163.90 238.14 163.26 C 241.60 162.19 242.12 157.72 245.34 156.29 Z" />
<path fill="#3a3a3a" opacity="1.00" d=" M 248.90 154.95 C 251.62 155.16 254.56 155.27 256.47 157.52 C 255.15 161.07 254.72 164.88 253.42 168.44 C 252.87 170.22 250.89 170.66 249.45 171.44 C 247.78 175.00 244.10 176.94 242.36 180.45 C 241.48 182.59 238.96 182.28 237.09 182.63 C 235.98 184.50 234.72 186.30 233.15 187.83 C 231.57 185.66 231.12 182.78 228.84 181.12 C 227.22 180.10 226.13 177.44 228.62 176.68 C 229.43 179.79 231.43 183.73 235.33 182.57 C 239.10 178.01 229.31 175.57 231.63 170.70 C 232.27 170.54 233.54 170.21 234.18 170.05 C 234.96 172.15 235.40 174.35 235.86 176.54 C 238.14 176.60 242.78 178.09 241.84 174.21 C 240.11 171.99 237.30 170.26 237.49 167.08 C 238.10 167.25 239.32 167.59 239.93 167.76 C 240.43 169.29 240.60 171.05 241.75 172.30 C 243.45 172.96 246.25 173.53 246.51 170.95 C 245.74 168.60 242.37 167.67 242.25 165.25 C 244.94 164.66 246.76 167.93 248.93 169.20 C 251.90 165.00 253.27 158.77 248.90 154.95 Z" />
<path fill="#3a3a3a" opacity="1.00" d=" M 192.78 169.08 C 193.32 169.29 194.41 169.70 194.95 169.91 C 197.22 169.66 199.85 168.75 201.85 170.34 C 203.73 171.63 205.61 173.03 208.00 173.10 C 210.79 173.19 212.53 175.54 214.48 177.19 C 213.67 177.40 212.05 177.83 211.25 178.04 C 210.44 177.06 209.76 175.95 208.76 175.17 C 207.61 175.24 206.48 175.42 205.35 175.58 C 204.62 173.47 202.89 172.23 200.86 171.51 C 202.54 173.41 203.98 175.51 205.10 177.80 C 206.17 177.14 207.25 176.48 208.33 175.82 C 209.01 177.34 209.68 178.87 210.36 180.41 C 208.57 179.94 206.77 179.18 204.88 179.44 C 203.08 181.81 202.41 184.90 200.12 186.93 C 199.14 186.03 198.20 185.09 197.29 184.12 C 198.66 181.37 201.44 179.18 201.58 175.93 C 199.63 172.85 195.63 173.72 192.57 173.60 C 192.64 172.09 192.71 170.59 192.78 169.08 Z" />
<path fill="#3a3a3a" opacity="1.00" d=" M 241.86 168.81 C 243.31 167.96 245.38 170.26 244.59 171.66 C 243.08 172.47 240.97 170.30 241.86 168.81 Z" />
<path fill="#3a3a3a" opacity="1.00" d=" M 192.53 175.10 C 195.34 175.04 198.24 174.99 200.71 176.55 C 199.20 179.04 196.95 181.17 196.09 184.01 C 196.29 186.88 200.54 189.02 202.61 186.61 C 203.91 184.73 204.47 182.43 205.87 180.60 C 207.76 180.50 209.60 181.60 208.72 183.69 C 206.39 185.80 203.20 187.11 201.72 190.04 C 201.77 193.02 205.38 194.10 207.85 193.61 C 208.18 195.08 208.23 196.64 208.85 198.03 C 210.64 199.04 212.59 199.74 214.42 200.68 C 212.63 202.23 212.57 206.14 215.36 206.58 C 219.02 208.08 221.31 202.80 224.77 204.11 C 225.62 208.30 220.48 207.67 217.98 208.93 C 216.09 210.98 217.27 214.00 219.79 214.79 C 219.09 215.91 218.40 217.04 217.73 218.18 C 216.15 215.78 214.13 213.71 211.62 212.27 C 212.00 210.77 213.20 209.19 212.49 207.60 C 211.18 204.82 208.42 203.17 205.82 201.76 C 207.86 204.11 210.01 206.38 211.68 209.03 C 210.18 210.67 208.60 212.22 206.99 213.75 C 209.25 213.82 211.86 213.59 213.57 215.40 C 215.38 216.93 216.65 220.06 215.08 222.11 C 213.16 222.45 211.08 222.09 209.31 223.04 C 213.73 225.08 219.62 226.61 220.87 232.08 C 220.30 234.54 219.36 236.90 218.96 239.40 C 222.28 238.13 225.50 234.63 229.28 236.65 C 232.93 238.94 229.57 244.53 232.96 246.58 C 236.23 245.56 237.07 240.55 240.95 241.09 C 245.18 241.13 243.76 246.48 244.83 249.25 C 248.29 248.38 248.70 242.72 252.67 243.40 C 257.67 244.09 258.43 250.10 259.09 254.13 C 257.83 253.63 256.58 253.13 255.34 252.62 C 255.64 250.32 256.01 246.78 252.89 246.37 C 250.27 245.67 249.69 248.52 248.95 250.34 C 246.44 249.86 243.91 249.46 241.38 249.14 C 241.11 247.47 240.83 245.81 240.55 244.16 C 238.18 243.90 236.70 244.97 236.40 247.40 C 237.09 246.75 238.49 245.44 239.19 244.78 C 239.60 245.80 240.43 247.85 240.84 248.87 C 236.53 248.38 232.36 247.16 228.18 246.06 C 228.43 244.19 229.28 241.86 227.57 240.42 C 226.40 238.91 224.30 239.58 222.67 239.38 C 222.42 240.61 222.18 241.85 221.94 243.08 C 220.47 242.27 218.99 241.46 217.48 240.74 C 222.34 246.52 230.33 247.75 237.23 249.70 C 244.68 250.98 252.23 251.91 259.32 254.72 C 259.56 256.21 259.80 257.69 260.03 259.19 C 259.31 258.04 258.61 256.88 257.88 255.75 C 258.25 257.82 258.78 259.86 259.47 261.86 C 258.66 261.59 257.04 261.06 256.22 260.79 C 254.75 262.11 256.06 263.90 256.56 265.35 C 257.44 264.63 259.18 263.20 260.06 262.49 C 259.35 265.15 256.39 267.94 258.11 270.81 C 258.40 271.52 258.97 272.96 259.25 273.67 C 258.10 273.43 256.95 273.18 255.80 272.93 C 256.37 273.46 257.52 274.50 258.10 275.03 C 257.50 275.46 256.30 276.32 255.70 276.75 C 256.78 276.74 257.87 276.75 258.96 276.78 L 258.94 277.41 C 257.52 280.50 259.04 283.59 260.10 286.51 C 259.40 286.14 257.99 285.40 257.29 285.03 L 257.49 286.18 C 255.92 287.32 257.36 288.40 258.04 289.43 C 258.27 288.61 258.71 286.96 258.94 286.13 C 259.39 287.14 260.29 289.16 260.74 290.17 C 261.04 286.61 260.17 283.22 258.85 279.95 C 259.62 278.49 260.73 277.24 261.56 275.82 C 261.93 273.30 259.62 271.61 258.26 269.84 C 258.67 267.48 259.95 265.45 261.40 263.59 C 262.29 267.04 262.94 270.55 263.44 274.08 C 263.95 278.25 265.48 282.32 265.10 286.58 C 263.33 283.90 262.97 280.70 262.16 277.67 C 262.17 281.49 263.43 285.13 263.90 288.89 C 261.59 290.41 259.69 292.43 258.27 294.80 C 257.63 293.26 257.00 291.74 256.26 290.26 C 256.52 293.04 257.23 295.73 257.91 298.43 C 259.96 295.25 261.10 290.81 265.43 290.08 C 264.83 295.54 264.05 303.03 257.96 305.11 C 253.16 305.86 248.21 304.37 243.45 305.66 C 241.01 306.36 238.98 307.96 236.98 309.44 C 233.71 308.36 230.42 307.38 227.06 306.63 C 227.59 314.27 229.71 321.84 233.29 328.62 C 235.89 334.26 243.68 335.59 245.17 341.95 C 246.30 346.21 242.90 349.96 238.89 350.76 C 235.23 352.42 231.54 350.49 228.03 349.46 C 222.80 350.46 218.41 354.38 212.97 354.48 C 211.65 353.95 210.41 353.26 209.15 352.62 C 207.08 354.12 204.89 356.31 202.07 355.64 C 198.71 354.90 195.36 354.11 191.96 353.64 C 193.03 351.96 195.14 350.41 194.59 348.15 C 193.41 342.81 189.93 338.40 187.86 333.41 C 193.31 334.20 198.77 334.91 204.25 335.52 C 202.00 339.00 198.99 342.56 199.33 346.99 C 199.32 349.44 199.38 352.94 201.93 354.12 C 202.15 354.13 202.59 354.14 202.81 354.14 C 198.42 349.30 199.83 342.14 203.78 337.53 C 204.30 337.90 204.82 338.28 205.34 338.65 C 207.93 337.93 210.60 338.53 212.88 339.87 L 212.28 341.43 C 209.42 341.61 206.56 341.25 203.70 341.27 C 206.03 341.72 208.40 341.98 210.76 342.25 C 210.75 342.87 210.73 344.10 210.72 344.72 C 207.72 345.17 204.67 345.50 201.76 346.40 C 204.89 346.42 208.00 345.16 211.11 345.83 C 211.20 346.31 211.38 347.28 211.47 347.76 C 208.48 348.37 205.46 349.04 202.85 350.71 C 205.56 349.94 208.19 348.70 211.04 348.56 C 214.30 349.77 217.61 350.96 221.16 350.83 C 217.37 350.05 212.31 349.65 211.21 345.08 C 211.38 341.41 214.89 339.21 217.26 336.84 C 217.63 326.91 215.98 316.99 214.91 307.15 C 204.75 303.66 195.95 295.63 192.13 285.51 C 191.16 288.37 190.17 291.23 189.27 294.11 C 188.88 294.11 188.10 294.10 187.70 294.10 C 188.21 291.28 186.73 289.02 185.31 286.81 C 186.48 284.35 188.19 281.74 186.96 278.93 C 186.34 275.48 182.97 273.82 180.51 271.80 C 180.46 284.61 182.04 297.35 183.61 310.04 C 184.73 317.79 183.87 325.90 186.84 333.31 C 188.58 338.04 191.45 342.26 193.28 346.95 C 194.54 350.07 191.31 353.75 188.09 352.93 C 180.64 351.93 173.11 352.24 165.64 352.71 C 165.41 350.87 164.57 349.00 164.96 347.13 C 165.83 345.96 166.85 344.93 167.81 343.84 C 166.50 345.04 164.20 345.85 164.29 347.95 C 164.19 349.83 165.09 351.55 165.70 353.29 C 162.38 353.04 159.15 353.76 155.93 354.43 C 150.84 355.49 147.07 349.44 148.01 344.95 C 148.76 341.67 152.20 340.49 154.96 339.36 C 153.38 339.72 151.81 340.08 150.24 340.45 C 150.75 339.13 151.26 337.82 151.78 336.51 C 154.08 336.23 156.40 336.39 158.60 337.15 C 162.37 338.33 166.34 337.66 170.17 337.20 C 172.91 330.43 171.51 322.94 170.07 316.04 C 168.04 308.47 167.86 300.59 166.48 292.90 C 164.91 282.24 161.96 271.83 158.38 261.68 C 157.05 262.89 155.46 263.92 154.58 265.52 C 153.28 269.50 155.06 273.96 158.61 276.14 C 156.88 278.70 154.96 281.75 155.84 284.97 C 156.73 287.48 159.46 288.44 161.28 290.14 C 161.43 292.67 160.77 295.43 162.26 297.69 C 163.11 299.53 164.97 300.51 166.55 301.64 C 166.88 303.55 167.19 305.45 167.45 307.39 C 163.06 303.78 160.32 298.66 158.29 293.45 C 155.14 286.31 153.40 278.65 152.06 271.00 C 151.09 263.76 150.96 256.08 153.87 249.24 C 154.62 249.37 156.12 249.63 156.88 249.76 C 157.52 253.16 160.07 256.71 163.99 255.42 C 164.27 254.86 164.85 253.72 165.13 253.16 L 165.68 252.82 C 169.33 254.22 172.64 256.38 175.88 258.53 C 175.95 258.90 176.08 259.64 176.14 260.02 C 175.85 263.54 172.23 260.55 170.92 259.23 C 171.13 259.77 171.53 260.87 171.74 261.41 C 173.21 261.79 174.67 262.19 176.13 262.63 C 176.62 262.25 177.62 261.49 178.11 261.11 C 180.46 261.51 182.70 264.94 182.57 267.60 C 183.07 267.81 184.06 268.24 184.56 268.46 C 186.55 272.23 188.21 276.16 189.89 280.08 C 188.08 270.67 183.18 261.14 174.63 256.23 C 168.62 252.28 161.80 249.62 154.70 248.50 C 150.67 242.19 148.54 234.27 151.22 227.01 C 154.87 217.18 158.63 207.34 161.00 197.10 C 162.45 196.23 164.20 195.66 165.25 194.25 C 167.44 191.35 167.01 187.45 168.69 184.32 C 169.52 186.48 169.78 188.95 171.23 190.85 C 172.73 190.75 175.09 191.21 175.22 189.07 C 175.20 188.22 175.16 186.53 175.14 185.69 C 177.21 184.65 179.84 183.47 182.03 184.89 C 184.71 187.36 185.84 191.04 188.38 193.64 C 189.73 193.76 191.09 193.72 192.45 193.71 C 193.94 187.58 192.84 181.29 192.53 175.10 M 182.38 190.55 C 182.27 192.91 183.30 195.69 181.62 197.71 C 180.16 199.64 177.34 200.12 175.19 199.15 C 173.62 197.57 173.12 195.31 172.31 193.32 C 170.51 193.27 168.72 193.35 166.94 193.42 C 166.71 194.47 166.50 195.52 166.29 196.58 C 167.45 196.54 168.62 196.51 169.79 196.47 C 170.15 195.91 170.87 194.79 171.23 194.24 C 171.52 194.20 172.09 194.13 172.38 194.09 C 173.72 198.54 169.05 201.92 165.07 200.37 C 164.50 199.21 163.90 198.06 163.28 196.93 C 163.55 198.82 164.49 200.47 165.68 201.93 C 163.85 203.86 162.67 206.24 161.82 208.74 C 159.35 210.04 157.62 212.39 159.00 215.22 C 159.18 215.60 159.55 216.37 159.73 216.75 C 159.25 216.98 158.29 217.45 157.81 217.68 C 157.37 218.88 156.92 220.07 156.45 221.27 C 157.28 222.67 158.27 223.98 159.49 225.08 C 159.00 223.18 158.46 221.29 158.00 219.38 C 158.68 219.15 160.05 218.71 160.73 218.48 C 161.24 221.58 164.03 222.97 166.71 223.83 C 165.48 225.98 163.77 228.30 164.55 230.94 C 165.24 234.09 168.65 235.25 171.18 236.58 C 170.01 238.47 167.78 238.53 165.82 238.90 C 168.23 239.69 171.04 239.53 171.90 236.70 C 173.54 236.35 175.17 236.01 176.81 235.66 C 176.73 237.90 176.22 240.40 177.64 242.37 C 179.45 244.92 182.64 245.83 185.63 245.47 C 185.66 248.72 187.47 251.23 190.03 253.07 C 188.67 253.90 187.32 254.73 185.97 255.57 C 183.94 251.91 181.11 248.76 177.77 246.26 C 176.62 246.09 175.48 245.93 174.34 245.78 C 174.05 245.26 173.46 244.22 173.17 243.70 C 173.29 244.52 173.52 246.15 173.64 246.97 C 172.91 246.93 171.45 246.83 170.72 246.79 C 170.49 247.80 170.27 248.82 170.05 249.84 C 171.07 250.41 172.06 251.08 173.14 251.56 C 173.42 250.84 173.99 249.39 174.28 248.67 C 174.62 249.25 175.29 250.42 175.63 251.01 C 175.59 249.78 175.23 246.48 177.33 247.52 C 179.53 249.57 176.65 252.63 176.14 255.00 C 177.80 253.23 179.03 251.13 179.99 248.91 C 180.82 250.10 181.72 251.25 182.45 252.51 C 183.78 254.38 181.66 256.26 181.10 258.05 C 182.16 257.32 183.21 256.60 184.27 255.87 C 188.38 263.00 191.43 270.65 194.93 278.07 C 198.60 285.72 206.28 290.71 214.39 292.54 C 228.46 295.64 243.11 295.40 256.95 299.66 C 255.92 299.15 254.88 298.63 253.85 298.14 C 253.53 296.34 254.59 292.94 252.08 292.48 C 249.72 291.72 249.52 294.98 249.01 296.47 C 246.60 295.98 244.19 295.50 241.77 295.06 C 241.65 293.61 241.59 292.15 241.29 290.73 C 239.70 289.67 237.85 291.06 236.24 291.38 C 236.26 292.03 236.29 293.34 236.30 294.00 C 233.64 293.80 230.98 293.55 228.33 293.32 C 228.92 291.64 230.05 290.00 229.70 288.14 C 229.56 284.59 224.53 282.12 221.96 284.91 C 220.05 286.84 220.95 289.72 221.07 292.10 C 216.48 291.51 211.91 290.53 207.75 288.46 C 208.50 287.88 210.01 286.72 210.76 286.14 C 210.51 284.58 210.59 282.74 209.22 281.65 C 208.10 281.51 206.97 281.52 205.85 281.50 C 205.48 282.71 205.12 283.93 204.75 285.15 C 205.96 284.69 207.49 281.31 208.60 283.26 C 210.76 284.96 208.03 286.70 207.19 288.23 C 203.69 286.09 200.38 283.56 198.05 280.14 C 199.69 278.51 201.58 276.31 200.19 273.91 C 199.55 271.66 197.16 272.18 195.53 272.80 C 196.19 273.09 197.52 273.65 198.19 273.93 C 200.29 275.24 198.51 277.62 197.86 279.21 C 195.72 275.71 194.19 271.88 192.29 268.25 C 195.46 268.28 199.03 268.16 201.51 270.50 C 203.59 272.03 203.96 274.71 204.62 277.02 C 204.06 277.97 203.51 278.92 202.96 279.88 C 205.65 278.77 209.04 277.03 211.73 279.04 C 214.65 281.51 213.61 285.77 212.55 288.89 C 212.78 288.81 213.24 288.64 213.48 288.55 C 215.56 284.29 218.92 279.99 224.02 279.56 C 230.15 280.24 233.15 286.57 233.78 292.07 C 235.31 289.79 236.21 286.71 238.93 285.52 C 242.94 286.06 245.13 289.77 245.47 293.51 C 246.61 292.16 247.69 290.74 249.05 289.59 C 251.12 288.78 253.21 289.81 255.17 290.45 C 254.67 289.78 254.17 289.12 253.68 288.45 C 256.01 285.50 256.16 281.70 255.56 278.13 C 255.01 281.60 254.62 285.13 253.24 288.40 C 250.79 288.22 248.42 288.74 246.28 289.92 C 245.15 288.09 243.81 286.39 242.31 284.84 C 241.70 281.33 243.87 278.66 245.68 275.94 C 246.36 272.60 243.34 270.18 242.81 267.09 C 243.98 265.07 245.96 263.37 245.67 260.79 C 246.18 260.86 247.21 261.02 247.72 261.10 C 247.15 264.56 244.53 267.87 246.25 271.44 C 246.38 270.30 246.50 269.16 246.59 268.02 C 249.30 264.65 247.95 260.68 247.05 256.93 C 248.10 257.29 250.20 258.02 251.25 258.38 C 250.77 256.65 250.41 254.89 250.06 253.14 C 249.19 254.04 248.29 254.92 247.44 255.84 C 247.23 255.42 246.80 254.56 246.59 254.13 C 246.47 256.43 246.57 258.87 245.13 260.82 C 244.10 258.75 243.06 256.68 241.91 254.68 C 242.19 257.63 243.68 260.20 244.92 262.83 C 243.82 264.41 241.85 265.81 242.25 268.00 C 242.73 270.73 245.38 272.89 244.79 275.82 C 243.70 277.81 242.22 279.54 240.94 281.39 C 240.00 278.76 238.04 275.77 240.00 273.10 C 242.33 269.59 238.66 266.41 238.12 263.01 C 238.32 260.54 240.98 258.83 240.68 256.22 C 240.25 254.57 239.01 253.29 238.16 251.86 C 239.05 254.79 240.32 257.81 238.31 260.64 C 237.75 260.09 237.20 259.54 236.67 258.98 C 238.82 256.32 236.07 253.43 235.13 250.88 C 235.42 253.01 235.85 255.11 236.38 257.19 C 234.83 259.92 231.80 263.85 235.59 266.27 C 234.36 266.85 233.10 267.39 231.88 267.98 C 231.60 268.42 231.03 269.29 230.75 269.72 C 230.48 269.77 229.95 269.85 229.69 269.89 C 230.30 267.44 231.46 265.19 232.54 262.92 C 231.88 261.67 231.21 260.42 230.52 259.19 C 231.10 258.51 231.70 257.84 232.31 257.18 L 232.78 258.90 C 233.27 258.10 233.84 257.36 234.38 256.60 C 234.02 255.95 233.30 254.66 232.94 254.02 C 232.04 254.92 231.27 255.94 231.38 257.35 C 230.90 257.23 229.95 256.99 229.48 256.87 C 229.83 254.88 230.22 252.90 230.52 250.91 C 229.84 252.57 229.24 254.27 228.64 255.97 C 229.50 258.33 230.43 260.67 231.40 262.99 C 230.42 265.21 228.85 267.39 229.12 269.94 C 229.64 271.82 231.08 273.26 231.91 275.00 C 231.69 276.77 230.78 278.35 230.12 279.98 C 229.66 279.81 228.75 279.47 228.29 279.31 C 231.43 275.52 228.02 271.43 226.39 267.86 C 227.46 266.42 228.65 265.06 229.57 263.53 C 229.37 260.46 226.71 258.07 226.35 255.03 C 226.66 253.26 227.35 251.58 227.85 249.86 C 226.69 251.53 225.57 253.24 224.45 254.95 C 225.77 257.67 227.15 260.37 228.49 263.08 C 227.35 264.60 225.11 265.83 225.40 268.01 C 225.88 270.21 227.23 272.07 228.07 274.12 C 229.07 275.87 228.81 280.07 225.36 278.43 C 225.92 277.73 226.49 277.04 227.08 276.36 C 226.12 275.81 225.15 275.26 224.18 274.72 L 225.80 276.12 C 221.78 278.24 217.56 280.28 214.81 284.10 C 214.26 281.25 213.06 278.58 210.77 276.70 C 214.63 277.48 217.75 275.24 219.46 271.96 C 220.36 273.18 221.28 274.41 222.18 275.64 C 222.92 274.30 223.73 273.00 224.37 271.60 C 223.45 269.46 220.61 267.62 221.78 265.04 C 222.64 263.62 223.74 262.37 224.64 260.97 C 223.59 258.23 221.71 255.89 220.82 253.09 C 220.53 250.90 221.47 248.78 221.74 246.63 C 220.73 248.26 219.38 249.92 219.59 251.97 C 219.82 255.31 222.08 258.00 223.60 260.85 C 222.43 262.48 220.50 263.92 220.46 266.11 C 219.93 269.42 225.51 271.28 222.15 274.44 C 219.84 270.84 217.43 267.30 214.57 264.11 C 216.49 262.65 219.33 261.54 219.72 258.85 C 220.40 255.87 217.33 253.90 216.99 251.16 C 217.95 248.66 219.92 246.30 219.08 243.48 C 218.22 245.99 217.14 248.43 216.27 250.95 C 215.75 253.92 219.15 256.03 218.43 259.02 C 217.34 260.85 215.77 262.33 214.35 263.90 C 211.80 260.90 209.08 258.05 206.32 255.25 C 206.43 253.70 206.54 252.15 206.63 250.59 C 206.22 250.58 205.40 250.55 204.99 250.53 C 203.64 253.12 201.83 250.74 200.48 249.73 C 201.13 248.50 202.66 247.59 202.65 246.06 C 202.88 243.27 200.52 241.33 199.40 239.02 C 199.53 236.68 202.35 235.38 202.44 233.02 C 202.67 231.30 201.07 230.13 200.32 228.81 C 201.39 228.20 202.47 227.63 203.58 227.08 C 203.55 225.64 203.41 224.19 203.34 222.76 C 201.39 224.02 200.25 226.09 198.78 227.83 C 197.10 223.79 200.58 221.30 202.85 218.65 C 193.50 215.20 183.50 219.28 173.91 217.90 C 171.88 217.68 170.16 216.52 168.47 215.47 C 168.73 211.22 169.25 206.98 170.16 202.81 C 170.12 202.13 170.09 201.46 170.06 200.79 C 171.04 200.01 172.02 199.22 172.98 198.43 C 174.52 199.46 175.99 201.17 178.07 200.62 C 180.79 200.55 182.51 198.23 183.88 196.18 C 184.50 197.23 185.18 198.24 185.93 199.21 C 189.30 200.22 192.84 200.57 196.32 201.00 C 194.26 200.34 192.07 199.92 190.31 198.57 C 189.05 198.56 187.71 199.14 186.52 198.57 C 184.85 196.06 183.80 193.20 182.38 190.55 M 192.49 194.07 C 194.43 195.39 196.58 196.35 198.70 197.35 C 201.29 197.64 203.30 199.21 205.14 200.93 C 202.68 196.43 196.96 195.58 192.49 194.07 M 206.28 207.36 C 205.17 207.54 203.97 208.90 204.54 210.03 C 205.91 211.10 208.02 207.95 206.28 207.36 M 206.44 217.04 C 208.90 218.09 211.47 218.88 214.02 219.69 C 211.98 217.69 209.29 216.77 206.44 217.04 M 209.97 230.01 C 210.57 230.11 211.75 230.30 212.35 230.39 C 210.91 232.01 212.16 233.00 213.42 233.94 C 212.95 234.46 212.03 235.49 211.57 236.01 C 212.98 240.30 215.24 244.41 214.68 249.10 C 216.46 244.66 213.96 240.46 213.11 236.19 C 214.70 234.19 216.88 232.51 217.19 229.79 C 216.63 230.52 215.52 231.98 214.97 232.71 C 214.09 231.55 213.25 230.38 212.40 229.20 C 211.59 229.47 210.78 229.74 209.97 230.01 M 155.18 235.92 C 156.62 237.47 158.74 236.42 160.34 235.77 C 158.94 235.50 157.56 235.15 156.21 234.71 C 155.80 233.47 155.40 232.23 155.03 230.99 C 154.77 232.57 153.62 234.67 155.18 235.92 M 161.15 237.08 C 160.18 240.46 157.86 243.05 155.08 245.09 C 158.25 244.61 160.33 242.12 161.30 239.20 C 163.28 241.49 165.69 243.92 168.98 243.77 C 172.34 244.30 174.89 240.93 174.23 237.81 C 172.96 239.75 172.04 243.23 168.99 242.52 C 165.37 242.64 162.96 239.81 161.15 237.08 M 222.18 250.32 C 220.42 253.10 225.55 250.71 222.18 250.32 M 214.47 253.65 C 214.85 256.04 215.26 258.43 215.70 260.82 C 217.06 258.34 216.82 255.42 214.47 253.65 M 153.74 255.28 C 156.10 259.77 161.88 261.73 166.16 258.64 C 166.96 262.15 168.53 265.99 172.04 267.54 C 173.86 267.86 175.71 267.39 177.53 267.20 C 178.97 269.93 180.81 272.61 184.35 272.08 C 182.21 270.75 180.10 269.31 178.51 267.32 C 178.56 266.54 178.66 264.97 178.71 264.18 C 176.73 265.23 174.42 267.36 172.13 265.91 C 168.41 263.70 167.54 259.14 167.81 255.15 C 165.78 256.68 163.81 258.96 161.03 258.73 C 158.19 258.74 156.01 256.70 153.74 255.28 M 255.52 255.51 C 254.67 256.66 253.84 258.14 253.67 259.55 C 255.58 260.21 257.35 256.20 255.52 255.51 M 251.25 258.38 C 250.45 259.43 249.89 260.66 249.55 261.95 C 249.88 264.55 251.99 266.50 252.58 269.01 C 252.27 270.81 250.82 272.21 250.20 273.93 C 249.84 276.47 251.43 278.65 251.88 281.06 C 251.94 283.20 251.55 285.32 251.43 287.45 C 253.07 284.04 253.15 280.08 251.53 276.64 C 250.26 274.51 251.92 272.65 253.34 271.20 C 253.64 269.82 253.93 268.43 254.25 267.06 C 252.60 265.79 250.64 264.25 250.60 261.98 C 251.37 260.15 252.44 258.47 253.32 256.69 C 252.80 257.11 251.77 257.96 251.25 258.38 M 254.25 267.06 C 254.76 268.87 254.70 270.75 254.88 272.62 C 257.39 268.29 253.71 263.99 253.67 259.55 C 252.90 262.06 253.57 264.62 254.25 267.06 Z" />
<path fill="#3a3a3a" opacity="1.00" d=" M 210.80 180.72 C 211.75 179.61 213.07 178.92 214.24 178.08 C 214.22 180.48 214.56 182.88 215.89 184.93 C 217.23 183.71 218.55 182.46 219.88 181.23 C 220.50 183.19 219.80 185.97 221.80 187.25 C 223.02 187.65 224.31 187.79 225.57 188.01 C 225.80 187.38 226.24 186.14 226.46 185.52 C 227.84 185.95 229.22 186.39 230.60 186.83 C 230.83 187.18 231.31 187.88 231.55 188.23 C 233.68 188.86 235.62 189.95 236.92 191.83 C 235.59 192.83 234.07 193.57 232.86 194.72 C 231.94 196.69 231.27 198.79 230.00 200.58 C 229.20 197.45 231.33 194.88 232.01 192.01 C 231.11 189.74 227.51 188.70 225.98 190.92 C 225.65 191.98 225.39 193.06 225.19 194.15 C 223.41 193.24 221.51 191.55 219.37 192.42 C 217.28 193.88 216.17 196.48 213.87 197.67 C 211.95 198.59 210.22 197.16 208.84 196.00 C 211.74 194.24 216.22 194.25 217.70 190.76 C 218.90 187.75 215.84 185.15 212.99 185.49 C 211.23 187.29 210.15 189.61 208.50 191.50 C 206.73 193.16 204.46 191.52 202.60 190.97 C 204.11 188.68 206.27 187.03 208.50 185.50 C 210.24 184.55 209.97 182.29 210.80 180.72 Z" />
<path fill="#3a3a3a" opacity="1.00" d=" M 225.25 180.11 C 227.52 181.70 229.62 183.53 231.33 185.71 C 227.87 186.14 225.56 183.35 225.25 180.11 Z" />
<path fill="#3a3a3a" opacity="1.00" d=" M 213.49 186.75 C 215.18 187.39 217.76 188.76 215.79 190.75 C 214.48 192.03 211.00 194.68 209.94 191.98 C 211.10 190.22 212.31 188.50 213.49 186.75 Z" />
<path fill="#3a3a3a" opacity="1.00" d=" M 227.85 191.02 C 228.76 191.43 229.69 191.77 230.60 192.21 C 229.91 194.15 228.71 195.92 228.34 197.97 C 228.07 199.98 230.17 200.94 231.23 202.25 C 232.49 199.90 233.11 197.29 234.14 194.85 L 235.50 194.54 C 236.09 198.24 232.55 202.70 236.27 205.72 C 236.53 205.64 237.05 205.49 237.30 205.42 C 238.24 202.83 238.28 199.91 239.81 197.56 C 240.45 197.64 241.73 197.79 242.37 197.87 C 244.11 201.19 238.50 203.90 241.03 207.03 C 242.05 207.60 243.24 207.70 244.36 208.00 C 245.07 205.41 245.39 202.63 246.89 200.33 C 248.56 200.08 250.00 201.18 249.73 202.93 C 248.72 205.46 245.15 206.84 245.62 209.98 C 245.33 211.66 247.38 211.80 248.58 211.75 C 249.95 209.27 250.87 206.46 253.18 204.64 C 253.44 206.68 253.60 208.73 253.65 210.79 C 252.32 212.43 249.12 213.97 250.35 216.52 C 251.71 217.83 253.95 217.05 255.69 217.35 C 255.71 217.97 255.76 219.22 255.78 219.85 C 253.64 219.45 251.41 219.42 249.36 218.64 C 247.71 217.56 246.93 215.62 245.83 214.05 C 240.75 212.85 235.72 211.11 231.32 208.24 C 232.12 212.12 233.78 216.04 232.85 220.06 C 232.03 223.84 231.79 227.71 232.43 231.54 C 230.85 230.87 228.48 231.20 227.62 229.39 C 226.56 226.84 227.05 223.83 229.24 222.04 C 229.39 224.51 229.43 226.99 229.57 229.47 C 230.49 227.03 230.62 224.41 230.22 221.86 C 230.78 221.69 231.91 221.34 232.47 221.17 C 231.05 220.36 229.36 220.67 227.81 220.72 C 227.67 220.16 227.37 219.04 227.23 218.48 C 224.74 218.88 222.27 219.91 219.72 219.54 C 219.63 218.85 219.46 217.47 219.37 216.78 C 221.55 216.11 223.89 215.98 226.00 215.10 C 227.20 214.02 227.32 212.33 227.78 210.89 C 227.05 210.52 225.61 209.78 224.88 209.41 C 223.03 210.54 220.64 213.99 218.50 212.43 C 216.99 209.47 221.15 209.55 222.95 209.20 C 226.08 209.08 227.92 204.58 225.39 202.52 C 221.33 200.86 218.62 205.82 214.60 205.73 C 213.89 204.05 213.36 202.11 215.06 200.81 C 217.83 200.16 220.94 200.89 223.49 199.42 C 225.65 197.08 226.48 193.84 227.85 191.02 Z" />
<path fill="#3a3a3a" opacity="1.00" d=" M 236.87 197.00 C 235.89 192.99 240.72 192.24 243.47 193.35 C 243.58 194.09 243.79 195.55 243.90 196.28 C 246.83 195.99 249.25 197.31 250.97 199.60 C 249.29 199.66 247.25 198.57 245.79 199.84 C 244.08 201.89 244.26 204.78 243.63 207.24 C 243.03 206.93 241.83 206.30 241.23 205.98 C 242.08 203.43 243.51 201.14 244.71 198.74 C 243.23 197.50 241.51 195.67 239.38 196.55 C 236.42 197.86 238.60 202.99 235.72 204.07 C 235.07 201.60 236.14 199.29 236.87 197.00 Z" />
<path fill="#3a3a3a" opacity="1.00" d=" M 168.04 194.27 C 171.47 194.38 166.44 197.24 168.04 194.27 Z" />
<path fill="#3a3a3a" opacity="1.00" d=" M 215.65 198.14 C 217.46 196.82 218.81 195.02 220.15 193.27 C 221.33 194.11 223.78 194.09 223.62 196.00 C 223.71 199.13 219.34 198.77 217.29 199.58 C 216.74 199.11 216.19 198.62 215.65 198.14 Z" />
<path fill="#3a3a3a" opacity="1.00" d=" M 163.30 209.03 C 162.98 205.80 165.42 203.30 167.55 201.25 C 168.24 201.86 168.93 202.50 169.60 203.15 C 168.79 205.19 168.11 207.28 167.41 209.35 C 167.12 208.35 166.54 206.35 166.25 205.35 C 166.03 207.40 166.32 209.44 167.56 211.13 C 167.58 213.90 167.61 216.68 167.57 219.45 C 165.68 218.59 165.29 216.73 165.06 214.86 C 164.69 216.25 163.59 218.37 165.42 219.20 C 166.47 220.28 169.68 220.93 167.76 222.73 C 166.02 223.13 164.40 221.88 162.99 221.04 C 161.11 218.94 162.09 216.25 162.79 213.90 C 163.36 213.64 164.48 213.13 165.05 212.87 C 164.43 211.60 163.78 210.35 163.30 209.03 Z" />
<path fill="#3a3a3a" opacity="1.00" d=" M 247.67 210.68 C 245.96 210.20 246.90 207.32 248.18 206.76 C 249.68 207.30 248.86 210.09 247.67 210.68 Z" />
<path fill="#3a3a3a" opacity="1.00" d=" M 160.87 215.82 C 158.79 213.55 159.45 210.68 161.85 208.92 C 162.21 209.66 162.92 211.13 163.27 211.87 C 162.45 213.17 161.65 214.49 160.87 215.82 Z" />
<path fill="#3a3a3a" opacity="1.00" d=" M 221.46 215.04 C 222.41 213.04 224.24 211.80 226.14 210.80 C 226.20 213.60 223.91 214.76 221.46 215.04 Z" />
<path fill="#3a3a3a" opacity="1.00" d=" M 129.69 212.30 C 133.35 214.14 137.68 214.14 140.82 211.23 C 142.97 229.18 146.57 246.96 147.86 265.01 C 148.51 270.98 148.82 276.97 149.64 282.92 C 150.97 291.54 150.78 300.32 150.30 308.99 C 149.71 315.52 142.98 319.17 136.99 319.23 C 132.54 320.35 128.38 317.71 123.98 317.90 C 119.32 318.90 118.76 325.46 113.74 325.87 C 111.12 322.40 112.24 317.92 114.98 314.90 C 117.53 313.50 119.86 311.70 122.52 310.51 C 124.73 309.84 127.07 309.78 129.34 309.36 C 127.09 309.27 124.76 309.08 122.57 309.70 C 119.71 310.98 117.29 313.02 114.51 314.46 C 116.25 311.03 119.34 308.66 121.90 305.89 C 124.03 303.36 127.54 303.55 130.52 303.16 C 130.67 303.66 130.97 304.66 131.13 305.16 C 131.19 304.58 131.32 303.42 131.38 302.84 C 133.32 303.77 135.27 304.71 137.23 305.61 C 139.39 303.64 140.34 300.85 139.82 297.96 C 138.16 283.35 136.78 268.71 135.38 254.08 C 133.67 240.13 132.74 226.05 129.69 212.30 M 113.69 322.30 C 116.35 319.39 118.50 315.58 122.52 314.36 C 125.42 313.15 128.49 314.20 131.44 314.56 C 124.61 310.64 115.89 315.11 113.69 322.30 Z" />
<path fill="#3a3a3a" opacity="1.00" d=" M 168.62 217.30 C 170.21 217.95 171.81 218.62 173.40 219.28 C 173.27 221.29 173.21 223.31 173.40 225.33 C 173.79 223.32 173.87 221.25 173.97 219.22 C 174.89 220.46 175.79 221.72 176.69 222.98 C 175.70 224.67 174.69 226.36 173.69 228.05 C 170.76 225.15 169.30 221.28 168.62 217.30 Z" />
<path fill="#3a3a3a" opacity="1.00" d=" M 182.85 218.94 C 189.27 218.34 195.78 217.70 202.18 218.88 C 200.58 220.97 196.91 222.44 197.53 225.56 C 198.03 228.08 200.19 229.79 201.37 231.99 C 201.91 234.72 198.52 236.23 198.38 238.77 C 199.33 241.53 202.75 243.75 201.63 246.98 C 201.40 249.58 198.74 248.28 197.53 247.36 C 198.05 245.81 198.60 244.26 199.10 242.71 C 198.64 243.50 197.72 245.08 197.26 245.88 C 195.70 245.40 194.47 244.28 193.15 243.40 C 193.65 241.92 194.53 240.51 194.57 238.91 C 194.13 236.73 192.12 235.22 191.74 233.02 C 192.96 231.10 195.40 229.56 194.76 226.96 C 194.90 224.79 193.33 223.18 192.07 221.62 C 192.84 223.98 194.16 226.32 193.80 228.90 C 193.04 229.95 192.04 230.77 191.11 231.67 C 190.73 235.73 195.12 238.52 193.21 242.72 C 191.97 241.98 190.73 241.23 189.50 240.46 C 189.76 238.02 189.70 235.54 188.58 233.30 C 187.50 231.32 189.87 229.84 190.74 228.31 C 190.77 226.61 190.78 224.92 190.76 223.23 C 188.87 223.19 187.00 223.41 185.15 223.78 C 185.83 224.80 186.52 225.82 187.21 226.84 C 187.87 225.97 188.55 225.10 189.24 224.25 C 191.47 223.33 189.96 226.75 189.84 227.83 C 189.12 228.85 188.76 230.74 187.25 230.79 C 185.77 228.71 184.03 226.72 183.16 224.29 C 184.04 223.03 185.06 221.88 186.00 220.67 C 184.74 221.51 183.46 222.34 182.39 223.43 C 182.07 226.31 184.82 228.34 185.95 230.78 C 184.70 232.09 183.50 233.45 182.19 234.70 C 181.63 234.36 180.51 233.70 179.96 233.36 C 184.29 230.17 179.19 226.01 180.04 222.03 L 181.38 222.54 C 181.84 221.32 182.33 220.12 182.85 218.94 Z" />
<path fill="#3a3a3a" opacity="1.00" d=" M 176.51 221.59 C 176.23 220.93 175.69 219.63 175.41 218.97 C 177.22 219.19 178.99 219.59 180.72 220.17 C 180.25 221.79 179.09 223.26 179.26 225.02 C 179.57 226.80 180.60 228.34 181.32 229.97 C 180.87 230.79 179.99 232.44 179.55 233.27 C 179.07 231.30 178.05 229.53 177.59 227.56 C 177.81 229.00 178.04 230.45 178.28 231.90 C 176.87 230.66 175.48 229.41 174.10 228.15 C 175.11 226.21 178.79 223.85 176.51 221.59 Z" />
<path fill="#3a3a3a" opacity="1.00" d=" M 217.58 218.92 C 218.92 219.71 219.96 221.78 221.78 221.30 C 223.48 221.02 225.14 220.51 226.84 220.15 C 226.28 223.85 224.35 228.38 227.52 231.46 C 229.07 233.43 231.58 231.78 233.42 231.23 C 234.95 232.23 236.48 233.23 238.02 234.22 C 236.96 235.06 235.90 235.91 234.85 236.77 C 236.80 236.23 238.81 234.92 240.89 235.66 C 245.46 237.11 250.01 238.64 254.52 240.28 C 256.13 240.62 256.84 242.09 257.50 243.45 C 254.98 242.75 252.15 241.27 249.59 242.62 C 248.09 244.05 247.00 245.84 245.74 247.48 C 245.72 244.42 245.68 240.21 241.91 239.42 C 237.54 238.18 235.31 242.59 233.02 245.35 C 232.65 242.07 233.18 237.98 230.17 235.74 C 227.88 233.72 224.78 234.71 222.25 235.61 C 224.15 231.31 221.06 227.59 218.28 224.63 C 219.75 224.67 221.24 224.71 222.72 224.76 L 222.77 224.32 C 220.87 223.99 218.98 223.67 217.09 223.35 C 217.26 221.87 217.42 220.39 217.58 218.92 Z" />
<path fill="#3a3a3a" opacity="1.00" d=" M 168.12 234.01 C 164.16 231.89 165.70 225.85 168.81 223.86 C 169.92 224.48 170.35 225.88 171.12 226.85 C 172.32 228.14 173.82 229.41 173.39 231.42 C 170.27 232.79 170.08 229.27 169.08 227.31 C 169.44 228.98 168.59 231.51 170.58 232.33 C 172.19 233.11 173.66 231.55 175.16 231.18 C 177.78 232.61 179.89 234.78 182.26 236.57 C 183.16 237.59 185.57 238.54 184.23 240.26 C 181.59 241.58 181.15 238.26 180.14 236.71 C 180.43 238.31 179.82 240.58 181.83 241.20 C 183.57 242.46 184.86 240.34 186.04 239.38 C 188.65 241.61 191.54 243.53 193.86 246.09 C 193.58 246.50 193.03 247.33 192.75 247.74 C 191.00 248.27 190.83 245.89 189.95 244.91 C 190.17 246.19 190.37 247.49 190.57 248.78 C 192.30 248.89 194.37 249.04 195.38 247.23 C 198.73 250.37 202.38 253.22 205.44 256.67 C 206.66 258.04 204.91 260.73 203.07 259.45 C 200.90 259.42 201.83 256.57 201.21 255.22 C 200.92 255.22 200.36 255.22 200.08 255.23 C 200.53 256.84 200.44 258.91 202.01 259.95 C 203.04 260.31 204.12 260.57 205.18 260.85 C 205.64 260.13 206.55 258.70 207.01 257.98 C 209.11 260.09 211.18 262.24 213.16 264.47 C 210.85 265.59 208.94 268.59 211.36 270.67 C 213.32 273.09 216.43 270.95 217.42 268.73 C 219.60 271.10 217.17 274.00 214.88 275.08 C 211.40 276.69 207.19 273.74 206.86 270.09 C 207.03 267.63 207.61 265.23 208.06 262.81 C 204.65 263.32 200.56 264.01 197.96 261.15 C 194.90 258.52 198.15 254.53 198.56 251.40 C 195.52 251.87 192.05 252.99 189.41 250.77 C 186.15 249.08 187.57 245.05 187.53 242.17 C 185.52 243.60 182.97 245.25 180.67 243.34 C 177.26 241.70 178.13 237.54 178.34 234.51 C 174.99 235.14 171.14 236.24 168.12 234.01 Z" />
<path fill="#3a3a3a" opacity="1.00" d=" M 201.93 224.63 C 205.21 224.81 200.34 227.70 201.93 224.63 Z" />
<path fill="#3a3a3a" opacity="1.00" d=" M 182.61 235.04 C 184.02 234.23 184.87 231.63 186.79 232.21 C 188.37 234.44 188.99 237.11 189.30 239.78 C 188.59 239.37 187.16 238.54 186.44 238.13 C 186.49 237.06 186.54 235.98 186.58 234.91 C 186.37 235.60 185.96 236.96 185.76 237.65 C 184.71 236.78 183.66 235.91 182.61 235.04 Z" />
<path fill="#3a3a3a" opacity="1.00" d=" M 223.53 240.06 C 224.90 240.43 226.85 240.21 227.36 241.91 C 227.45 242.92 227.62 244.94 227.70 245.95 C 225.83 245.14 223.97 244.30 222.13 243.42 C 222.48 242.58 223.18 240.90 223.53 240.06 Z" />
<path fill="#3a3a3a" opacity="1.00" d=" M 249.16 250.20 C 250.27 249.20 250.81 246.68 252.74 247.31 C 255.26 247.41 254.20 250.47 254.79 252.06 C 252.90 251.46 251.03 250.84 249.16 250.20 Z" />
<path fill="#3a3a3a" opacity="1.00" d=" M 171.29 248.27 C 172.64 247.81 173.12 248.30 172.74 249.76 C 171.39 250.22 170.91 249.73 171.29 248.27 Z" />
<path fill="#3a3a3a" opacity="1.00" d=" M 157.17 250.14 C 159.30 251.00 163.71 250.01 164.06 252.99 C 164.19 255.25 161.44 254.74 160.11 254.12 C 158.68 253.20 158.08 251.48 157.17 250.14 Z" />
<path fill="#3a3a3a" opacity="1.00" d=" M 204.38 251.84 C 205.73 251.39 206.21 251.90 205.81 253.38 C 204.45 253.81 203.97 253.30 204.38 251.84 Z" />
<path fill="#3a3a3a" opacity="1.00" d=" M 186.02 255.66 C 189.40 254.27 193.03 253.78 196.61 253.19 C 196.16 255.04 195.29 256.87 195.40 258.82 C 196.03 260.28 196.93 261.59 197.61 263.02 C 196.57 265.34 194.53 268.79 191.47 267.54 C 192.48 265.12 195.59 263.02 193.90 260.10 C 193.40 257.75 190.74 257.97 189.13 259.00 C 189.94 259.17 191.55 259.49 192.35 259.66 C 192.71 260.80 193.07 261.94 193.43 263.09 C 192.93 263.76 191.93 265.11 191.43 265.78 C 189.49 262.48 187.75 259.07 186.02 255.66 Z" />
<path fill="#3a3a3a" opacity="1.00" d=" M 249.17 254.83 C 250.44 255.47 250.45 256.18 249.20 256.97 C 247.92 256.35 247.91 255.64 249.17 254.83 Z" />
<path fill="#3a3a3a" opacity="1.00" d=" M 232.37 255.87 C 233.00 256.46 233.00 256.46 232.37 255.87 Z" />
<path fill="#3a3a3a" opacity="1.00" d=" M 234.42 263.24 C 234.87 262.31 235.75 260.44 236.19 259.50 L 237.45 260.09 C 236.41 262.49 237.18 264.93 238.07 267.22 C 236.64 266.11 235.50 264.68 234.42 263.24 Z" />
<path fill="#3a3a3a" opacity="1.00" d=" M 157.24 263.87 C 159.61 265.04 159.24 268.38 159.91 270.58 C 158.93 269.39 157.92 268.23 156.87 267.10 C 157.29 269.25 158.52 270.94 160.52 271.88 C 160.83 273.01 161.13 274.14 161.42 275.28 C 156.31 274.49 153.02 267.63 157.24 263.87 Z" />
<path fill="#3a3a3a" opacity="1.00" d=" M 195.93 267.34 C 196.93 266.07 197.93 264.79 198.92 263.50 C 201.33 264.15 203.80 264.45 206.30 264.48 C 205.88 266.67 205.04 269.00 205.79 271.22 C 206.56 273.65 208.92 275.01 210.70 276.64 C 209.39 276.90 206.79 277.42 205.48 277.69 C 204.82 275.17 204.81 272.21 202.76 270.33 C 201.04 268.33 198.29 268.06 195.93 267.34 Z" />
<path fill="#3a3a3a" opacity="1.00" d=" M 212.15 265.93 C 215.11 263.07 217.50 270.67 213.95 270.97 C 211.32 271.50 210.11 267.36 212.15 265.93 Z" />
<path fill="#3a3a3a" opacity="1.00" d=" M 279.00 273.03 C 279.53 269.88 281.63 267.46 283.67 265.15 C 285.04 268.91 286.32 272.71 287.44 276.56 C 285.15 274.32 282.09 273.41 279.00 273.03 Z" />
<path fill="#3a3a3a" opacity="1.00" d=" M 238.07 267.22 C 240.05 268.66 240.42 271.07 238.98 273.06 C 236.91 276.25 240.27 279.61 239.43 282.97 C 237.85 284.27 236.12 285.38 234.49 286.60 C 233.30 284.35 231.88 282.23 230.29 280.25 C 232.44 278.20 233.08 275.27 231.82 272.58 L 232.16 272.05 C 234.33 270.92 235.74 268.89 237.47 267.24 C 237.20 269.84 235.57 271.86 234.41 274.08 C 233.52 276.26 235.43 278.11 235.94 280.12 C 235.89 281.60 235.61 283.05 235.46 284.52 C 237.93 281.67 236.00 278.07 235.16 275.01 C 236.38 272.49 238.06 270.15 238.07 267.22 Z" />
<path fill="#3a3a3a" opacity="1.00" d=" M 233.30 268.24 C 234.65 268.87 234.66 269.55 233.35 270.28 C 232.01 269.62 232.00 268.94 233.30 268.24 Z" />
<path fill="#3a3a3a" opacity="1.00" d=" M 259.25 273.67 L 259.69 273.38 C 261.74 273.72 260.51 277.98 258.96 276.78 C 258.94 275.73 259.04 274.70 259.25 273.67 Z" />
<path fill="#3a3a3a" opacity="1.00" d=" M 181.83 274.03 C 184.88 276.12 187.45 280.07 185.75 283.80 C 185.22 285.50 183.21 285.50 181.85 286.16 C 183.20 283.12 185.27 279.95 183.62 276.59 C 183.36 278.64 183.14 280.70 182.78 282.74 C 182.06 279.89 182.01 276.94 181.83 274.03 Z" />
<path fill="#3a3a3a" opacity="1.00" d=" M 157.42 284.68 C 156.28 281.04 158.51 277.32 162.01 276.11 C 162.68 279.26 163.42 282.40 163.77 285.61 C 162.24 284.23 161.20 282.47 160.08 280.78 C 159.95 284.35 163.30 286.01 164.97 288.71 C 162.11 288.42 158.93 287.31 157.42 284.68 Z" />
<path fill="#3a3a3a" opacity="1.00" d=" M 221.53 286.91 C 222.24 285.58 223.85 285.16 224.99 284.30 C 227.24 285.79 229.41 288.12 228.33 291.05 C 226.98 293.88 223.68 292.31 221.28 292.35 C 221.31 290.53 221.28 288.71 221.53 286.91 Z" />
<path fill="#3a3a3a" opacity="1.00" d=" M 182.51 286.92 C 184.23 288.30 186.85 289.49 186.75 292.10 C 187.27 294.80 185.13 296.85 183.22 298.37 C 184.20 295.73 185.06 293.01 184.84 290.15 C 184.51 291.26 183.85 293.48 183.53 294.59 C 182.87 292.08 182.53 289.51 182.51 286.92 Z" />
<path fill="#3a3a3a" opacity="1.00" d=" M 166.05 299.57 C 163.34 297.05 161.10 292.26 164.66 289.49 C 164.34 292.95 164.83 296.33 166.05 299.57 Z" />
<path fill="#3a3a3a" opacity="1.00" d=" M 236.40 294.51 C 237.54 292.91 238.46 290.74 240.81 290.91 C 240.47 292.17 241.28 295.43 238.73 294.52 L 236.40 294.51 Z" />
<path fill="#3a3a3a" opacity="1.00" d=" M 251.15 294.13 C 253.04 293.56 253.55 296.81 251.80 297.25 C 249.85 297.81 249.40 294.61 251.15 294.13 Z" />
<path fill="#3a3a3a" opacity="1.00" d=" M 187.16 294.61 C 187.55 295.11 187.93 295.63 188.30 296.16 C 186.78 298.24 185.34 300.38 183.73 302.39 C 182.30 298.78 186.12 297.44 187.16 294.61 Z" />
<path fill="#3a3a3a" opacity="1.00" d=" M 205.10 335.89 C 208.58 334.93 212.24 335.59 215.16 337.70 C 214.74 338.18 213.89 339.12 213.47 339.59 C 210.73 338.22 207.49 337.89 205.10 335.89 Z" />
</g>
</svg>
